{
.appVersion = "1149";
DisplayStrings = (
"us/sacute zubau",
d,
f,
h,
m,
n,
"/eng",
t
);
classes = (
{
automatic = 1;
code = " onesuperior twosuperior threesuperior ";
name = sups2;
},
{
automatic = 1;
code = " one two three ";
name = sups1;
},
{
automatic = 1;
code = " zero one two three four five six seven eight nine ";
name = ordn1;
},
{
automatic = 1;

glyphs = (
{
glyphname = A;
lastChange = "2018-06-15 18:27:58 +0000";
layers = (
{
anchors = (
{
name = btm;
position = "{329, 0}";
},
{
name = top;
position = "{311, 963}";
}
);
guideLines = (
{
position = "{595, 866}";
}
);
layerId = "184835E3-72D9-430C-A639-2454AC4A0BE8";
paths = (
{
closed = 1;
nodes = (
"129 180 LINE",
"450 180 LINE",
"424 258 LINE",
"151 258 LINE {name = hr00;}"
);
},
{
closed = 1;
nodes = (
"229 642 LINE",
"55 129 LINE SMOOTH",
"40 85 OFFCURVE",
"6 64 OFFCURVE",
"-30 64 CURVE",
"-30 40 OFFCURVE",
"-22 16 OFFCURVE",
"-7 0 CURVE",
"216 0 LINE",
"231 16 OFFCURVE",
"239 40 OFFCURVE",
"239 64 CURVE",
"199 64 OFFCURVE",
"175 79 OFFCURVE",
"175 115 CURVE SMOOTH",
"175 127 OFFCURVE",
"179 142 OFFCURVE",
"184 159 CURVE SMOOTH",
"317 623 LINE"
);
},
{
closed = 1;
nodes = (
"142 698 LINE",
"127 680 OFFCURVE",
"118 654 OFFCURVE",
"118 626 CURVE",
"233 626 OFFCURVE",
"297 591 OFFCURVE",
"321 506 CURVE SMOOTH",
"420 159 LINE SMOOTH",
"425 140 OFFCURVE",
"427 124 OFFCURVE",
"427 112 CURVE SMOOTH",
"427 78 OFFCURVE",
"405 64 OFFCURVE",
"370 64 CURVE",
"370 40 OFFCURVE",
"378 16 OFFCURVE",
"393 0 CURVE",
"664 0 LINE",
"679 16 OFFCURVE",
"687 40 OFFCURVE",
"687 64 CURVE",
"652 64 OFFCURVE",
"616 88 OFFCURVE",
"602 132 CURVE SMOOTH",
"416 698 LINE"
);
}
);
width = 657;
}
);
leftKerningGroup = A;
rightKerningGroup = A;
unicode = 0041;
},
{
color = 4;
glyphname = Aogonek;
lastChange = "2018-06-15 13:48:11 +0000";
layers = (
{
components = (
{
name = A;
}
);
layerId = "184835E3-72D9-430C-A639-2454AC4A0BE8";
paths = (
{
closed = 1;
nodes = (
"622 37 LINE",
"573 37 OFFCURVE",
"429 -7 OFFCURVE",
"429 -127 CURVE SMOOTH",
"429 -209 OFFCURVE",
"497 -240 OFFCURVE",
"559 -240 CURVE SMOOTH",
"606 -240 OFFCURVE",
"647 -225 OFFCURVE",
"664 -208 CURVE SMOOTH",
"678 -194 OFFCURVE",
"682 -175 OFFCURVE",
"682 -156 CURVE SMOOTH",
"682 -144 OFFCURVE",
"680 -127 OFFCURVE",
"674 -118 CURVE",
"662 -128 OFFCURVE",
"634 -136 OFFCURVE",
"606 -136 CURVE SMOOTH",
"575 -136 OFFCURVE",
"543 -126 OFFCURVE",
"543 -97 CURVE SMOOTH",
"543 -53 OFFCURVE",
"573 -14 OFFCURVE",
"634 1 CURVE"
);
}
);
width = 678;
}
);
leftKerningGroup = A;
rightKerningGroup = A;
unicode = 0104;
},
{
glyphname = Aringacute;
lastChange = "2018-06-15 13:48:11 +0000";
layers = (
{
anchors = (
{
name = _top;
position = "{311, 963}";
},
{
name = top;
position = "{311, 1174}";
}
);
components = (
{
name = A;
}
);
layerId = "184835E3-72D9-430C-A639-2454AC4A0BE8";
paths = (
{
closed = 1;
nodes = (
"446 977 OFFCURVE",
"392 1031 OFFCURVE",
"309 1031 CURVE SMOOTH",
"226 1031 OFFCURVE",
"173 977 OFFCURVE",
"173 898 CURVE SMOOTH",
"173 818 OFFCURVE",
"226 765 OFFCURVE",
"309 765 CURVE SMOOTH",
"392 765 OFFCURVE",
"446 818 OFFCURVE",
"446 898 CURVE SMOOTH {name = hr00;}"
);
},
{
closed = 1;
nodes = (
"363 866 OFFCURVE",
"342 844 OFFCURVE",
"309 844 CURVE SMOOTH",
"277 844 OFFCURVE",
"256 866 OFFCURVE",
"256 897 CURVE SMOOTH",
"256 929 OFFCURVE",
"277 951 OFFCURVE",
"309 951 CURVE SMOOTH",
"342 951 OFFCURVE",
"363 929 OFFCURVE",
"363 897 CURVE SMOOTH"
);
},
{
closed = 1;
nodes = (
"397 1078 OFFCURVE",
"342 1028 OFFCURVE",
"295 997 CURVE",
"298 973 OFFCURVE",
"315 963 OFFCURVE",
"334 963 CURVE SMOOTH",
"385 963 OFFCURVE",
"494 1028 OFFCURVE",
"494 1080 CURVE SMOOTH",
"494 1104 OFFCURVE",
"468 1138 OFFCURVE",
"429 1138 CURVE {name = hr00;}"
);
}
);
width = 657;
}
);
leftKerningGroup = A;
rightKerningGroup = A;
unicode = 01FA;
},
{
glyphname = AE;
lastChange = "2018-06-15 18:23:14 +0000";
layers = (
{
anchors = (
{
name = btm;
position = "{406, -12}";
},
{
name = top;
position = "{406, 963}";
}
);
layerId = "184835E3-72D9-430C-A639-2454AC4A0BE8";
paths = (
{
closed = 1;
nodes = (
"755 128 OFFCURVE",
"717 88 OFFCURVE",
"649 88 CURVE SMOOTH {name = hr06;}",
"543 88 LINE",
"543 318 LINE",
"626 318 LINE SMOOTH",
"663 318 OFFCURVE",
"691 301 OFFCURVE",
"691 248 CURVE",
"720 248 OFFCURVE",
"749 256 OFFCURVE",
"769 269 CURVE",
"769 445 LINE",
"748 458 OFFCURVE",
"720 466 OFFCURVE",
"691 466 CURVE",
"691 412 OFFCURVE",
"663 391 OFFCURVE",
"626 391 CURVE SMOOTH",
"543 391 LINE",
"543 613 LINE",
"639 613 LINE SMOOTH",
"692 613 OFFCURVE",
"720 568 OFFCURVE",
"734 525 CURVE",
"759 531 OFFCURVE",
"797 548 OFFCURVE",
"814 563 CURVE",
"814 596 OFFCURVE",
"800 682 OFFCURVE",
"784 715 CURVE",
"759 715 OFFCURVE",
"732 709 OFFCURVE",
"706 698 CURVE",
"123 698 LINE",
"109 680 OFFCURVE",
"101 653 OFFCURVE",
"101 626 CURVE",
"114 628 OFFCURVE",
"128 629 OFFCURVE",
"140 629 CURVE SMOOTH",
"203 629 OFFCURVE",
"246 606 OFFCURVE",
"252 570 CURVE",
"32 128 LINE SMOOTH",
"13 89 OFFCURVE",
"-20 64 OFFCURVE",
"-55 64 CURVE {name = hr02;}",
"-55 41 OFFCURVE",
"-47 17 OFFCURVE",
"-33 0 CURVE",
"199 0 LINE",
"214 17 OFFCURVE",
"222 41 OFFCURVE",
"222 64 CURVE",
"184 64 OFFCURVE",
"160 78 OFFCURVE",
"160 109 CURVE SMOOTH",
"160 122 OFFCURVE",
"165 139 OFFCURVE",
"174 159 CURVE",
"176 164 LINE",
"379 164 LINE",
"379 115 LINE SMOOTH",
"379 77 OFFCURVE",
"362 63 OFFCURVE",
"318 63 CURVE",
"318 40 OFFCURVE",
"327 17 OFFCURVE",
"341 0 CURVE {name = hr04;}",
"749 0 LINE",
"773 -11 OFFCURVE",
"801 -16 OFFCURVE",
"824 -16 CURVE {name = hr05;}",
"843 20 OFFCURVE",
"856 145 OFFCURVE",
"856 184 CURVE",
"774 184 LINE"
);
},
{
closed = 1;
nodes = (
"379 596 LINE",
"379 242 LINE",
"213 242 LINE"
);
}
);
width = 881;
}
);
leftKerningGroup = A;
rightKerningGroup = E;
rightMetricsKey = E;
unicode = 00C6;
userData = {
com.typemytype.robofont.guides = (
{
angle = 0;
isGlobal = 0;
magnetic = 5;
x = 0;
y = 1363;
}
);
};
},
{
color = 4;
glyphname = B;
lastChange = "2018-06-12 19:28:29 +0000";
layers = (
{
anchors = (
{
name = btm;
position = "{318, -5}";
},
{
name = top;
position = "{282, 963}";
}
);
layerId = "184835E3-72D9-430C-A639-2454AC4A0BE8";
paths = (
{
closed = 1;
nodes = (
"560 -8 OFFCURVE",
"617 93 OFFCURVE",
"617 196 CURVE SMOOTH",
"617 303 OFFCURVE",
"567 346 OFFCURVE",
"452 370 CURVE",
"544 408 OFFCURVE",
"579 460 OFFCURVE",
"579 535 CURVE SMOOTH",
"579 611 OFFCURVE",
"524 703 OFFCURVE",
"292 703 CURVE SMOOTH",
"231 703 OFFCURVE",
"189 698 OFFCURVE",
"48 698 CURVE",
"34 681 OFFCURVE",
"26 658 OFFCURVE",
"26 635 CURVE",
"71 635 OFFCURVE",
"88 621 OFFCURVE",
"88 584 CURVE SMOOTH",
"88 114 LINE SMOOTH",
"88 77 OFFCURVE",
"71 63 OFFCURVE",
"26 63 CURVE",
"26 40 OFFCURVE",
"34 17 OFFCURVE",
"48 0 CURVE",
"170 0 OFFCURVE",
"248 -8 OFFCURVE",
"311 -8 CURVE SMOOTH"
);
},
{
closed = 1;
nodes = (
"278 65 OFFCURVE",
"262 67 OFFCURVE",
"253 68 CURVE",
"253 321 LINE {name = hr00;}",
"261 321 OFFCURVE",
"275 322 OFFCURVE",
"286 322 CURVE SMOOTH",
"393 322 OFFCURVE",
"435 276 OFFCURVE",
"435 186 CURVE SMOOTH",
"435 107 OFFCURVE",
"389 65 OFFCURVE",
"295 65 CURVE SMOOTH"
);
},
{
closed = 1;
nodes = (
"274 394 OFFCURVE",
"262 395 OFFCURVE",
"253 396 CURVE",
"253 626 LINE",
"263 629 OFFCURVE",
"280 630 OFFCURVE",
"294 630 CURVE SMOOTH",
"379 630 OFFCURVE",
"417 584 OFFCURVE",
"417 512 CURVE SMOOTH",
"417 440 OFFCURVE",
"380 394 OFFCURVE",
"283 394 CURVE SMOOTH"
);
}
);
width = 633;
}
);
leftKerningGroup = H;
leftMetricsKey = H;
rightKerningGroup = B;
unicode = 0042;
userData = {
com.typemytype.robofont.guides = (
{
angle = 0;
isGlobal = 0;
magnetic = 5;
x = 0;
y = 1410;
},
{
angle = 0;
isGlobal = 0;
magnetic = 5;
x = 0;
y = 140;
}
);
};
},
{
color = 5;
glyphname = C;
lastChange = "2018-06-15 18:23:09 +0000";
layers = (
{
anchors = (
{
name = btm;
position = "{292, -5}";
},
{
name = top;
position = "{321, 963}";
}
);
layerId = "184835E3-72D9-430C-A639-2454AC4A0BE8";
paths = (
{
closed = 1;
nodes = (
"555 543 OFFCURVE",
"552 645 OFFCURVE",
"526 709 CURVE",
"505 708 OFFCURVE",
"457 696 OFFCURVE",
"437 687 CURVE",
"409 700 OFFCURVE",
"362 709 OFFCURVE",
"333 709 CURVE SMOOTH",
"148 709 OFFCURVE",
"25 587 OFFCURVE",
"25 352 CURVE SMOOTH",
"25 106 OFFCURVE",
"173 -14 OFFCURVE",
"344 -14 CURVE SMOOTH",
"479 -14 OFFCURVE",
"554 55 OFFCURVE",
"554 102 CURVE SMOOTH",
"554 121 OFFCURVE",
"543 150 OFFCURVE",
"526 162 CURVE",
"509 136 OFFCURVE",
"464 108 OFFCURVE",
"403 108 CURVE SMOOTH",
"296 108 OFFCURVE",
"202 180 OFFCURVE",
"202 387 CURVE SMOOTH",
"202 554 OFFCURVE",
"262 622 OFFCURVE",
"335 622 CURVE SMOOTH",
"394 622 OFFCURVE",
"436 570 OFFCURVE",
"447 483 CURVE",
"555 483 LINE {name = hr00;}"
);
}
);
width = 570;
}
);
leftKerningGroup = O;
leftMetricsKey = O;
rightKerningGroup = C;
unicode = 0043;
},
{
glyphname = D;
lastChange = "2018-06-15 18:23:24 +0000";
layers = (
{
anchors = (
{
name = btm;
position = "{296, 0}";
},
{
name = top;
position = "{329, 963}";
}
);
layerId = "184835E3-72D9-430C-A639-2454AC4A0BE8";
paths = (
{
closed = 1;
nodes = (
"537 -11 OFFCURVE",
"641 159 OFFCURVE",
"641 364 CURVE SMOOTH",
"641 552 OFFCURVE",
"537 710 OFFCURVE",
"306 710 CURVE SMOOTH",
"276 710 OFFCURVE",
"180 698 OFFCURVE",
"48 698 CURVE",
"34 682 OFFCURVE",
"26 659 OFFCURVE",
"26 635 CURVE",
"70 635 OFFCURVE",
"88 621 OFFCURVE",
"88 585 CURVE SMOOTH",
"88 115 LINE SMOOTH",
"88 78 OFFCURVE",
"70 64 OFFCURVE",
"26 64 CURVE",
"26 40 OFFCURVE",
"34 18 OFFCURVE",
"48 0 CURVE",
"193 0 OFFCURVE",
"246 -11 OFFCURVE",
"292 -11 CURVE SMOOTH"
);
},
{
closed = 1;
nodes = (
"274 72 OFFCURVE",
"262 72 OFFCURVE",
"252 74 CURVE",
"252 628 LINE",
"259 630 OFFCURVE",
"267 630 OFFCURVE",
"276 630 CURVE SMOOTH",
"389 630 OFFCURVE",
"463 543 OFFCURVE",
"463 349 CURVE SMOOTH {name = hr00;}",
"463 147 OFFCURVE",
"393 72 OFFCURVE",
"284 72 CURVE SMOOTH"
);
}
);
width = 668;
}
);
leftKerningGroup = H;
leftMetricsKey = H;
rightKerningGroup = O;
unicode = 0044;
},
{
glyphname = Eth;
lastChange = "2018-06-15 13:48:35 +0000";
layers = (
{
components = (
{
name = D;
}
);
layerId = "184835E3-72D9-430C-A639-2454AC4A0BE8";
paths = (
{
closed = 1;
nodes = (
"361 352 OFFCURVE",
"360 385 OFFCURVE",
"360 411 CURVE",
"39 411 LINE",
"39 333 LINE",
"344 333 LINE"
);
}
);
width = 668;
}
);
leftKerningGroup = H;
rightKerningGroup = O;
rightMetricsKey = D;
unicode = 00D0;
},
{
glyphname = E;
lastChange = "2018-06-15 18:21:08 +0000";
layers = (
{
anchors = (
{
name = btm;
position = "{310, -12}";
},
{
name = top;
position = "{305, 963}";
}
);
background = {
paths = (
{
closed = 1;
nodes = (
"217 313 LINE",
"547 313 LINE",
"547 397 LINE",
"217 397 LINE {name = hr00;}"
);
},
{
closed = 1;
nodes = (
"307 16 OFFCURVE",
"316 40 OFFCURVE",
"316 64 CURVE",
"272 64 OFFCURVE",
"256 77 OFFCURVE",
"256 114 CURVE SMOOTH",
"256 584 LINE SMOOTH",
"256 621 OFFCURVE",
"272 635 OFFCURVE",
"316 635 CURVE",
"316 658 OFFCURVE",
"307 682 OFFCURVE",
"294 698 CURVE",
"49 698 LINE",
"35 682 OFFCURVE",
"27 658 OFFCURVE",
"27 635 CURVE {name = hr03;}",
"71 635 OFFCURVE",
"87 621 OFFCURVE",
"87 584 CURVE SMOOTH",
"87 114 LINE SMOOTH",
"87 77 OFFCURVE",
"71 64 OFFCURVE",
"27 64 CURVE",
"27 40 OFFCURVE",
"35 16 OFFCURVE",
"49 0 CURVE {name = hr04;}",
"294 0 LINE"
);
},
{
closed = 1;
nodes = (
"694 16 OFFCURVE",
"702 40 OFFCURVE",
"702 64 CURVE",
"659 64 OFFCURVE",
"643 77 OFFCURVE",
"643 114 CURVE SMOOTH",
"643 584 LINE SMOOTH",
"643 621 OFFCURVE",
"659 635 OFFCURVE",
"702 635 CURVE",
"702 658 OFFCURVE",
"694 682 OFFCURVE",
"680 698 CURVE",
"436 698 LINE",
"422 682 OFFCURVE",
"414 658 OFFCURVE",
"414 635 CURVE",
"457 635 OFFCURVE",
"474 621 OFFCURVE",
"474 584 CURVE SMOOTH",
"474 114 LINE SMOOTH",
"474 77 OFFCURVE",
"457 64 OFFCURVE",
"414 64 CURVE",
"414 40 OFFCURVE",
"422 16 OFFCURVE",
"436 0 CURVE",
"680 0 LINE"
);
}
);
};
layerId = "184835E3-72D9-430C-A639-2454AC4A0BE8";
paths = (
{
closed = 1;
nodes = (
"196 325 LINE",
"327 325 LINE SMOOTH",
"364 325 OFFCURVE",
"392 302 OFFCURVE",
"392 249 CURVE",
"421 249 OFFCURVE",
"451 257 OFFCURVE",
"472 270 CURVE",
"472 454 LINE",
"450 467 OFFCURVE",
"421 475 OFFCURVE",
"391 475 CURVE",
"391 421 OFFCURVE",
"363 402 OFFCURVE",
"326 402 CURVE SMOOTH",
"221 402 LINE {name = hr02;}",
"254 384 LINE",
"254 645 LINE",
"154 613 LINE",
"363 613 LINE SMOOTH",
"416 613 OFFCURVE",
"444 566 OFFCURVE",
"459 522 CURVE",
"483 527 OFFCURVE",
"537 545 OFFCURVE",
"554 561 CURVE",
"554 594 OFFCURVE",
"531 682 OFFCURVE",
"514 715 CURVE",
"489 715 OFFCURVE",
"457 709 OFFCURVE",
"433 698 CURVE",
"49 698 LINE",
"36 681 OFFCURVE",
"26 658 OFFCURVE",
"26 635 CURVE {name = hr03;}",
"70 635 OFFCURVE",
"87 621 OFFCURVE",
"87 584 CURVE SMOOTH",
"87 115 LINE SMOOTH",
"87 77 OFFCURVE",
"70 63 OFFCURVE",
"26 63 CURVE",
"26 40 OFFCURVE",
"36 17 OFFCURVE",
"49 0 CURVE {name = hr04;}",
"507 0 LINE",
"531 -11 OFFCURVE",
"541 -14 OFFCURVE",
"549 -16 CURVE",
"568 20 OFFCURVE",
"585 171 OFFCURVE",
"585 210 CURVE",
"478 210 LINE",
"460 154 OFFCURVE",
"433 88 OFFCURVE",
"375 88 CURVE SMOOTH",
"203 88 LINE",
"254 59 LINE {name = hr05;}",
"254 353 LINE {name = hr01;}"
);
}
);
width = 610;
}
);
leftKerningGroup = H;
leftMetricsKey = H;
rightKerningGroup = E;
unicode = 0045;
},
{
color = 4;
glyphname = Eogonek;
lastChange = "2018-06-15 18:22:59 +0000";
layers = (
{
components = (
{
name = E;
}
);
layerId = "184835E3-72D9-430C-A639-2454AC4A0BE8";
paths = (
{
closed = 1;
nodes = (
"485 37 LINE",
"436 37 OFFCURVE",
"292 -7 OFFCURVE",
"292 -127 CURVE SMOOTH",
"292 -209 OFFCURVE",
"360 -240 OFFCURVE",
"422 -240 CURVE SMOOTH",
"469 -240 OFFCURVE",
"510 -224 OFFCURVE",
"527 -208 CURVE SMOOTH",
"541 -194 OFFCURVE",
"545 -175 OFFCURVE",
"545 -156 CURVE SMOOTH",
"545 -144 OFFCURVE",
"543 -127 OFFCURVE",
"537 -118 CURVE",
"525 -128 OFFCURVE",
"497 -136 OFFCURVE",
"469 -136 CURVE SMOOTH",
"438 -136 OFFCURVE",
"406 -126 OFFCURVE",
"406 -97 CURVE SMOOTH",
"406 -53 OFFCURVE",
"436 -14 OFFCURVE",
"497 1 CURVE"
);
}
);
width = 610;
}
);
leftKerningGroup = H;
leftMetricsKey = E;
widthMetricsKey = E;
rightKerningGroup = E;
unicode = 0118;
},
{
glyphname = F;
lastChange = "2018-06-15 03:57:43 +0000";
layers = (
{
anchors = (
{
name = btm;
position = "{280, 0}";
},
{
name = top;
position = "{280, 975}";
}
);
layerId = "184835E3-72D9-430C-A639-2454AC4A0BE8";
paths = (
{
closed = 1;
nodes = (
"346 612 LINE SMOOTH",
"413 612 OFFCURVE",
"445 569 OFFCURVE",
"459 525 CURVE",
"485 530 OFFCURVE",
"527 547 OFFCURVE",
"544 563 CURVE",
"544 596 OFFCURVE",
"528 682 OFFCURVE",
"511 714 CURVE",
"486 714 OFFCURVE",
"460 708 OFFCURVE",
"435 697 CURVE",
"53 697 LINE",
"39 681 OFFCURVE",
"30 658 OFFCURVE",
"30 634 CURVE",
"73 634 OFFCURVE",
"94 621 OFFCURVE",
"94 584 CURVE SMOOTH",
"94 114 LINE SMOOTH",
"94 77 OFFCURVE",
"80 64 OFFCURVE",
"26 64 CURVE",
"26 40 OFFCURVE",
"34 16 OFFCURVE",
"49 0 CURVE",
"386 0 LINE",
"400 16 OFFCURVE",
"404 44 OFFCURVE",
"404 68 CURVE",
"376 68 OFFCURVE",
"346 68 OFFCURVE",
"324 68 CURVE SMOOTH",
"268 68 OFFCURVE",
"258 90 OFFCURVE",
"258 127 CURVE SMOOTH",
"258 327 LINE",
"223 305 LINE",
"341 305 LINE SMOOTH",
"378 305 OFFCURVE",
"392 283 OFFCURVE",
"392 229 CURVE",
"422 229 OFFCURVE",
"457 237 OFFCURVE",
"478 251 CURVE",
"478 436 LINE",
"457 450 OFFCURVE",
"421 458 OFFCURVE",
"392 458 CURVE",
"392 404 OFFCURVE",
"378 380 OFFCURVE",
"340 380 CURVE SMOOTH",
"224 380 LINE",
"258 350 LINE",
"258 663 LINE",
"160 612 LINE {name = hr00;}"
);
}
);
width = 564;
}
);
leftKerningGroup = H;
leftMetricsKey = H;
rightKerningGroup = F;
unicode = 0046;
},
{
color = 4;
glyphname = G;
lastChange = "2018-06-15 18:23:04 +0000";
layers = (
{
anchors = (
{
name = btm;
position = "{337, -5}";
},
{
name = top;
position = "{315, 963}";
}
);
background = {
paths = (
{
closed = 1;
nodes = (
"810 1211 OFFCURVE",
"803 1438 OFFCURVE",
"747 1579 CURVE",
"699 1577 OFFCURVE",
"594 1552 OFFCURVE",
"548 1530 CURVE",
"486 1561 OFFCURVE",
"382 1580 OFFCURVE",
"316 1580 CURVE SMOOTH",
"-95 1580 OFFCURVE",
"-361 1300 OFFCURVE",
"-361 778 CURVE SMOOTH",
"-361 232 OFFCURVE",
"-40 -27 OFFCURVE",
"342 -27 CURVE SMOOTH",
"643 -27 OFFCURVE",
"807 125 OFFCURVE",
"807 232 CURVE SMOOTH",
"807 273 OFFCURVE",
"783 338 OFFCURVE",
"747 363 CURVE",
"709 306 OFFCURVE",
"609 245 OFFCURVE",
"473 245 CURVE SMOOTH",
"234 245 OFFCURVE",
"9 427 OFFCURVE",
"9 885 CURVE SMOOTH",
"9 1257 OFFCURVE",
"160 1387 OFFCURVE",
"323 1387 CURVE SMOOTH",
"473 1387 OFFCURVE",
"580 1270 OFFCURVE",
"604 1076 CURVE",
"810 1076 LINE {name = hr00;}"
);
}
);
};
layerId = "184835E3-72D9-430C-A639-2454AC4A0BE8";
paths = (
{
closed = 1;
nodes = (
"505 -14 OFFCURVE",
"611 43 OFFCURVE",
"611 78 CURVE SMOOTH",
"611 102 OFFCURVE",
"593 89 OFFCURVE",
"593 141 CURVE SMOOTH",
"593 256 LINE",
"608 262 OFFCURVE",
"628 264 OFFCURVE",
"649 264 CURVE",
"652 269 OFFCURVE",
"654 277 OFFCURVE",
"654 282 CURVE SMOOTH",
"654 297 OFFCURVE",
"645 349 OFFCURVE",
"585 349 CURVE SMOOTH",
"371 349 LINE",
"357 333 OFFCURVE",
"347 295 OFFCURVE",
"347 272 CURVE",
"410 272 OFFCURVE",
"440 258 OFFCURVE",
"440 223 CURVE SMOOTH",
"440 109 LINE",
"422 90 OFFCURVE",
"396 83 OFFCURVE",
"359 83 CURVE SMOOTH",
"262 83 OFFCURVE",
"209 153 OFFCURVE",
"209 365 CURVE SMOOTH",
"209 563 OFFCURVE",
"270 617 OFFCURVE",
"350 617 CURVE SMOOTH",
"422 617 OFFCURVE",
"480 570 OFFCURVE",
"494 483 CURVE",
"591 483 LINE",
"591 543 OFFCURVE",
"587 645 OFFCURVE",
"562 709 CURVE",
"541 708 OFFCURVE",
"494 696 OFFCURVE",
"474 687 CURVE",
"424 706 OFFCURVE",
"383 709 OFFCURVE",
"353 709 CURVE SMOOTH",
"161 709 OFFCURVE",
"25 584 OFFCURVE",
"25 339 CURVE SMOOTH",
"25 132 OFFCURVE",
"157 -14 OFFCURVE",
"370 -14 CURVE SMOOTH {name = hr00;}"
);
}
);
width = 664;
}
);
leftKerningGroup = O;
leftMetricsKey = O;
rightKerningGroup = G;
unicode = 0047;
},
{
glyphname = H;
lastChange = "2018-06-15 18:22:52 +0000";
layers = (
{
anchors = (
{
name = btm;
position = "{363, 0}";
},
{
name = top;
position = "{355, 963}";
}
);
background = {
paths = (
{
closed = 1;
nodes = (
"-21 697 LINE",
"317 697 LINE SMOOTH",
"399 697 OFFCURVE",
"461 669 OFFCURVE",
"461 551 CURVE",
"526 551 OFFCURVE",
"593 568 OFFCURVE",
"640 598 CURVE",
"639 988 LINE",
"592 1018 OFFCURVE",
"525 1036 OFFCURVE",
"460 1036 CURVE",
"460 917 OFFCURVE",
"398 879 OFFCURVE",
"316 879 CURVE SMOOTH",
"36 879 LINE {name = hr02;}",
"112 837 LINE",
"112 1434 LINE",
"-104 1362 LINE",
"366 1362 LINE SMOOTH",
"483 1362 OFFCURVE",
"546 1258 OFFCURVE",
"578 1161 CURVE",
"632 1173 OFFCURVE",
"747 1211 OFFCURVE",
"785 1245 CURVE",
"785 1320 OFFCURVE",
"734 1517 OFFCURVE",
"697 1588 CURVE",
"642 1588 OFFCURVE",
"571 1575 OFFCURVE",
"516 1552 CURVE",
"-337 1552 LINE",
"-368 1515 OFFCURVE",
"-387 1463 OFFCURVE",
"-387 1411 CURVE {name = hr03;}",
"-291 1411 OFFCURVE",
"-253 1380 OFFCURVE",
"-253 1298 CURVE SMOOTH",
"-253 254 LINE SMOOTH",
"-253 171 OFFCURVE",
"-291 141 OFFCURVE",
"-387 141 CURVE",
"-387 89 OFFCURVE",
"-368 36 OFFCURVE",
"-337 0 CURVE {name = hr04;}",
"629 0 LINE",
"682 -24 OFFCURVE",
"745 -36 OFFCURVE",
"797 -36 CURVE",
"839 45 OFFCURVE",
"876 358 OFFCURVE",
"876 444 CURVE",
"680 445 LINE",
"639 320 OFFCURVE",
"540 195 OFFCURVE",
"387 195 CURVE SMOOTH",
"-2 195 LINE",
"112 130 LINE {name = hr05;}",
"112 761 LINE {name = hr01;}"
);
}
);
};
layerId = "184835E3-72D9-430C-A639-2454AC4A0BE8";
paths = (
{
closed = 1;
nodes = (
"215 313 LINE",
"547 313 LINE",
"547 397 LINE",
"215 397 LINE {name = hr00;}"
);
},
{
closed = 1;
nodes = (
"305 16 OFFCURVE",
"314 40 OFFCURVE",
"314 64 CURVE",
"270 64 OFFCURVE",
"254 77 OFFCURVE",
"254 114 CURVE SMOOTH",
"254 584 LINE SMOOTH",
"254 621 OFFCURVE",
"270 635 OFFCURVE",
"314 635 CURVE",
"314 658 OFFCURVE",
"305 682 OFFCURVE",
"292 698 CURVE",
"48 698 LINE",
"34 682 OFFCURVE",
"26 658 OFFCURVE",
"26 635 CURVE {name = hr03;}",
"70 635 OFFCURVE",
"86 621 OFFCURVE",
"86 584 CURVE SMOOTH",
"86 114 LINE SMOOTH",
"86 77 OFFCURVE",
"70 64 OFFCURVE",
"26 64 CURVE",
"26 40 OFFCURVE",
"34 16 OFFCURVE",
"48 0 CURVE {name = hr04;}",
"292 0 LINE"
);
},
{
closed = 1;
nodes = (
"693 16 OFFCURVE",
"701 40 OFFCURVE",
"701 64 CURVE",
"658 64 OFFCURVE",
"642 77 OFFCURVE",
"642 114 CURVE SMOOTH",
"642 584 LINE SMOOTH",
"642 621 OFFCURVE",
"658 635 OFFCURVE",
"701 635 CURVE",
"701 658 OFFCURVE",
"693 682 OFFCURVE",
"679 698 CURVE",
"436 698 LINE",
"422 682 OFFCURVE",
"414 658 OFFCURVE",
"414 635 CURVE",
"457 635 OFFCURVE",
"474 621 OFFCURVE",
"474 584 CURVE SMOOTH",
"474 114 LINE SMOOTH",
"474 77 OFFCURVE",
"457 64 OFFCURVE",
"414 64 CURVE",
"414 40 OFFCURVE",
"422 16 OFFCURVE",
"436 0 CURVE",
"679 0 LINE"
);
}
);
width = 727;
}
);
leftKerningGroup = H;
rightKerningGroup = H;
unicode = 0048;
},
{
glyphname = Hbar;
lastChange = "2018-06-12 17:44:11 +0000";
layers = (
{
layerId = "184835E3-72D9-430C-A639-2454AC4A0BE8";
paths = (
{
closed = 1;
nodes = (
"209 267 LINE",
"570 267 LINE",
"544 349 LINE",
"212 349 LINE {name = hr00;}"
);
},
{
closed = 1;
nodes = (
"688 453 OFFCURVE",
"687 486 OFFCURVE",
"687 512 CURVE",
"39 512 LINE",
"39 434 LINE",
"671 434 LINE"
);
},
{
closed = 1;
nodes = (
"306 16 OFFCURVE",
"315 40 OFFCURVE",
"315 64 CURVE",
"271 64 OFFCURVE",
"255 77 OFFCURVE",
"255 114 CURVE SMOOTH",
"255 584 LINE SMOOTH",
"255 621 OFFCURVE",
"271 635 OFFCURVE",
"315 635 CURVE",
"315 658 OFFCURVE",
"306 682 OFFCURVE",
"293 698 CURVE",
"48 698 LINE",
"34 682 OFFCURVE",
"26 658 OFFCURVE",
"26 635 CURVE {name = hr03;}",
"70 635 OFFCURVE",
"86 621 OFFCURVE",
"86 584 CURVE SMOOTH",
"86 114 LINE SMOOTH",
"86 77 OFFCURVE",
"70 64 OFFCURVE",
"26 64 CURVE",
"26 40 OFFCURVE",
"34 16 OFFCURVE",
"48 0 CURVE {name = hr04;}",
"293 0 LINE"
);
},
{
closed = 1;
nodes = (
"693 16 OFFCURVE",
"701 40 OFFCURVE",
"701 64 CURVE",
"658 64 OFFCURVE",
"642 77 OFFCURVE",
"642 114 CURVE SMOOTH",
"642 584 LINE SMOOTH",
"642 621 OFFCURVE",
"658 635 OFFCURVE",
"701 635 CURVE",
"701 658 OFFCURVE",
"693 682 OFFCURVE",
"679 698 CURVE",
"435 698 LINE",
"421 682 OFFCURVE",
"413 658 OFFCURVE",
"413 635 CURVE",
"456 635 OFFCURVE",
"473 621 OFFCURVE",
"473 584 CURVE SMOOTH",
"473 114 LINE SMOOTH",
"473 77 OFFCURVE",
"456 64 OFFCURVE",
"413 64 CURVE",
"413 40 OFFCURVE",
"421 16 OFFCURVE",
"435 0 CURVE",
"679 0 LINE"
);
}
);
width = 727;
}
);
leftKerningGroup = H;
leftMetricsKey = H;
rightKerningGroup = H;
rightMetricsKey = H;
unicode = 0126;
},
{
glyphname = I;
lastChange = "2018-06-15 18:22:43 +0000";
layers = (
{
anchors = (
{
name = btm;
position = "{183, 0}";
},
{
name = top;
position = "{172, 963}";
}
);
layerId = "184835E3-72D9-430C-A639-2454AC4A0BE8";
paths = (
{
closed = 1;
nodes = (
"307 16 OFFCURVE",
"316 40 OFFCURVE",
"316 64 CURVE",
"272 64 OFFCURVE",
"256 77 OFFCURVE",
"256 114 CURVE SMOOTH",
"256 584 LINE SMOOTH",
"256 621 OFFCURVE",
"272 635 OFFCURVE",
"316 635 CURVE",
"316 658 OFFCURVE",
"307 682 OFFCURVE",
"294 698 CURVE",
"51 698 LINE",
"37 682 OFFCURVE",
"29 658 OFFCURVE",
"29 635 CURVE {name = hr03;}",
"73 635 OFFCURVE",
"89 621 OFFCURVE",
"89 584 CURVE SMOOTH",
"89 114 LINE SMOOTH",
"89 77 OFFCURVE",
"73 64 OFFCURVE",
"29 64 CURVE",
"29 40 OFFCURVE",
"37 16 OFFCURVE",
"51 0 CURVE {name = hr04;}",
"294 0 LINE"
);
}
);
width = 345;
}
);
leftKerningGroup = I;
rightKerningGroup = I;
unicode = 0049;
},
{
color = 4;
glyphname = Iogonek;
lastChange = "2018-06-13 17:26:50 +0000";
layers = (
{
components = (
{
name = I;
}
);
layerId = "184835E3-72D9-430C-A639-2454AC4A0BE8";
paths = (
{
closed = 1;
nodes = (
"244 37 LINE",
"195 37 OFFCURVE",
"51 -7 OFFCURVE",
"51 -127 CURVE SMOOTH",
"51 -209 OFFCURVE",
"119 -240 OFFCURVE",
"181 -240 CURVE SMOOTH",
"228 -240 OFFCURVE",
"269 -224 OFFCURVE",
"286 -208 CURVE SMOOTH",
"300 -194 OFFCURVE",
"304 -175 OFFCURVE",
"304 -156 CURVE SMOOTH",
"304 -144 OFFCURVE",
"302 -127 OFFCURVE",
"296 -118 CURVE",
"284 -128 OFFCURVE",
"256 -136 OFFCURVE",
"228 -136 CURVE SMOOTH",
"197 -136 OFFCURVE",
"165 -126 OFFCURVE",
"165 -97 CURVE SMOOTH",
"165 -53 OFFCURVE",
"195 -14 OFFCURVE",
"256 1 CURVE"
);
}
);
width = 325;
}
);
leftKerningGroup = I;
rightKerningGroup = I;
unicode = 012E;
},
{
color = 4;
glyphname = J;
lastChange = "2018-06-12 19:26:33 +0000";
layers = (
{
anchors = (
{
name = btm;
position = "{304, -5}";
},
{
name = top;
position = "{397, 963}";
}
);
layerId = "184835E3-72D9-430C-A639-2454AC4A0BE8";
paths = (
{
closed = 1;
nodes = (
"489 620 OFFCURVE",
"510 634 OFFCURVE",
"555 634 CURVE",
"555 657 OFFCURVE",
"547 681 OFFCURVE",
"532 697 CURVE",
"251 697 LINE",
"237 681 OFFCURVE",
"228 657 OFFCURVE",
"228 634 CURVE",
"300 634 OFFCURVE",
"322 612 OFFCURVE",
"322 564 CURVE SMOOTH",
"322 170 LINE SMOOTH",
"322 95 OFFCURVE",
"286 75 OFFCURVE",
"250 75 CURVE SMOOTH",
"185 75 OFFCURVE",
"159 144 OFFCURVE",
"159 218 CURVE SMOOTH",
"159 241 OFFCURVE",
"160 261 OFFCURVE",
"163 283 CURVE",
"15 283 LINE",
"12 268 OFFCURVE",
"10 250 OFFCURVE",
"10 224 CURVE SMOOTH",
"10 101 OFFCURVE",
"57 23 OFFCURVE",
"90 -13 CURVE",
"133 10 LINE",
"159 -4 OFFCURVE",
"217 -13 OFFCURVE",
"250 -13 CURVE SMOOTH",
"375 -13 OFFCURVE",
"489 42 OFFCURVE",
"489 228 CURVE SMOOTH",
"489 583 LINE SMOOTH {name = hr00;}"
);
}
);
width = 563;
}
);
leftKerningGroup = J;
rightKerningGroup = U;
unicode = 004A;
},
{
color = 4;
glyphname = K;
lastChange = "2018-06-12 19:52:33 +0000";
layers = (
{
anchors = (
{
name = btm;
position = "{340, -5}";
},
{
name = top;
position = "{342, 963}";
}
);
layerId = "184835E3-72D9-430C-A639-2454AC4A0BE8";
paths = (
{
closed = 1;
nodes = (
"471 305 OFFCURVE",
"428 349 OFFCURVE",
"335 379 CURVE",
"342 321 LINE",
"566 587 LINE",
"580 605 OFFCURVE",
"609 635 OFFCURVE",
"666 635 CURVE",
"666 657 OFFCURVE",
"657 681 OFFCURVE",
"644 698 CURVE",
"411 698 LINE",
"397 681 OFFCURVE",
"388 657 OFFCURVE",
"388 635 CURVE",
"414 635 OFFCURVE",
"446 624 OFFCURVE",
"446 607 CURVE SMOOTH",
"446 596 OFFCURVE",
"442 582 OFFCURVE",
"433 571 CURVE SMOOTH",
"261 344 LINE",
"319 359 LINE",
"367 386 OFFCURVE",
"226 392 OFFCURVE",
"248 381 CURVE",
"255 314 LINE",
"255 584 LINE SMOOTH",
"255 621 OFFCURVE",
"271 635 OFFCURVE",
"315 635 CURVE",
"315 658 OFFCURVE",
"306 682 OFFCURVE",
"293 698 CURVE",
"48 698 LINE",
"34 682 OFFCURVE",
"26 658 OFFCURVE",
"26 635 CURVE {name = hr03;}",
"70 635 OFFCURVE",
"86 621 OFFCURVE",
"86 584 CURVE SMOOTH",
"86 114 LINE SMOOTH",
"86 77 OFFCURVE",
"70 64 OFFCURVE",
"26 64 CURVE",
"26 40 OFFCURVE",
"34 16 OFFCURVE",
"48 0 CURVE {name = hr04;}",
"293 0 LINE",
"306 16 OFFCURVE",
"315 40 OFFCURVE",
"315 64 CURVE",
"271 64 OFFCURVE",
"255 77 OFFCURVE",
"255 114 CURVE SMOOTH",
"255 385 LINE",
"234 322 LINE",
"290 328 OFFCURVE",
"356 196 OFFCURVE",
"387 132 CURVE SMOOTH",
"416 73 OFFCURVE",
"434 -14 OFFCURVE",
"563 -14 CURVE SMOOTH",
"616 -14 OFFCURVE",
"643 3 OFFCURVE",
"664 31 CURVE",
"664 71 LINE",
"603 78 OFFCURVE",
"577 143 OFFCURVE",
"518 233 CURVE SMOOTH"
);
}
);
width = 665;
}
);
leftKerningGroup = H;
leftMetricsKey = H;
rightKerningGroup = K;
unicode = 004B;
},
{
color = 4;
glyphname = L;
lastChange = "2018-06-12 19:24:07 +0000";
layers = (
{
anchors = (
{
name = btm;
position = "{274, 0}";
},
{
name = car;
position = "{418, 712}";
},
{
name = top;
position = "{176, 963}";
}
);
layerId = "184835E3-72D9-430C-A639-2454AC4A0BE8";
paths = (
{
closed = 1;
nodes = (
"515 0 OFFCURVE",
"537 44 OFFCURVE",
"537 124 CURVE SMOOTH",
"537 171 OFFCURVE",
"528 232 OFFCURVE",
"503 251 CURVE",
"433 251 LINE",
"433 139 OFFCURVE",
"383 85 OFFCURVE",
"283 85 CURVE SMOOTH",
"252 85 LINE",
"252 584 LINE SMOOTH",
"252 621 OFFCURVE",
"274 635 OFFCURVE",
"318 635 CURVE",
"318 658 OFFCURVE",
"311 682 OFFCURVE",
"296 698 CURVE",
"49 698 LINE",
"34 682 OFFCURVE",
"26 658 OFFCURVE",
"26 635 CURVE",
"71 635 OFFCURVE",
"88 621 OFFCURVE",
"88 584 CURVE SMOOTH",
"88 114 LINE SMOOTH",
"88 77 OFFCURVE",
"71 64 OFFCURVE",
"26 64 CURVE {name = hr02;}",
"26 40 OFFCURVE",
"34 16 OFFCURVE",
"49 0 CURVE {name = hr03;}",
"446 0 LINE SMOOTH {name = hr01;}"
);
}
);
width = 537;
}
);
leftKerningGroup = H;
leftMetricsKey = H;
rightKerningGroup = L;
unicode = 004C;
},
{
glyphname = Lslash;
lastChange = "2018-06-13 17:27:56 +0000";
layers = (
{
components = (
{
name = L;
}
);
layerId = "184835E3-72D9-430C-A639-2454AC4A0BE8";
paths = (
{
closed = 1;
nodes = (
"37 200 LINE",
"377 486 LINE",
"325 540 LINE",
"-16 255 LINE"
);
}
);
width = 537;
}
);
leftKerningGroup = H;
rightKerningGroup = L;
unicode = 0141;
},
{
glyphname = M;
lastChange = "2018-06-12 17:44:11 +0000";
layers = (
{
anchors = (
{
name = btm;
position = "{456, 0}";
},
{
name = top;
position = "{456, 975}";
}
);
layerId = "184835E3-72D9-430C-A639-2454AC4A0BE8";
paths = (
{
closed = 1;
nodes = (
"503 370 LINE",
"465 246 LINE",
"425 370 LINE",
"319 631 LINE SMOOTH",
"295 688 OFFCURVE",
"256 698 OFFCURVE",
"199 698 CURVE SMOOTH",
"49 698 LINE",
"35 682 OFFCURVE",
"26 658 OFFCURVE",
"26 635 CURVE",
"71 635 OFFCURVE",
"97 621 OFFCURVE",
"97 584 CURVE SMOOTH",
"97 114 LINE SMOOTH",
"97 77 OFFCURVE",
"74 64 OFFCURVE",
"26 64 CURVE",
"26 40 OFFCURVE",
"34 16 OFFCURVE",
"48 0 CURVE",
"256 0 LINE",
"269 16 OFFCURVE",
"278 40 OFFCURVE",
"278 64 CURVE",
"227 64 OFFCURVE",
"202 77 OFFCURVE",
"202 114 CURVE SMOOTH",
"202 528 LINE",
"400 45 LINE",
"438 45 OFFCURVE",
"468 55 OFFCURVE",
"486 99 CURVE SMOOTH",
"656 528 LINE",
"656 114 LINE SMOOTH",
"656 77 OFFCURVE",
"639 64 OFFCURVE",
"594 64 CURVE",
"594 40 OFFCURVE",
"603 16 OFFCURVE",
"616 0 CURVE",
"864 0 LINE",
"878 16 OFFCURVE",
"887 40 OFFCURVE",
"887 64 CURVE",
"839 64 OFFCURVE",
"820 77 OFFCURVE",
"820 114 CURVE SMOOTH",
"820 584 LINE SMOOTH",
"820 621 OFFCURVE",
"842 635 OFFCURVE",
"887 635 CURVE",
"887 658 OFFCURVE",
"878 682 OFFCURVE",
"864 698 CURVE",
"629 698 LINE {name = hr00;}"
);
}
);
width = 913;
}
);
leftKerningGroup = M;
leftMetricsKey = H;
rightKerningGroup = M;
rightMetricsKey = H;
unicode = 004D;
},
{
color = 9;
glyphname = N;
lastChange = "2018-06-15 18:21:56 +0000";
layers = (
{
anchors = (
{
name = btm;
position = "{359, -9}";
},
{
name = top;
position = "{362, 963}";
}
);
layerId = "184835E3-72D9-430C-A639-2454AC4A0BE8";
paths = (
{
closed = 1;
nodes = (
"479 50 LINE",
"504 13 OFFCURVE",
"526 -6 OFFCURVE",
"595 -6 CURVE SMOOTH",
"635 -6 LINE",
"635 584 LINE SMOOTH",
"635 621 OFFCURVE",
"654 635 OFFCURVE",
"698 635 CURVE",
"698 658 OFFCURVE",
"689 682 OFFCURVE",
"675 698 CURVE",
"476 698 LINE",
"461 682 OFFCURVE",
"453 658 OFFCURVE",
"453 635 CURVE",
"498 635 OFFCURVE",
"516 621 OFFCURVE",
"516 584 CURVE SMOOTH",
"516 254 LINE",
"289 613 LINE SMOOTH",
"255 666 OFFCURVE",
"211 698 OFFCURVE",
"168 698 CURVE SMOOTH",
"48 698 LINE",
"34 682 OFFCURVE",
"26 658 OFFCURVE",
"26 635 CURVE",
"71 635 OFFCURVE",
"88 621 OFFCURVE",
"88 584 CURVE SMOOTH",
"88 114 LINE SMOOTH",
"88 77 OFFCURVE",
"71 63 OFFCURVE",
"26 63 CURVE",
"26 40 OFFCURVE",
"34 17 OFFCURVE",
"48 0 CURVE",
"239 0 LINE",
"253 17 OFFCURVE",
"262 40 OFFCURVE",
"262 63 CURVE",
"217 63 OFFCURVE",
"199 77 OFFCURVE",
"199 114 CURVE SMOOTH",
"199 475 LINE {name = hr00;}"
);
}
);
width = 713;
}
);
leftKerningGroup = N;
leftMetricsKey = H;
rightKerningGroup = N;
unicode = 004E;
},
{
glyphname = Eng;
lastChange = "2018-06-15 13:49:36 +0000";
layers = (
{
components = (
{
name = N;
}
);
layerId = "184835E3-72D9-430C-A639-2454AC4A0BE8";
paths = (
{
closed = 1;
nodes = (
"557 -221 OFFCURVE",
"631 -162 OFFCURVE",
"631 -36 CURVE SMOOTH",
"631 214 LINE",
"497 118 LINE",
"497 -29 LINE SMOOTH",
"497 -112 OFFCURVE",
"442 -138 OFFCURVE",
"390 -138 CURVE",
"386 -144 OFFCURVE",
"381 -158 OFFCURVE",
"381 -167 CURVE SMOOTH",
"381 -192 OFFCURVE",
"408 -221 OFFCURVE",
"470 -221 CURVE SMOOTH"
);
}
);
width = 707;
}
);
leftKerningGroup = N;
rightKerningGroup = N;
unicode = 014A;
},
{
color = 4;
glyphname = O;
lastChange = "2018-06-15 18:21:39 +0000";
layers = (
{
anchors = (
{
name = btm;
position = "{334, -9}";
},
{
name = top;
position = "{326, 963}";
}
);
layerId = "184835E3-72D9-430C-A639-2454AC4A0BE8";
paths = (
{
closed = 1;
nodes = (
"521 -13 OFFCURVE",
"644 120 OFFCURVE",
"644 348 CURVE SMOOTH",
"644 566 OFFCURVE",
"527 710 OFFCURVE",
"333 710 CURVE SMOOTH",
"147 710 OFFCURVE",
"25 577 OFFCURVE",
"25 348 CURVE SMOOTH",
"25 131 OFFCURVE",
"140 -13 OFFCURVE",
"334 -13 CURVE SMOOTH"
);
},
{
closed = 1;
nodes = (
"265 60 OFFCURVE",
"212 119 OFFCURVE",
"212 345 CURVE SMOOTH",
"212 587 OFFCURVE",
"274 636 OFFCURVE",
"336 636 CURVE SMOOTH",
"406 636 OFFCURVE",
"458 577 OFFCURVE",
"458 352 CURVE SMOOTH",
"458 109 OFFCURVE",
"396 60 OFFCURVE",
"334 60 CURVE SMOOTH {name = hr00;}"
);
}
);
width = 669;
}
);
leftKerningGroup = O;
rightKerningGroup = O;
unicode = 004F;
},
{
glyphname = Ohorn;
lastChange = "2018-06-13 17:28:13 +0000";
layers = (
{
background = {
paths = (
{
closed = 1;
nodes = (
"516 635 LINE",
"591 635 LINE SMOOTH {name = hr01;}",
"631 635 OFFCURVE",
"661 686 OFFCURVE",
"661 732 CURVE SMOOTH",
"661 766 OFFCURVE",
"653 788 OFFCURVE",
"625 810 CURVE",
"561 810 LINE",
"575 721 OFFCURVE",
"543 698 OFFCURVE",
"480 698 CURVE"
);
}
);
};
components = (
{
name = O;
}
);
layerId = "184835E3-72D9-430C-A639-2454AC4A0BE8";
paths = (
{
closed = 1;
nodes = (
"462 624 LINE",
"537 624 LINE SMOOTH {name = hr01;}",
"619 624 OFFCURVE",
"667 675 OFFCURVE",
"667 721 CURVE SMOOTH",
"667 755 OFFCURVE",
"659 788 OFFCURVE",
"631 810 CURVE",
"560 810 LINE",
"574 721 OFFCURVE",
"544 671 OFFCURVE",
"455 671 CURVE"
);
}
);
width = 675;
}
);
leftKerningGroup = O;
rightKerningGroup = Ohorn;
unicode = 01A0;
},
{
color = 4;
glyphname = Oogonek;
lastChange = "2018-06-13 17:26:50 +0000";
layers = (
{
components = (
{
name = O;
}
);
layerId = "184835E3-72D9-430C-A639-2454AC4A0BE8";
paths = (
{
closed = 1;
nodes = (
"450 49 LINE",
"401 49 OFFCURVE",
"257 5 OFFCURVE",
"257 -115 CURVE SMOOTH",
"257 -197 OFFCURVE",
"325 -228 OFFCURVE",
"387 -228 CURVE SMOOTH",
"434 -228 OFFCURVE",
"475 -213 OFFCURVE",
"492 -196 CURVE SMOOTH",
"506 -182 OFFCURVE",
"510 -163 OFFCURVE",
"510 -144 CURVE SMOOTH",
"510 -132 OFFCURVE",
"508 -115 OFFCURVE",
"502 -106 CURVE",
"490 -116 OFFCURVE",
"462 -124 OFFCURVE",
"434 -124 CURVE SMOOTH",
"403 -124 OFFCURVE",
"371 -114 OFFCURVE",
"371 -85 CURVE SMOOTH",
"371 -41 OFFCURVE",
"401 -2 OFFCURVE",
"462 13 CURVE"
);
}
);
width = 675;
}
);
leftKerningGroup = O;
rightKerningGroup = O;
unicode = 01EA;
},
{
glyphname = Oslash;
lastChange = "2018-06-15 18:23:37 +0000";
layers = (
{
anchors = (
{
name = _vslash;
position = "{27, 224}";
},
{
name = top;
position = "{326, 963}";
}
);
components = (
{
name = O;
}
);
layerId = "184835E3-72D9-430C-A639-2454AC4A0BE8";
paths = (
{
closed = 1;
nodes = (
"94 -13 LINE",
"159 72 LINE",
"196 103 LINE",
"473 501 LINE",
"544 574 LINE",
"650 712 LINE",
"575 712 LINE",
"501 616 LINE",
"450 564 LINE",
"162 151 LINE",
"118 115 LINE",
"20 -13 LINE"
);
}
);
width = 669;
}
);
leftKerningGroup = O;
widthMetricsKey = O;
rightKerningGroup = O;
unicode = 00D8;
},
{
color = 4;
glyphname = OE;
lastChange = "2018-06-15 18:23:51 +0000";
layers = (
{
anchors = (
{
name = btm;
position = "{463, -12}";
},
{
name = top;
position = "{438, 963}";
}
);
layerId = "184835E3-72D9-430C-A639-2454AC4A0BE8";
paths = (
{
closed = 1;
nodes = (
"802 111 OFFCURVE",
"763 71 OFFCURVE",
"694 71 CURVE SMOOTH",
"589 71 LINE",
"589 301 LINE",
"672 301 LINE SMOOTH",
"709 301 OFFCURVE",
"737 284 OFFCURVE",
"737 231 CURVE",
"767 231 OFFCURVE",
"794 239 OFFCURVE",
"815 252 CURVE",
"815 428 LINE",
"794 441 OFFCURVE",
"766 449 OFFCURVE",
"737 449 CURVE",
"737 395 OFFCURVE",
"709 374 OFFCURVE",
"672 374 CURVE SMOOTH",
"589 374 LINE",
"589 596 LINE",
"685 596 LINE SMOOTH",
"738 596 OFFCURVE",
"767 551 OFFCURVE",
"780 508 CURVE",
"805 514 OFFCURVE",
"843 531 OFFCURVE",
"860 546 CURVE",
"860 579 OFFCURVE",
"846 665 OFFCURVE",
"830 698 CURVE",
"805 698 OFFCURVE",
"778 692 OFFCURVE",
"753 681 CURVE",
"418 681 LINE",
"390 689 OFFCURVE",
"364 690 OFFCURVE",
"330 690 CURVE SMOOTH",
"144 690 OFFCURVE",
"25 560 OFFCURVE",
"25 335 CURVE SMOOTH",
"25 115 OFFCURVE",
"139 -26 OFFCURVE",
"325 -26 CURVE SMOOTH",
"357 -26 OFFCURVE",
"385 -25 OFFCURVE",
"410 -17 CURVE",
"794 -17 LINE",
"819 -28 OFFCURVE",
"846 -33 OFFCURVE",
"870 -33 CURVE",
"889 3 OFFCURVE",
"902 128 OFFCURVE",
"902 167 CURVE",
"819 167 LINE"
);
},
{
closed = 1;
nodes = (
"213 573 OFFCURVE",
"271 620 OFFCURVE",
"343 620 CURVE SMOOTH",
"378 620 OFFCURVE",
"408 608 OFFCURVE",
"425 587 CURVE",
"425 69 LINE",
"403 52 OFFCURVE",
"375 44 OFFCURVE",
"345 44 CURVE SMOOTH {name = hr01;}",
"263 44 OFFCURVE",
"213 102 OFFCURVE",
"213 328 CURVE SMOOTH"
);
}
);
width = 927;
}
);
leftKerningGroup = O;
leftMetricsKey = O;
rightKerningGroup = E;
rightMetricsKey = E;
unicode = 0152;
},
{
color = 4;
glyphname = P;
lastChange = "2018-06-15 03:39:19 +0000";
layers = (
{
anchors = (
{
name = btm;
position = "{305, 0}";
},
{
name = top;
position = "{319, 963}";
}
);
layerId = "184835E3-72D9-430C-A639-2454AC4A0BE8";
paths = (
{
closed = 1;
nodes = (
"250 705 OFFCURVE",
"179 698 OFFCURVE",
"48 698 CURVE",
"35 681 OFFCURVE",
"26 658 OFFCURVE",
"26 635 CURVE",
"71 635 OFFCURVE",
"89 621 OFFCURVE",
"89 584 CURVE SMOOTH",
"89 114 LINE SMOOTH",
"89 77 OFFCURVE",
"71 64 OFFCURVE",
"26 64 CURVE",
"26 40 OFFCURVE",
"35 16 OFFCURVE",
"49 0 CURVE",
"340 0 LINE",
"354 16 OFFCURVE",
"362 40 OFFCURVE",
"362 64 CURVE",
"273 64 OFFCURVE",
"253 81 OFFCURVE",
"253 159 CURVE SMOOTH",
"253 247 LINE",
"295 247 LINE SMOOTH",
"496 247 OFFCURVE",
"592 348 OFFCURVE",
"592 479 CURVE SMOOTH",
"592 625 OFFCURVE",
"518 705 OFFCURVE",
"306 705 CURVE SMOOTH {name = hr00;}"
);
},
{
closed = 1;
nodes = (
"418 414 OFFCURVE",
"403 327 OFFCURVE",
"279 327 CURVE SMOOTH",
"270 327 OFFCURVE",
"262 327 OFFCURVE",
"253 329 CURVE",
"253 622 LINE",
"264 625 OFFCURVE",
"276 626 OFFCURVE",
"290 626 CURVE SMOOTH",
"389 626 OFFCURVE",
"418 558 OFFCURVE",
"418 482 CURVE SMOOTH"
);
}
);
width = 602;
}
);
leftKerningGroup = H;
leftMetricsKey = H;
rightKerningGroup = P;
unicode = 0050;
},
{
color = 5;
glyphname = Thorn;
lastChange = "2018-06-13 17:03:01 +0000";
layers = (
{
anchors = (
{
name = btm;
position = "{318, 0}";
},
{
name = top;
position = "{170, 963}";
}
);
layerId = "184835E3-72D9-430C-A639-2454AC4A0BE8";
paths = (
{
closed = 1;
nodes = (
"267 141 OFFCURVE",
"312 138 OFFCURVE",
"338 138 CURVE SMOOTH",
"488 138 OFFCURVE",
"599 218 OFFCURVE",
"599 356 CURVE SMOOTH",
"599 484 OFFCURVE",
"503 572 OFFCURVE",
"314 572 CURVE SMOOTH",
"287 572 OFFCURVE",
"258 571 OFFCURVE",
"226 567 CURVE",
"241 485 LINE",
"256 487 OFFCURVE",
"269 488 OFFCURVE",
"282 488 CURVE SMOOTH",
"371 488 OFFCURVE",
"425 446 OFFCURVE",
"425 356 CURVE SMOOTH",
"425 269 OFFCURVE",
"374 218 OFFCURVE",
"295 218 CURVE SMOOTH",
"280 218 OFFCURVE",
"258 219 OFFCURVE",
"241 224 CURVE",
"241 148 LINE {name = hr00;}"
);
},
{
closed = 1;
nodes = (
"296 16 OFFCURVE",
"305 40 OFFCURVE",
"305 64 CURVE",
"261 64 OFFCURVE",
"245 77 OFFCURVE",
"245 114 CURVE SMOOTH",
"245 584 LINE SMOOTH",
"245 621 OFFCURVE",
"261 635 OFFCURVE",
"305 635 CURVE",
"305 658 OFFCURVE",
"296 682 OFFCURVE",
"283 698 CURVE",
"48 698 LINE",
"34 682 OFFCURVE",
"26 658 OFFCURVE",
"26 635 CURVE {name = hr03;}",
"70 635 OFFCURVE",
"86 621 OFFCURVE",
"86 584 CURVE SMOOTH",
"86 114 LINE SMOOTH",
"86 77 OFFCURVE",
"70 64 OFFCURVE",
"26 64 CURVE",
"26 40 OFFCURVE",
"34 16 OFFCURVE",
"48 0 CURVE {name = hr04;}",
"283 0 LINE"
);
}
);
width = 609;
}
);
leftKerningGroup = H;
leftMetricsKey = H;
rightKerningGroup = Thorn;
rightMetricsKey = P;
unicode = 00DE;
},
{
color = 4;
glyphname = Q;
lastChange = "2018-06-15 18:23:44 +0000";
layers = (
{
anchors = (
{
name = btm;
position = "{391, -119}";
},
{
name = top;
position = "{321, 963}";
}
);
components = (
{
name = O;
}
);
layerId = "184835E3-72D9-430C-A639-2454AC4A0BE8";
paths = (
{
closed = 1;
nodes = (
"407 -82 OFFCURVE",
"437 -104 OFFCURVE",
"469 -128 CURVE SMOOTH",
"504 -154 OFFCURVE",
"542 -182 OFFCURVE",
"605 -182 CURVE SMOOTH",
"695 -182 OFFCURVE",
"732 -133 OFFCURVE",
"732 -100 CURVE SMOOTH",
"732 -90 OFFCURVE",
"724 -70 OFFCURVE",
"718 -62 CURVE",
"697 -70 OFFCURVE",
"674 -73 OFFCURVE",
"653 -73 CURVE SMOOTH",
"629 -73 OFFCURVE",
"607 -69 OFFCURVE",
"589 -59 CURVE SMOOTH",
"554 -39 OFFCURVE",
"469 8 OFFCURVE",
"405 8 CURVE SMOOTH",
"310 8 OFFCURVE",
"254 -26 OFFCURVE",
"226 -76 CURVE",
"255 -110 LINE",
"293 -86 OFFCURVE",
"313 -82 OFFCURVE",
"361 -82 CURVE SMOOTH {name = hr00;}"
);
}
);
width = 669;
}
);
leftKerningGroup = O;
leftMetricsKey = O;
widthMetricsKey = O;
rightKerningGroup = O;
unicode = 0051;
},
{
color = 4;
glyphname = R;
lastChange = "2018-06-15 04:11:52 +0000";
layers = (
{
anchors = (
{
name = btm;
position = "{336, 0}";
},
{
name = top;
position = "{303, 963}";
}
);
layerId = "184835E3-72D9-430C-A639-2454AC4A0BE8";
paths = (
{
closed = 1;
nodes = (
"551 255 OFFCURVE",
"484 320 OFFCURVE",
"405 337 CURVE",
"389 327 LINE",
"526 341 OFFCURVE",
"589 405 OFFCURVE",
"589 513 CURVE SMOOTH {name = hr00;}",
"589 630 OFFCURVE",
"511 706 OFFCURVE",
"303 706 CURVE SMOOTH",
"216 706 OFFCURVE",
"157 698 OFFCURVE",
"49 698 CURVE",
"35 682 OFFCURVE",
"26 658 OFFCURVE",
"26 635 CURVE",
"71 635 OFFCURVE",
"88 621 OFFCURVE",
"88 584 CURVE SMOOTH",
"88 114 LINE SMOOTH",
"88 77 OFFCURVE",
"71 63 OFFCURVE",
"26 63 CURVE",
"26 40 OFFCURVE",
"35 17 OFFCURVE",
"49 0 CURVE",
"297 0 LINE",
"311 17 OFFCURVE",
"319 40 OFFCURVE",
"319 63 CURVE",
"280 63 OFFCURVE",
"250 77 OFFCURVE",
"250 114 CURVE SMOOTH",
"250 297 LINE",
"287 297 LINE",
"339 266 OFFCURVE",
"374 209 OFFCURVE",
"389 151 CURVE SMOOTH",
"412 64 OFFCURVE",
"440 -8 OFFCURVE",
"568 -8 CURVE SMOOTH",
"621 -8 OFFCURVE",
"645 2 OFFCURVE",
"663 27 CURVE",
"663 75 LINE",
"610 87 OFFCURVE",
"597 105 OFFCURVE",
"582 154 CURVE SMOOTH"
);
},
{
closed = 1;
nodes = (
"261 629 OFFCURVE",
"285 630 OFFCURVE",
"298 630 CURVE SMOOTH",
"385 630 OFFCURVE",
"421 586 OFFCURVE",
"421 503 CURVE SMOOTH",
"421 422 OFFCURVE",
"374 366 OFFCURVE",
"293 366 CURVE SMOOTH",
"283 366 OFFCURVE",
"259 367 OFFCURVE",
"250 368 CURVE",
"250 626 LINE"
);
}
);
width = 649;
}
);
leftKerningGroup = H;
leftMetricsKey = H;
rightKerningGroup = R;
unicode = 0052;
},
{
color = 4;
glyphname = S;
lastChange = "2018-06-15 18:21:23 +0000";
layers = (
{
anchors = (
{
name = btm;
position = "{293, -5}";
},
{
name = top;
position = "{304, 963}";
}
);
layerId = "184835E3-72D9-430C-A639-2454AC4A0BE8";
paths = (
{
closed = 1;
nodes = (
"36 166 OFFCURVE",
"57 37 OFFCURVE",
"83 -15 CURVE",
"160 19 LINE",
"221 -7 OFFCURVE",
"275 -15 OFFCURVE",
"321 -15 CURVE SMOOTH",
"468 -15 OFFCURVE",
"555 76 OFFCURVE",
"555 186 CURVE SMOOTH {name = hr02;}",
"555 319 OFFCURVE",
"436 377 OFFCURVE",
"345 421 CURVE SMOOTH",
"282 452 OFFCURVE",
"223 482 OFFCURVE",
"223 546 CURVE SMOOTH",
"223 593 OFFCURVE",
"248 628 OFFCURVE",
"303 628 CURVE SMOOTH",
"362 628 OFFCURVE",
"416 595 OFFCURVE",
"444 482 CURVE",
"527 482 LINE",
"527 486 OFFCURVE",
"527 492 OFFCURVE",
"527 497 CURVE SMOOTH",
"527 562 OFFCURVE",
"526 661 OFFCURVE",
"499 708 CURVE",
"414 682 LINE",
"381 700 OFFCURVE",
"320 708 OFFCURVE",
"281 708 CURVE SMOOTH",
"155 708 OFFCURVE",
"57 637 OFFCURVE",
"57 516 CURVE SMOOTH",
"57 404 OFFCURVE",
"130 335 OFFCURVE",
"247 278 CURVE SMOOTH",
"315 245 OFFCURVE",
"392 207 OFFCURVE",
"392 142 CURVE SMOOTH",
"392 110 OFFCURVE",
"371 65 OFFCURVE",
"310 65 CURVE SMOOTH",
"226 65 OFFCURVE",
"157 133 OFFCURVE",
"136 246 CURVE",
"36 246 LINE {name = hr01;}"
);
}
);
width = 589;
}
);
leftKerningGroup = S;
rightKerningGroup = S;
unicode = 0053;
},
{
glyphname = Germandbls;
lastChange = "2018-06-14 16:09:57 +0000";
layers = (
{
layerId = "184835E3-72D9-430C-A639-2454AC4A0BE8";
paths = (
{
closed = 1;
nodes = (
"578 698 LINE",
"549 698 OFFCURVE",
"520 698 OFFCURVE",
"384 698 CURVE SMOOTH",
"213 698 OFFCURVE",
"69 603 OFFCURVE",
"68 373 CURVE SMOOTH",
"67 100 LINE SMOOTH",
"67 64 OFFCURVE",
"50 50 OFFCURVE",
"5 50 CURVE",
"5 26 OFFCURVE",
"13 3 OFFCURVE",
"28 -13 CURVE",
"235 -13 LINE",
"236 394 LINE SMOOTH",
"236 533 OFFCURVE",
"312 602 OFFCURVE",
"398 602 CURVE SMOOTH",
"483 602 OFFCURVE",
"503 601 OFFCURVE",
"526 601 CURVE"
);
},
{
closed = 1;
nodes = (
"748 361 OFFCURVE",
"537 412 OFFCURVE",
"446 369 CURVE",
"535 356 LINE",
"707 698 LINE",
"536 698 LINE",
"351 336 LINE",
"414 336 LINE SMOOTH",
"486 336 OFFCURVE",
"575 259 OFFCURVE",
"575 190 CURVE SMOOTH",
"575 121 OFFCURVE",
"549 67 OFFCURVE",
"486 67 CURVE SMOOTH",
"454 67 OFFCURVE",
"421 79 OFFCURVE",
"408 93 CURVE",
"425 110 OFFCURVE",
"430 138 OFFCURVE",
"430 156 CURVE SMOOTH",
"430 192 OFFCURVE",
"407 222 OFFCURVE",
"370 222 CURVE SMOOTH",
"334 222 OFFCURVE",
"305 193 OFFCURVE",
"305 138 CURVE SMOOTH",
"305 44 OFFCURVE",
"388 -13 OFFCURVE",
"501 -13 CURVE SMOOTH",
"667 -13 OFFCURVE",
"748 73 OFFCURVE",
"748 196 CURVE SMOOTH"
);
}
);
width = 782;
}
);
leftKerningGroup = Germandbls;
rightKerningGroup = Germandbls;
unicode = 1E9E;
},
{
glyphname = Schwa;
lastChange = "2018-06-15 18:23:57 +0000";
layers = (
{
layerId = "184835E3-72D9-430C-A639-2454AC4A0BE8";
paths = (
{
closed = 1;
nodes = (
"127 534 OFFCURVE",
"181 561 OFFCURVE",
"252 561 CURVE SMOOTH",
"353 561 OFFCURVE",
"407 503 OFFCURVE",
"407 341 CURVE SMOOTH",
"407 289 LINE SMOOTH",
"407 118 OFFCURVE",
"331 89 OFFCURVE",
"277 89 CURVE SMOOTH",
"235 89 OFFCURVE",
"173 118 OFFCURVE",
"173 228 CURVE SMOOTH",
"173 262 OFFCURVE",
"172 281 OFFCURVE",
"198 281 CURVE SMOOTH",
"455 281 LINE",
"460 364 LINE",
"101 364 LINE SMOOTH",
"38 364 OFFCURVE",
"25 306 OFFCURVE",
"25 240 CURVE SMOOTH",
"25 75 OFFCURVE",
"121 -14 OFFCURVE",
"270 -14 CURVE SMOOTH",
"438 -14 OFFCURVE",
"566 119 OFFCURVE",
"566 346 CURVE SMOOTH",
"566 566 OFFCURVE",
"452 695 OFFCURVE",
"278 695 CURVE SMOOTH",
"145 695 OFFCURVE",
"58 623 OFFCURVE",
"58 581 CURVE SMOOTH",
"58 563 OFFCURVE",
"76 518 OFFCURVE",
"89 503 CURVE {name = hr00;}"
);
}
);
width = 591;
}
);
leftKerningGroup = O;
leftMetricsKey = O;
rightKerningGroup = O;
rightMetricsKey = O;
unicode = 018F;
},
{
color = 4;
glyphname = T;
lastChange = "2018-06-15 18:26:57 +0000";
layers = (
{
anchors = (
{
name = btm;
position = "{315, 0}";
},
{
name = top;
position = "{313, 963}";
}
);
background = {
paths = (
{
closed = 1;
nodes = (
"571 710 OFFCURVE",
"539 706 OFFCURVE",
"514 698 CURVE",
"116 698 LINE",
"92 706 OFFCURVE",
"58 710 OFFCURVE",
"34 710 CURVE",
"10 657 OFFCURVE",
"2 514 OFFCURVE",
"2 458 CURVE",
"19 451 OFFCURVE",
"61 448 OFFCURVE",
"86 447 CURVE",
"99 593 OFFCURVE",
"144 619 OFFCURVE",
"231 619 CURVE SMOOTH",
"233 619 LINE",
"233 118 LINE SMOOTH",
"233 81 OFFCURVE",
"197 64 OFFCURVE",
"125 64 CURVE",
"125 40 OFFCURVE",
"133 16 OFFCURVE",
"147 0 CURVE",
"483 0 LINE",
"498 16 OFFCURVE",
"506 40 OFFCURVE",
"506 64 CURVE",
"434 64 OFFCURVE",
"397 81 OFFCURVE",
"397 118 CURVE SMOOTH",
"397 619 LINE",
"401 619 LINE SMOOTH {name = hr01;}",
"496 619 OFFCURVE",
"531 593 OFFCURVE",
"544 447 CURVE",
"570 447 OFFCURVE",
"610 451 OFFCURVE",
"628 458 CURVE",
"628 514 OFFCURVE",
"620 657 OFFCURVE",
"596 710 CURVE"
);
}
);
};
layerId = "184835E3-72D9-430C-A639-2454AC4A0BE8";
paths = (
{
closed = 1;
nodes = (
"566 710 OFFCURVE",
"534 706 OFFCURVE",
"509 698 CURVE",
"122 698 LINE",
"98 706 OFFCURVE",
"64 710 OFFCURVE",
"40 710 CURVE",
"16 657 OFFCURVE",
"8 514 OFFCURVE",
"8 458 CURVE",
"25 451 OFFCURVE",
"67 448 OFFCURVE",
"92 447 CURVE",
"105 593 OFFCURVE",
"158 619 OFFCURVE",
"211 619 CURVE SMOOTH",
"232 619 LINE",
"232 118 LINE SMOOTH",
"232 81 OFFCURVE",
"197 64 OFFCURVE",
"125 64 CURVE",
"125 40 OFFCURVE",
"133 16 OFFCURVE",
"147 0 CURVE",
"483 0 LINE",
"498 16 OFFCURVE",
"506 40 OFFCURVE",
"506 64 CURVE",
"434 64 OFFCURVE",
"398 81 OFFCURVE",
"398 118 CURVE SMOOTH",
"398 619 LINE",
"419 619 LINE SMOOTH {name = hr01;}",
"487 619 OFFCURVE",
"526 593 OFFCURVE",
"539 447 CURVE",
"565 447 OFFCURVE",
"605 451 OFFCURVE",
"623 458 CURVE",
"623 514 OFFCURVE",
"615 657 OFFCURVE",
"591 710 CURVE"
);
}
);
width = 631;
}
);
leftKerningGroup = T;
rightKerningGroup = T;
unicode = 0054;
},
{
glyphname = Tbar;
lastChange = "2018-06-15 13:50:16 +0000";
layers = (
{
anchors = (
{
name = top;
position = "{323, 1136.574}";
}
);
components = (
{
name = T;
}
);
layerId = "184835E3-72D9-430C-A639-2454AC4A0BE8";
paths = (
{
closed = 1;
nodes = (
"123 383 OFFCURVE",
"121 365 OFFCURVE",
"121 346 CURVE SMOOTH",
"121 330 OFFCURVE",
"123 313 OFFCURVE",
"127 302 CURVE",
"522 302 LINE",
"525 311 OFFCURVE",
"527 329 OFFCURVE",
"527 346 CURVE SMOOTH",
"527 363 OFFCURVE",
"525 381 OFFCURVE",
"521 392 CURVE",
"128 392 LINE {name = hr00;}"
);
}
);
width = 646;
}
);
leftKerningGroup = T;
rightKerningGroup = T;
unicode = 0166;
},
{
glyphname = U;
lastChange = "2018-06-15 18:28:08 +0000";
layers = (
{
anchors = (
{
name = btm;
position = "{332, -4}";
},
{
name = top;
position = "{329, 963}";
}
);
layerId = "184835E3-72D9-430C-A639-2454AC4A0BE8";
paths = (
{
closed = 1;
nodes = (
"597 621 OFFCURVE",
"617 635 OFFCURVE",
"668 635 CURVE",
"668 659 OFFCURVE",
"660 682 OFFCURVE",
"646 698 CURVE",
"426 698 LINE",
"411 682 OFFCURVE",
"404 659 OFFCURVE",
"404 635 CURVE",
"454 635 OFFCURVE",
"475 621 OFFCURVE",
"475 585 CURVE SMOOTH",
"475 226 LINE SMOOTH",
"475 148 OFFCURVE",
"445 83 OFFCURVE",
"355 83 CURVE SMOOTH",
"267 83 OFFCURVE",
"231 152 OFFCURVE",
"231 242 CURVE SMOOTH",
"231 585 LINE SMOOTH",
"231 621 OFFCURVE",
"248 635 OFFCURVE",
"293 635 CURVE",
"293 659 OFFCURVE",
"285 682 OFFCURVE",
"270 698 CURVE",
"20 698 LINE",
"5 682 OFFCURVE",
"-3 659 OFFCURVE",
"-3 635 CURVE",
"42 635 OFFCURVE",
"59 621 OFFCURVE",
"59 585 CURVE SMOOTH",
"59 263 LINE SMOOTH",
"59 82 OFFCURVE",
"166 -13 OFFCURVE",
"337 -13 CURVE SMOOTH",
"511 -13 OFFCURVE",
"597 89 OFFCURVE",
"597 273 CURVE SMOOTH",
"597 585 LINE SMOOTH {name = hr00;}"
);
}
);
width = 665;
}
);
leftKerningGroup = U;
rightKerningGroup = U;
unicode = 0055;
},
{
glyphname = Uhorn;
lastChange = "2018-06-14 16:10:37 +0000";
layers = (
{
anchors = (
{
name = btm;
position = "{335, -4}";
},
{
name = top;
position = "{338, 963}";
}
);
layerId = "184835E3-72D9-430C-A639-2454AC4A0BE8";
paths = (
{
closed = 1;
nodes = (
"621 810 LINE",
"623 796 OFFCURVE",
"624 784 OFFCURVE",
"624 773 CURVE SMOOTH",
"624 714 OFFCURVE",
"593 698 OFFCURVE",
"540 698 CURVE SMOOTH",
"426 698 LINE",
"411 682 OFFCURVE",
"404 659 OFFCURVE",
"404 635 CURVE",
"454 635 OFFCURVE",
"475 621 OFFCURVE",
"475 585 CURVE SMOOTH",
"475 226 LINE SMOOTH",
"475 148 OFFCURVE",
"445 83 OFFCURVE",
"355 83 CURVE SMOOTH",
"267 83 OFFCURVE",
"231 152 OFFCURVE",
"231 242 CURVE SMOOTH",
"231 585 LINE SMOOTH",
"231 621 OFFCURVE",
"248 635 OFFCURVE",
"293 635 CURVE",
"293 659 OFFCURVE",
"285 682 OFFCURVE",
"270 698 CURVE",
"20 698 LINE",
"5 682 OFFCURVE",
"-3 659 OFFCURVE",
"-3 635 CURVE",
"42 635 OFFCURVE",
"59 621 OFFCURVE",
"59 585 CURVE SMOOTH",
"59 263 LINE SMOOTH",
"59 82 OFFCURVE",
"166 -13 OFFCURVE",
"337 -13 CURVE SMOOTH",
"511 -13 OFFCURVE",
"597 89 OFFCURVE",
"597 273 CURVE SMOOTH",
"597 585 LINE SMOOTH {name = hr00;}",
"597 621 OFFCURVE",
"605 635 OFFCURVE",
"641 635 CURVE SMOOTH {name = hr01;}",
"685 635 OFFCURVE",
"721 686 OFFCURVE",
"721 732 CURVE SMOOTH",
"721 766 OFFCURVE",
"713 788 OFFCURVE",
"685 810 CURVE"
);
}
);
width = 691;
}
);
leftKerningGroup = U;
leftMetricsKey = U;
rightKerningGroup = Uhorn;
unicode = 01AF;
},
{
glyphname = Uogonek;
lastChange = "2018-06-15 13:51:07 +0000";
layers = (
{
components = (
{
name = U;
}
);
layerId = "184835E3-72D9-430C-A639-2454AC4A0BE8";
paths = (
{
closed = 1;
nodes = (
"453 48 LINE",
"379 48 OFFCURVE",
"249 -5 OFFCURVE",
"249 -119 CURVE SMOOTH",
"249 -197 OFFCURVE",
"314 -227 OFFCURVE",
"373 -227 CURVE SMOOTH",
"418 -227 OFFCURVE",
"457 -212 OFFCURVE",
"473 -196 CURVE SMOOTH",
"486 -183 OFFCURVE",
"490 -165 OFFCURVE",
"490 -147 CURVE SMOOTH",
"490 -135 OFFCURVE",
"488 -119 OFFCURVE",
"482 -111 CURVE",
"471 -120 OFFCURVE",
"444 -128 OFFCURVE",
"418 -128 CURVE SMOOTH",
"388 -128 OFFCURVE",
"358 -118 OFFCURVE",
"358 -91 CURVE SMOOTH",
"358 -49 OFFCURVE",
"391 -5 OFFCURVE",
"464 14 CURVE"
);
}
);
width = 695;
}
);
leftKerningGroup = U;
rightKerningGroup = U;
unicode = 0172;
},
{
glyphname = V;
lastChange = "2018-06-15 03:13:01 +0000";
layers = (
{
anchors = (
{
name = btm;
position = "{317, -6}";
},
{
name = top;
position = "{317, 969}";
}
);
layerId = "184835E3-72D9-430C-A639-2454AC4A0BE8";
paths = (
{
closed = 1;
nodes = (
"409 678 OFFCURVE",
"406 659 OFFCURVE",
"406 635 CURVE",
"445 635 OFFCURVE",
"465 617 OFFCURVE",
"465 590 CURVE SMOOTH",
"465 584 OFFCURVE",
"463 577 OFFCURVE",
"461 569 CURVE SMOOTH",
"381 293 LINE",
"351 185 LINE",
"321 295 LINE",
"237 566 LINE SMOOTH",
"234 575 OFFCURVE",
"231 583 OFFCURVE",
"231 590 CURVE SMOOTH",
"231 618 OFFCURVE",
"252 635 OFFCURVE",
"290 635 CURVE",
"290 659 OFFCURVE",
"281 682 OFFCURVE",
"272 698 CURVE",
"-24 698 LINE",
"-36 678 OFFCURVE",
"-40 659 OFFCURVE",
"-40 635 CURVE",
"6 635 OFFCURVE",
"29 623 OFFCURVE",
"43 588 CURVE SMOOTH",
"276 -7 LINE",
"307 -7 LINE SMOOTH",
"367 -7 OFFCURVE",
"393 21 OFFCURVE",
"416 89 CURVE SMOOTH",
"586 588 LINE SMOOTH",
"598 624 OFFCURVE",
"625 635 OFFCURVE",
"670 635 CURVE",
"670 659 OFFCURVE",
"666 679 OFFCURVE",
"654 698 CURVE",
"422 698 LINE {name = hr00;}"
);
}
);
width = 630;
}
);
leftKerningGroup = V;
rightKerningGroup = V;
unicode = 0056;
},
{
color = 9;
glyphname = W;
lastChange = "2018-06-15 13:51:20 +0000";
layers = (
{
anchors = (
{
name = btm;
position = "{487, -2}";
},
{
name = top;
position = "{496, 963}";
}
);
layerId = "184835E3-72D9-430C-A639-2454AC4A0BE8";
paths = (
{
closed = 1;
nodes = (
"492 649 LINE SMOOTH",
"450 649 OFFCURVE",
"427 601 OFFCURVE",
"418 551 CURVE",
"320 175 LINE",
"221 575 LINE SMOOTH",
"220 580 OFFCURVE",
"218 586 OFFCURVE",
"218 591 CURVE SMOOTH",
"218 614 OFFCURVE",
"233 635 OFFCURVE",
"268 635 CURVE",
"268 658 OFFCURVE",
"259 682 OFFCURVE",
"251 698 CURVE",
"-5 698 LINE",
"-17 678 OFFCURVE",
"-20 658 OFFCURVE",
"-20 635 CURVE",
"25 635 OFFCURVE",
"39 623 OFFCURVE",
"49 588 CURVE SMOOTH",
"226 -7 LINE",
"280 -7 LINE SMOOTH",
"347 -7 OFFCURVE",
"382 36 OFFCURVE",
"405 130 CURVE SMOOTH",
"507 547 LINE {name = hr00;}",
"467 547 LINE {name = hr00;}",
"623 -7 LINE",
"676 -7 LINE SMOOTH",
"742 -7 OFFCURVE",
"779 36 OFFCURVE",
"805 130 CURVE SMOOTH",
"931 588 LINE SMOOTH",
"941 623 OFFCURVE",
"967 635 OFFCURVE",
"1012 635 CURVE",
"1012 658 OFFCURVE",
"1008 679 OFFCURVE",
"997 698 CURVE",
"762 698 LINE",
"751 678 OFFCURVE",
"748 658 OFFCURVE",
"748 635 CURVE",
"791 635 OFFCURVE",
"818 612 OFFCURVE",
"818 578 CURVE SMOOTH",
"818 573 OFFCURVE",
"817 565 OFFCURVE",
"815 558 CURVE SMOOTH",
"716 175 LINE",
"591 649 LINE"
);
}
);
width = 992;
}
);
leftKerningGroup = W;
rightKerningGroup = W;
unicode = 0057;
},
{
color = 4;
glyphname = X;
lastChange = "2018-06-15 03:13:31 +0000";
layers = (
{
anchors = (
{
name = btm;
position = "{357, 0}";
},
{
name = top;
position = "{361, 963}";
}
);
layerId = "184835E3-72D9-430C-A639-2454AC4A0BE8";
paths = (
{
closed = 1;
nodes = (
"408 411 LINE",
"402 326 LINE",
"581 585 LINE SMOOTH",
"605 620 OFFCURVE",
"624 635 OFFCURVE",
"679 635 CURVE",
"679 659 OFFCURVE",
"670 682 OFFCURVE",
"655 698 CURVE",
"427 698 LINE",
"412 682 OFFCURVE",
"404 659 OFFCURVE",
"404 635 CURVE",
"435 635 OFFCURVE",
"455 619 OFFCURVE",
"455 598 CURVE SMOOTH",
"455 590 OFFCURVE",
"451 577 OFFCURVE",
"445 568 CURVE",
"354 403 LINE",
"409 405 LINE",
"306 572 LINE SMOOTH",
"298 585 OFFCURVE",
"290 598 OFFCURVE",
"290 609 CURVE SMOOTH",
"290 624 OFFCURVE",
"304 635 OFFCURVE",
"346 635 CURVE",
"346 659 OFFCURVE",
"337 682 OFFCURVE",
"322 698 CURVE",
"27 698 LINE",
"13 682 OFFCURVE",
"5 659 OFFCURVE",
"5 635 CURVE",
"44 635 OFFCURVE",
"77 617 OFFCURVE",
"107 574 CURVE SMOOTH",
"297 300 LINE",
"298 385 LINE",
"99 113 LINE SMOOTH",
"73 77 OFFCURVE",
"55 64 OFFCURVE",
"1 64 CURVE",
"1 40 OFFCURVE",
"10 16 OFFCURVE",
"25 0 CURVE",
"252 0 LINE",
"267 16 OFFCURVE",
"275 40 OFFCURVE",
"275 64 CURVE",
"244 64 OFFCURVE",
"226 80 OFFCURVE",
"226 101 CURVE SMOOTH",
"226 109 OFFCURVE",
"229 118 OFFCURVE",
"235 127 CURVE SMOOTH",
"355 300 LINE",
"296 299 LINE",
"403 127 LINE SMOOTH",
"411 114 OFFCURVE",
"417 102 OFFCURVE",
"417 91 CURVE SMOOTH",
"417 75 OFFCURVE",
"403 64 OFFCURVE",
"363 64 CURVE",
"363 40 OFFCURVE",
"372 16 OFFCURVE",
"387 0 CURVE",
"675 0 LINE",
"689 16 OFFCURVE",
"697 40 OFFCURVE",
"697 64 CURVE",
"654 64 OFFCURVE",
"621 90 OFFCURVE",
"597 126 CURVE SMOOTH"
);
}
);
width = 685;
}
);
leftKerningGroup = X;
rightKerningGroup = X;
unicode = 0058;
},
{
glyphname = Y;
lastChange = "2018-06-15 18:26:07 +0000";
layers = (
{
anchors = (
{
name = btm;
position = "{330, 0}";
},
{
name = top;
position = "{360, 963}";
}
);
layerId = "184835E3-72D9-430C-A639-2454AC4A0BE8";
paths = (
{
closed = 1;
nodes = (
"438 698 LINE",
"423 682 OFFCURVE",
"415 659 OFFCURVE",
"415 635 CURVE",
"446 635 OFFCURVE",
"474 616 OFFCURVE",
"474 591 CURVE SMOOTH",
"474 585 OFFCURVE",
"472 578 OFFCURVE",
"469 572 CURVE SMOOTH",
"343 336 LINE",
"374 336 LINE",
"263 546 LINE SMOOTH",
"253 566 OFFCURVE",
"247 583 OFFCURVE",
"247 596 CURVE SMOOTH",
"247 622 OFFCURVE",
"266 635 OFFCURVE",
"307 635 CURVE",
"307 659 OFFCURVE",
"299 682 OFFCURVE",
"284 698 CURVE",
"14 698 LINE",
"-1 682 OFFCURVE",
"-10 659 OFFCURVE",
"-10 635 CURVE",
"17 635 OFFCURVE",
"49 617 OFFCURVE",
"64 591 CURVE SMOOTH",
"284 210 LINE",
"263 306 LINE",
"263 114 LINE SMOOTH",
"263 77 OFFCURVE",
"215 64 OFFCURVE",
"171 64 CURVE",
"171 40 OFFCURVE",
"179 16 OFFCURVE",
"193 0 CURVE",
"494 0 LINE",
"508 16 OFFCURVE",
"516 40 OFFCURVE",
"516 64 CURVE",
"469 64 OFFCURVE",
"420 77 OFFCURVE",
"420 114 CURVE SMOOTH",
"420 309 LINE",
"389 213 LINE",
"594 585 LINE SMOOTH {name = hr00;}",
"615 624 OFFCURVE",
"621 635 OFFCURVE",
"671 635 CURVE",
"671 659 OFFCURVE",
"662 682 OFFCURVE",
"647 698 CURVE"
);
}
);
width = 661;
}
);
leftKerningGroup = Y;
rightKerningGroup = Y;
unicode = 0059;
},
{
color = 5;
glyphname = Z;
lastChange = "2018-06-14 16:50:44 +0000";
layers = (
{
anchors = (
{
name = btm;
position = "{307, -12}";
},
{
name = top;
position = "{307, 963}";
}
);
layerId = "184835E3-72D9-430C-A639-2454AC4A0BE8";
paths = (
{
closed = 1;
nodes = (
"590 661 LINE",
"565 698 LINE",
"73 698 LINE",
"51 654 OFFCURVE",
"35 577 OFFCURVE",
"35 487 CURVE",
"134 487 LINE",
"148 586 OFFCURVE",
"184 621 OFFCURVE",
"271 621 CURVE SMOOTH",
"382 621 LINE",
"7 38 LINE",
"32 0 LINE",
"484 0 LINE",
"508 -11 OFFCURVE",
"535 -16 OFFCURVE",
"559 -16 CURVE",
"577 20 OFFCURVE",
"601 200 OFFCURVE",
"601 239 CURVE",
"505 239 LINE",
"486 166 OFFCURVE",
"444 79 OFFCURVE",
"377 79 CURVE",
"227 79 LINE {name = hr00;}"
);
}
);
width = 616;
}
);
leftKerningGroup = Z;
rightKerningGroup = Z;
unicode = 005A;
},
{
glyphname = a;
lastChange = "2018-06-15 17:09:26 +0000";
layers = (
{
anchors = (
{
name = btm;
position = "{270, 0}";
},
{
name = top;
position = "{267, 822}";
}
);
layerId = "184835E3-72D9-430C-A639-2454AC4A0BE8";
paths = (
{
closed = 1;
nodes = (
"20 54 OFFCURVE",
"88 -7 OFFCURVE",
"188 -7 CURVE SMOOTH",
"248 -7 OFFCURVE",
"292 16 OFFCURVE",
"319 40 CURVE",
"337 10 OFFCURVE",
"370 -7 OFFCURVE",
"415 -7 CURVE SMOOTH",
"454 -7 OFFCURVE",
"501 6 OFFCURVE",
"519 31 CURVE",
"519 63 LINE",
"488 70 OFFCURVE",
"473 90 OFFCURVE",
"473 121 CURVE SMOOTH",
"473 386 LINE SMOOTH",
"473 490 OFFCURVE",
"405 545 OFFCURVE",
"272 545 CURVE SMOOTH",
"118 545 OFFCURVE",
"52 475 OFFCURVE",
"52 408 CURVE SMOOTH",
"52 362 OFFCURVE",
"85 327 OFFCURVE",
"136 327 CURVE SMOOTH",
"181 327 OFFCURVE",
"217 357 OFFCURVE",
"217 401 CURVE SMOOTH",
"217 424 OFFCURVE",
"206 447 OFFCURVE",
"179 456 CURVE",
"192 466 OFFCURVE",
"212 472 OFFCURVE",
"233 472 CURVE SMOOTH",
"274 472 OFFCURVE",
"307 453 OFFCURVE",
"307 397 CURVE SMOOTH",
"307 264 LINE",
"280 278 OFFCURVE",
"233 286 OFFCURVE",
"194 286 CURVE SMOOTH",
"75 286 OFFCURVE",
"20 227 OFFCURVE",
"20 141 CURVE SMOOTH {name = hr00;}"
);
},
{
closed = 1;
nodes = (
"294 80 OFFCURVE",
"272 74 OFFCURVE",
"253 74 CURVE SMOOTH",
"213 74 OFFCURVE",
"187 100 OFFCURVE",
"187 136 CURVE SMOOTH",
"187 182 OFFCURVE",
"216 204 OFFCURVE",
"251 204 CURVE SMOOTH",
"271 204 OFFCURVE",
"293 196 OFFCURVE",
"307 187 CURVE",
"307 90 LINE"
);
}
);
width = 535;
}
);
leftKerningGroup = a;
rightKerningGroup = n;
unicode = 0061;
},
{
color = 4;
glyphname = aogonek;
lastChange = "2018-06-15 03:19:30 +0000";
layers = (
{
anchors = (
{
name = btm;
position = "{427.142, 46.484}";
}
);
background = {
paths = (
{
closed = 1;
nodes = (
"488.403 -41.033 LINE",
"530.52 -66.559 LINE",
"497.337 -103.024 OFFCURVE",
"456.496 -110.317 OFFCURVE",
"425.865 -110.317 CURVE SMOOTH",
"388.853 -110.317 OFFCURVE",
"368.433 -99.377 OFFCURVE",
"368.433 -68.99 CURVE SMOOTH",
"368.433 -31.309 OFFCURVE",
"423.313 3.941 OFFCURVE",
"488.403 19.742 CURVE",
"438.628 47.699 LINE",
"387.577 24.604 LINE",
"298.237 2.725 OFFCURVE",
"265.054 -48.326 OFFCURVE",
"265.054 -92.084 CURVE SMOOTH",
"265.054 -154.075 OFFCURVE",
"316.105 -199.049 OFFCURVE",
"411.826 -199.049 CURVE SMOOTH",
"461.601 -199.049 OFFCURVE",
"501.166 -185.678 OFFCURVE",
"511.376 -167.446 CURVE",
"488.403 -233.083 LINE"
);
}
);
};
components = (
{
name = a;
}
);
layerId = "184835E3-72D9-430C-A639-2454AC4A0BE8";
paths = (
{
closed = 1;
nodes = (
"459 39 LINE",
"410 39 OFFCURVE",
"266 -5 OFFCURVE",
"266 -125 CURVE SMOOTH",
"266 -207 OFFCURVE",
"334 -238 OFFCURVE",
"396 -238 CURVE SMOOTH",
"443 -238 OFFCURVE",
"484 -223 OFFCURVE",
"501 -206 CURVE SMOOTH",
"515 -192 OFFCURVE",
"519 -173 OFFCURVE",
"519 -154 CURVE SMOOTH",
"519 -142 OFFCURVE",
"517 -125 OFFCURVE",
"511 -116 CURVE",
"499 -126 OFFCURVE",
"471 -134 OFFCURVE",
"443 -134 CURVE SMOOTH",
"412 -134 OFFCURVE",
"380 -124 OFFCURVE",
"380 -95 CURVE SMOOTH",
"380 -51 OFFCURVE",
"410 -12 OFFCURVE",
"471 3 CURVE"
);
}
);
width = 522;
}
);
leftKerningGroup = a;
rightKerningGroup = n;
unicode = 0105;
},
{
glyphname = aringacute;
lastChange = "2018-06-15 03:19:31 +0000";
layers = (
{
anchors = (
{
name = _top;
position = "{267, 822}";
},
{
name = top;
position = "{267, 1033}";
}
);
components = (
{
name = a;
}
);
layerId = "184835E3-72D9-430C-A639-2454AC4A0BE8";
paths = (
{
closed = 1;
nodes = (
"402 836 OFFCURVE",
"348 890 OFFCURVE",
"265 890 CURVE SMOOTH",
"182 890 OFFCURVE",
"129 836 OFFCURVE",
"129 757 CURVE SMOOTH",
"129 677 OFFCURVE",
"182 624 OFFCURVE",
"265 624 CURVE SMOOTH",
"348 624 OFFCURVE",
"402 677 OFFCURVE",
"402 757 CURVE SMOOTH {name = hr00;}"
);
},
{
closed = 1;
nodes = (
"319 725 OFFCURVE",
"298 703 OFFCURVE",
"265 703 CURVE SMOOTH",
"233 703 OFFCURVE",
"212 725 OFFCURVE",
"212 756 CURVE SMOOTH",
"212 788 OFFCURVE",
"233 810 OFFCURVE",
"265 810 CURVE SMOOTH",
"298 810 OFFCURVE",
"319 788 OFFCURVE",
"319 756 CURVE SMOOTH"
);
},
{
closed = 1;
nodes = (
"353 937 OFFCURVE",
"298 887 OFFCURVE",
"251 856 CURVE",
"254 832 OFFCURVE",
"271 822 OFFCURVE",
"290 822 CURVE SMOOTH",
"341 822 OFFCURVE",
"450 887 OFFCURVE",
"450 939 CURVE SMOOTH",
"450 963 OFFCURVE",
"424 997 OFFCURVE",
"385 997 CURVE {name = hr00;}"
);
}
);
width = 535;
}
);
leftKerningGroup = a;
rightKerningGroup = n;
unicode = 01FB;
},
{
color = 5;
glyphname = ae;
lastChange = "2018-06-13 17:07:29 +0000";
layers = (
{
anchors = (
{
name = btm;
position = "{382, -5}";
},
{
name = top;
position = "{379, 822}";
}
);
layerId = "184835E3-72D9-430C-A639-2454AC4A0BE8";
paths = (
{
closed = 1;
nodes = (
"20 49 OFFCURVE",
"85 -15 OFFCURVE",
"189 -15 CURVE SMOOTH",
"287 -15 OFFCURVE",
"365 43 OFFCURVE",
"414 108 CURVE",
"469 113 LINE",
"469 360 LINE SMOOTH",
"469 465 OFFCURVE",
"408 543 OFFCURVE",
"262 543 CURVE SMOOTH",
"125 543 OFFCURVE",
"55 474 OFFCURVE",
"55 408 CURVE SMOOTH",
"55 363 OFFCURVE",
"88 327 OFFCURVE",
"138 327 CURVE SMOOTH",
"183 327 OFFCURVE",
"219 357 OFFCURVE",
"219 400 CURVE SMOOTH",
"219 424 OFFCURVE",
"209 448 OFFCURVE",
"182 456 CURVE",
"195 466 OFFCURVE",
"215 472 OFFCURVE",
"235 472 CURVE SMOOTH",
"277 472 OFFCURVE",
"304 450 OFFCURVE",
"304 395 CURVE SMOOTH",
"304 263 LINE",
"278 277 OFFCURVE",
"232 285 OFFCURVE",
"193 285 CURVE SMOOTH",
"85 285 OFFCURVE",
"20 222 OFFCURVE",
"20 136 CURVE SMOOTH {name = hr01;}"
);
},
{
closed = 1;
nodes = (
"291 74 OFFCURVE",
"273 66 OFFCURVE",
"249 66 CURVE SMOOTH",
"215 66 OFFCURVE",
"185 90 OFFCURVE",
"185 135 CURVE SMOOTH",
"185 180 OFFCURVE",
"214 203 OFFCURVE",
"250 203 CURVE SMOOTH",
"269 203 OFFCURVE",
"291 195 OFFCURVE",
"304 186 CURVE",
"304 88 LINE"
);
},
{
closed = 1;
nodes = (
"366 35 OFFCURVE",
"443 -15 OFFCURVE",
"544 -15 CURVE SMOOTH",
"659 -15 OFFCURVE",
"730 51 OFFCURVE",
"730 86 CURVE SMOOTH",
"730 97 OFFCURVE",
"722 126 OFFCURVE",
"711 136 CURVE {name = hr02;}",
"676 111 OFFCURVE",
"639 96 OFFCURVE",
"594 96 CURVE SMOOTH",
"518 96 OFFCURVE",
"469 140 OFFCURVE",
"469 265 CURVE SMOOTH",
"469 307 LINE SMOOTH",
"469 439 OFFCURVE",
"507 472 OFFCURVE",
"544 472 CURVE SMOOTH",
"572 472 OFFCURVE",
"598 452 OFFCURVE",
"598 369 CURVE SMOOTH",
"598 342 OFFCURVE",
"595 324 OFFCURVE",
"572 324 CURVE SMOOTH",
"416 324 LINE",
"412 248 LINE",
"679 248 LINE SMOOTH",
"732 248 OFFCURVE",
"744 292 OFFCURVE",
"744 343 CURVE SMOOTH",
"744 470 OFFCURVE",
"670 543 OFFCURVE",
"553 543 CURVE SMOOTH",
"445 543 OFFCURVE",
"366 482 OFFCURVE",
"326 367 CURVE",
"328 121 LINE"
);
}
);
width = 768;
}
);
leftKerningGroup = a;
leftMetricsKey = a;
rightKerningGroup = e;
rightMetricsKey = e;
unicode = 00E6;
userData = {
com.typemytype.robofont.guides = (
{
angle = 90;
isGlobal = 0;
magnetic = 5;
x = 938;
y = 0;
}
);
};
},
{
color = 5;
glyphname = b;
lastChange = "2018-06-13 04:15:58 +0000";
layers = (
{
anchors = (
{
name = btm;
position = "{275, -6}";
},
{
name = top;
position = "{387, 822}";
}
);
layerId = "184835E3-72D9-430C-A639-2454AC4A0BE8";
paths = (
{
closed = 1;
nodes = (
"286 540 OFFCURVE",
"249 529 OFFCURVE",
"222 501 CURVE",
"225 596 LINE",
"225 738 LINE SMOOTH",
"225 771 OFFCURVE",
"213 784 OFFCURVE",
"181 784 CURVE SMOOTH",
"138 784 OFFCURVE",
"51 758 OFFCURVE",
"6 727 CURVE",
"6 695 LINE",
"50 695 OFFCURVE",
"67 676 OFFCURVE",
"67 646 CURVE SMOOTH",
"67 22 LINE",
"114 -1 OFFCURVE",
"211 -13 OFFCURVE",
"270 -13 CURVE SMOOTH",
"419 -13 OFFCURVE",
"541 91 OFFCURVE",
"541 283 CURVE SMOOTH",
"541 458 OFFCURVE",
"442 540 OFFCURVE",
"332 540 CURVE SMOOTH"
);
},
{
closed = 1;
nodes = (
"254 60 OFFCURVE",
"238 66 OFFCURVE",
"225 79 CURVE",
"225 444 LINE",
"235 451 OFFCURVE",
"248 455 OFFCURVE",
"263 455 CURVE SMOOTH",
"324 455 OFFCURVE",
"371 395 OFFCURVE",
"371 249 CURVE SMOOTH",
"371 106 OFFCURVE",
"327 60 OFFCURVE",
"273 60 CURVE SMOOTH"
);
}
);
width = 569;
}
);
leftKerningGroup = h;
rightKerningGroup = o;
unicode = 0062;
},
{
color = 1;
glyphname = c;
lastChange = "2018-06-15 03:19:46 +0000";
layers = (
{
anchors = (
{
name = btm;
position = "{256, 0}";
},
{
name = top;
position = "{271, 822}";
}
);
background = {
paths = (
{
closed = 1;
nodes = (
"397 107 OFFCURVE",
"357 96 OFFCURVE",
"321 96 CURVE SMOOTH",
"244 96 OFFCURVE",
"199 148 OFFCURVE",
"199 295 CURVE SMOOTH",
"199 431 OFFCURVE",
"247 472 OFFCURVE",
"285 472 CURVE SMOOTH",
"293 472 OFFCURVE",
"300 471 OFFCURVE",
"314 463 CURVE",
"297 450 OFFCURVE",
"284 432 OFFCURVE",
"284 402 CURVE SMOOTH",
"284 359 OFFCURVE",
"315 326 OFFCURVE",
"357 326 CURVE SMOOTH",
"407 326 OFFCURVE",
"443 360 OFFCURVE",
"443 422 CURVE SMOOTH",
"443 490 OFFCURVE",
"388 543 OFFCURVE",
"286 543 CURVE SMOOTH",
"138 543 OFFCURVE",
"26 438 OFFCURVE",
"26 260 CURVE SMOOTH",
"26 88 OFFCURVE",
"127 -15 OFFCURVE",
"273 -15 CURVE SMOOTH",
"366 -15 OFFCURVE",
"441 34 OFFCURVE",
"441 77 CURVE SMOOTH",
"441 91 OFFCURVE",
"433 114 OFFCURVE",
"422 127 CURVE {name = hr00;}"
);
}
);
};
layerId = "184835E3-72D9-430C-A639-2454AC4A0BE8";
paths = (
{
closed = 1;
nodes = (
"397 107 OFFCURVE",
"357 96 OFFCURVE",
"321 96 CURVE SMOOTH",
"244 96 OFFCURVE",
"199 148 OFFCURVE",
"199 295 CURVE SMOOTH",
"199 431 OFFCURVE",
"247 469 OFFCURVE",
"285 469 CURVE SMOOTH",
"293 469 OFFCURVE",
"300 468 OFFCURVE",
"314 460 CURVE",
"297 446 OFFCURVE",
"284 428 OFFCURVE",
"284 396 CURVE SMOOTH",
"284 352 OFFCURVE",
"315 317 OFFCURVE",
"357 317 CURVE SMOOTH",
"407 317 OFFCURVE",
"443 353 OFFCURVE",
"443 417 CURVE SMOOTH",
"443 488 OFFCURVE",
"388 543 OFFCURVE",
"286 543 CURVE SMOOTH",
"138 543 OFFCURVE",
"26 438 OFFCURVE",
"26 260 CURVE SMOOTH",
"26 88 OFFCURVE",
"127 -15 OFFCURVE",
"273 -15 CURVE SMOOTH",
"366 -15 OFFCURVE",
"441 34 OFFCURVE",
"441 77 CURVE SMOOTH",
"441 91 OFFCURVE",
"433 114 OFFCURVE",
"422 127 CURVE {name = hr00;}"
);
}
);
width = 459;
}
);
leftKerningGroup = o;
leftMetricsKey = o;
rightKerningGroup = c;
unicode = 0063;
},
{
color = 5;
glyphname = d;
lastChange = "2018-06-15 13:52:46 +0000";
layers = (
{
anchors = (
{
name = btm;
position = "{343, 0}";
},
{
name = car;
position = "{570, 712}";
},
{
name = top;
position = "{142, 822}";
}
);
layerId = "184835E3-72D9-430C-A639-2454AC4A0BE8";
paths = (
{
closed = 1;
nodes = (
"524 59 OFFCURVE",
"507 79 OFFCURVE",
"507 111 CURVE SMOOTH",
"507 739 LINE SMOOTH",
"507 772 OFFCURVE",
"494 785 OFFCURVE",
"463 785 CURVE SMOOTH",
"420 785 OFFCURVE",
"331 763 OFFCURVE",
"282 736 CURVE",
"282 695 LINE",
"337 695 OFFCURVE",
"349 676 OFFCURVE",
"349 646 CURVE SMOOTH",
"349 596 LINE",
"352 536 LINE",
"330 538 OFFCURVE",
"308 540 OFFCURVE",
"291 540 CURVE SMOOTH",
"152 540 OFFCURVE",
"28 441 OFFCURVE",
"28 239 CURVE SMOOTH",
"28 69 OFFCURVE",
"124 -13 OFFCURVE",
"233 -13 CURVE SMOOTH",
"287 -13 OFFCURVE",
"328 -3 OFFCURVE",
"356 34 CURVE",
"372 2 OFFCURVE",
"417 -13 OFFCURVE",
"454 -13 CURVE SMOOTH",
"494 -13 OFFCURVE",
"537 0 OFFCURVE",
"556 25 CURVE",
"555 53 LINE"
);
},
{
closed = 1;
nodes = (
"242 72 OFFCURVE",
"196 136 OFFCURVE",
"196 274 CURVE SMOOTH",
"196 420 OFFCURVE",
"239 469 OFFCURVE",
"293 469 CURVE SMOOTH",
"317 469 OFFCURVE",
"335 459 OFFCURVE",
"349 440 CURVE",
"349 90 LINE",
"339 79 OFFCURVE",
"323 72 OFFCURVE",
"302 72 CURVE SMOOTH"
);
}
);
width = 566;
}
);
leftKerningGroup = o;
rightKerningGroup = l;
unicode = 0064;
},
{
color = 5;
glyphname = eth;
lastChange = "2018-06-15 13:53:31 +0000";
layers = (
{
anchors = (
{
name = btm;
position = "{276, -5}";
},
{
name = top;
position = "{276, 970}";
}
);
layerId = "184835E3-72D9-430C-A639-2454AC4A0BE8";
paths = (
{
closed = 1;
nodes = (
"447 789 OFFCURVE",
"431 800 OFFCURVE",
"411 811 CURVE",
"160 646 LINE",
"160 632 OFFCURVE",
"182 599 OFFCURVE",
"206 595 CURVE",
"453 760 LINE {name = hr00;}"
);
},
{
closed = 1;
nodes = (
"241 57 OFFCURVE",
"206 92 OFFCURVE",
"206 248 CURVE SMOOTH",
"206 405 OFFCURVE",
"233 438 OFFCURVE",
"281 438 CURVE SMOOTH",
"318 438 OFFCURVE",
"364 420 OFFCURVE",
"364 339 CURVE",
"392 386 LINE",
"392 461 OFFCURVE",
"335 510 OFFCURVE",
"251 510 CURVE SMOOTH",
"138 510 OFFCURVE",
"26 419 OFFCURVE",
"26 240 CURVE SMOOTH",
"26 80 OFFCURVE",
"132 -15 OFFCURVE",
"279 -15 CURVE SMOOTH",
"429 -15 OFFCURVE",
"529 90 OFFCURVE",
"529 296 CURVE SMOOTH",
"529 604 OFFCURVE",
"337 803 OFFCURVE",
"193 803 CURVE SMOOTH",
"159 803 OFFCURVE",
"144 792 OFFCURVE",
"132 758 CURVE",
"323 669 OFFCURVE",
"364 495 OFFCURVE",
"364 339 CURVE SMOOTH",
"364 92 OFFCURVE",
"340 57 OFFCURVE",
"284 57 CURVE SMOOTH"
);
}
);
width = 555;
}
);
leftKerningGroup = o;
leftMetricsKey = o;
rightKerningGroup = o;
rightMetricsKey = o;
unicode = 00F0;
},
{
glyphname = dcroat;
lastChange = "2018-06-15 13:52:50 +0000";
layers = (
{
components = (
{
name = d;
}
);
layerId = "184835E3-72D9-430C-A639-2454AC4A0BE8";
paths = (
{
closed = 1;
nodes = (
"240 631 OFFCURVE",
"238 620 OFFCURVE",
"238 601 CURVE SMOOTH",
"238 585 OFFCURVE",
"240 573 OFFCURVE",
"244 562 CURVE",
"559 562 LINE",
"562 571 OFFCURVE",
"564 584 OFFCURVE",
"564 601 CURVE SMOOTH",
"564 618 OFFCURVE",
"562 629 OFFCURVE",
"558 640 CURVE",
"245 640 LINE {name = hr00;}"
);
}
);
width = 568;
}
);
leftKerningGroup = o;
rightKerningGroup = l;
unicode = 0111;
},
{
color = 5;
glyphname = e;
lastChange = "2018-06-13 04:26:05 +0000";
layers = (
{
anchors = (
{
name = btm;
position = "{257, 0}";
},
{
name = top;
position = "{273, 822}";
}
);
layerId = "184835E3-72D9-430C-A639-2454AC4A0BE8";
paths = (
{
closed = 1;
nodes = (
"248 95 OFFCURVE",
"200 135 OFFCURVE",
"196 247 CURVE",
"412 247 LINE SMOOTH",
"464 247 OFFCURVE",
"476 291 OFFCURVE",
"476 342 CURVE SMOOTH",
"476 469 OFFCURVE",
"397 542 OFFCURVE",
"277 542 CURVE SMOOTH",
"133 542 OFFCURVE",
"26 434 OFFCURVE",
"26 260 CURVE SMOOTH",
"26 91 OFFCURVE",
"122 -16 OFFCURVE",
"271 -16 CURVE SMOOTH",
"386 -16 OFFCURVE",
"457 50 OFFCURVE",
"457 83 CURVE SMOOTH",
"457 97 OFFCURVE",
"449 124 OFFCURVE",
"437 135 CURVE {name = hr00;}",
"403 110 OFFCURVE",
"365 95 OFFCURVE",
"320 95 CURVE SMOOTH"
);
},
{
closed = 1;
nodes = (
"299 473 OFFCURVE",
"323 453 OFFCURVE",
"323 368 CURVE SMOOTH",
"323 342 OFFCURVE",
"320 323 OFFCURVE",
"297 323 CURVE SMOOTH",
"196 323 LINE",
"199 441 OFFCURVE",
"236 473 OFFCURVE",
"271 473 CURVE SMOOTH"
);
}
);
width = 500;
}
);
leftKerningGroup = o;
leftMetricsKey = o;
rightKerningGroup = e;
unicode = 0065;
},
{
color = 4;
glyphname = eogonek;
lastChange = "2018-06-13 15:57:29 +0000";
layers = (
{
components = (
{
name = e;
}
);
layerId = "184835E3-72D9-430C-A639-2454AC4A0BE8";
paths = (
{
closed = 1;
nodes = (
"363 41 LINE",
"314 41 OFFCURVE",
"170 -3 OFFCURVE",
"170 -123 CURVE SMOOTH",
"170 -205 OFFCURVE",
"238 -236 OFFCURVE",
"300 -236 CURVE SMOOTH",
"347 -236 OFFCURVE",
"388 -221 OFFCURVE",
"405 -204 CURVE SMOOTH",
"419 -190 OFFCURVE",
"423 -171 OFFCURVE",
"423 -152 CURVE SMOOTH",
"423 -140 OFFCURVE",
"421 -123 OFFCURVE",
"415 -114 CURVE",
"403 -124 OFFCURVE",
"375 -132 OFFCURVE",
"347 -132 CURVE SMOOTH",
"316 -132 OFFCURVE",
"284 -122 OFFCURVE",
"284 -93 CURVE SMOOTH",
"284 -49 OFFCURVE",
"314 -10 OFFCURVE",
"375 5 CURVE"
);
}
);
width = 494;
}
);
leftKerningGroup = o;
rightKerningGroup = e;
unicode = 0119;
},
{
glyphname = schwa;
lastChange = "2018-06-13 04:19:35 +0000";
layers = (
{
anchors = (
{
name = btm;
position = "{249, -5}";
}
);
layerId = "184835E3-72D9-430C-A639-2454AC4A0BE8";
paths = (
{
closed = 1;
nodes = (
"114 543 OFFCURVE",
"43 476 OFFCURVE",
"43 444 CURVE SMOOTH",
"43 430 OFFCURVE",
"51 403 OFFCURVE",
"63 391 CURVE {name = hr00;}",
"97 417 OFFCURVE",
"135 432 OFFCURVE",
"180 432 CURVE SMOOTH",
"252 432 OFFCURVE",
"300 392 OFFCURVE",
"304 280 CURVE",
"90 280 LINE SMOOTH",
"38 280 OFFCURVE",
"26 236 OFFCURVE",
"26 185 CURVE SMOOTH",
"26 58 OFFCURVE",
"103 -15 OFFCURVE",
"223 -15 CURVE SMOOTH",
"367 -15 OFFCURVE",
"472 93 OFFCURVE",
"472 266 CURVE SMOOTH",
"472 436 OFFCURVE",
"378 543 OFFCURVE",
"229 543 CURVE SMOOTH"
);
},
{
closed = 1;
nodes = (
"201 54 OFFCURVE",
"177 74 OFFCURVE",
"177 159 CURVE SMOOTH",
"177 185 OFFCURVE",
"180 204 OFFCURVE",
"203 204 CURVE SMOOTH",
"304 204 LINE",
"301 86 OFFCURVE",
"264 54 OFFCURVE",
"229 54 CURVE SMOOTH"
);
}
);
width = 498;
}
);
leftKerningGroup = o;
leftMetricsKey = o;
rightKerningGroup = o;
rightMetricsKey = o;
unicode = 0259;
},
{
color = 1;
glyphname = f;
lastChange = "2018-06-15 13:54:11 +0000";
layers = (
{
anchors = (
{
name = btm;
position = "{192, 0}";
},
{
name = top;
position = "{191, 975}";
}
);
layerId = "184835E3-72D9-430C-A639-2454AC4A0BE8";
paths = (
{
closed = 1;
nodes = (
"330 440 LINE",
"345 463 OFFCURVE",
"347 500 OFFCURVE",
"347 530 CURVE",
"251 530 LINE SMOOTH",
"238 530 OFFCURVE",
"218 586 OFFCURVE",
"218 647 CURVE SMOOTH",
"218 703 OFFCURVE",
"246 756 OFFCURVE",
"279 756 CURVE SMOOTH {name = hr02;}",
"287 756 OFFCURVE",
"299 751 OFFCURVE",
"303 744 CURVE",
"276 724 OFFCURVE",
"273 702 OFFCURVE",
"273 686 CURVE SMOOTH",
"273 648 OFFCURVE",
"309 615 OFFCURVE",
"349 615 CURVE SMOOTH",
"393 615 OFFCURVE",
"421 653 OFFCURVE",
"421 702 CURVE SMOOTH",
"421 752 OFFCURVE",
"371 822 OFFCURVE",
"275 822 CURVE SMOOTH",
"155 822 OFFCURVE",
"77 754 OFFCURVE",
"77 615 CURVE SMOOTH",
"77 570 OFFCURVE",
"87 545 OFFCURVE",
"87 496 CURVE",
"98 539 LINE",
"76 522 OFFCURVE",
"63 511 OFFCURVE",
"26 502 CURVE",
"26 440 LINE {name = hr03;}",
"138 440 LINE",
"87 491 LINE",
"87 109 LINE SMOOTH",
"87 70 OFFCURVE",
"72 54 OFFCURVE",
"32 54 CURVE",
"32 33 OFFCURVE",
"40 15 OFFCURVE",
"55 0 CURVE",
"319 0 LINE",
"334 15 OFFCURVE",
"342 33 OFFCURVE",
"342 54 CURVE",
"262 54 OFFCURVE",
"248 73 OFFCURVE",
"248 118 CURVE SMOOTH",
"248 491 LINE {name = hr01;}",
"197 440 LINE {name = hr01;}"
);
}
);
width = 360;
}
);
leftKerningGroup = f;
rightKerningGroup = f;
unicode = 0066;
},
{
color = 5;
glyphname = g;
lastChange = "2018-06-15 03:20:25 +0000";
layers = (
{
anchors = (
{
name = btm;
position = "{267, -133}";
},
{
name = top;
position = "{275, 822}";
}
);
layerId = "184835E3-72D9-430C-A639-2454AC4A0BE8";
paths = (
{
closed = 1;
nodes = (
"396 164 OFFCURVE",
"486 231 OFFCURVE",
"486 356 CURVE SMOOTH",
"486 433 OFFCURVE",
"406 538 OFFCURVE",
"254 538 CURVE SMOOTH",
"253 538 LINE SMOOTH",
"107 538 OFFCURVE",
"32 455 OFFCURVE",
"32 354 CURVE SMOOTH",
"32 252 OFFCURVE",
"114 164 OFFCURVE",
"245 164 CURVE SMOOTH"
);
},
{
closed = 1;
nodes = (
"221 230 OFFCURVE",
"203 270 OFFCURVE",
"203 343 CURVE SMOOTH {name = hr00;}",
"203 423 OFFCURVE",
"218 472 OFFCURVE",
"262 472 CURVE SMOOTH",
"300 472 OFFCURVE",
"322 442 OFFCURVE",
"322 368 CURVE SMOOTH",
"322 277 OFFCURVE",
"306 230 OFFCURVE",
"262 230 CURVE SMOOTH"
);
},
{
closed = 1;
nodes = (
"396 -249 OFFCURVE",
"526 -166 OFFCURVE",
"526 -56 CURVE SMOOTH",
"526 47 OFFCURVE",
"447 84 OFFCURVE",
"278 107 CURVE SMOOTH",
"213 116 OFFCURVE",
"182 124 OFFCURVE",
"182 158 CURVE SMOOTH",
"182 174 OFFCURVE",
"189 189 OFFCURVE",
"201 198 CURVE",
"174 189 LINE",
"109 189 OFFCURVE",
"79 144 OFFCURVE",
"79 115 CURVE SMOOTH",
"79 57 OFFCURVE",
"91 15 OFFCURVE",
"226 -8 CURVE SMOOTH",
"309 -22 OFFCURVE",
"377 -36 OFFCURVE",
"377 -83 CURVE SMOOTH",
"377 -124 OFFCURVE",
"353 -164 OFFCURVE",
"287 -164 CURVE SMOOTH",
"198 -164 OFFCURVE",
"168 -118 OFFCURVE",
"168 -59 CURVE SMOOTH",
"168 -26 OFFCURVE",
"177 19 OFFCURVE",
"218 31 CURVE",
"189 46 LINE",
"77 40 OFFCURVE",
"17 -18 OFFCURVE",
"17 -86 CURVE SMOOTH",
"17 -179 OFFCURVE",
"89 -249 OFFCURVE",
"254 -249 CURVE SMOOTH"
);
},
{
closed = 1;
nodes = (
"535 529 CURVE SMOOTH",
"535 546 OFFCURVE",
"528 561 OFFCURVE",
"514 561 CURVE",
"430 549 OFFCURVE",
"355 536 OFFCURVE",
"274 536 CURVE",
"353 486 LINE",
"392 493 LINE SMOOTH",
"404 495 OFFCURVE",
"483 472 OFFCURVE",
"496 472 CURVE SMOOTH",
"524 472 OFFCURVE",
"535 503 OFFCURVE"
);
}
);
width = 529;
}
);
leftKerningGroup = g;
rightKerningGroup = g;
unicode = 0067;
},
{
color = 4;
glyphname = h;
lastChange = "2018-06-15 18:32:08 +0000";
layers = (
{
anchors = (
{
name = btm;
position = "{317, 0}";
},
{
name = top;
position = "{297, 967}";
}
);
layerId = "184835E3-72D9-430C-A639-2454AC4A0BE8";
paths = (
{
closed = 1;
nodes = (
"550 54 OFFCURVE",
"534 73 OFFCURVE",
"534 106 CURVE SMOOTH",
"534 408 LINE SMOOTH {name = hr00;}",
"534 496 OFFCURVE",
"486 544 OFFCURVE",
"392 544 CURVE SMOOTH",
"322 544 OFFCURVE",
"266 519 OFFCURVE",
"232 478 CURVE",
"234 545 LINE",
"234 742 LINE SMOOTH",
"234 775 OFFCURVE",
"221 788 OFFCURVE",
"191 788 CURVE SMOOTH",
"146 788 OFFCURVE",
"59 766 OFFCURVE",
"10 740 CURVE",
"10 699 LINE",
"65 699 OFFCURVE",
"77 680 OFFCURVE",
"77 650 CURVE SMOOTH",
"77 108 LINE SMOOTH",
"77 69 OFFCURVE",
"62 54 OFFCURVE",
"22 54 CURVE",
"22 32 OFFCURVE",
"30 15 OFFCURVE",
"45 0 CURVE",
"266 0 LINE",
"281 15 OFFCURVE",
"289 32 OFFCURVE",
"289 54 CURVE",
"249 54 OFFCURVE",
"234 69 OFFCURVE",
"234 108 CURVE SMOOTH",
"234 408 LINE",
"252 432 OFFCURVE",
"279 446 OFFCURVE",
"304 446 CURVE SMOOTH",
"343 446 OFFCURVE",
"372 422 OFFCURVE",
"372 379 CURVE SMOOTH",
"372 38 LINE SMOOTH",
"372 -6 OFFCURVE",
"410 -14 OFFCURVE",
"460 -14 CURVE SMOOTH",
"508 -14 OFFCURVE",
"559 -2 OFFCURVE",
"583 20 CURVE",
"581 48 LINE"
);
}
);
width = 602;
}
);
leftKerningGroup = h;
rightKerningGroup = n;
rightMetricsKey = n;
unicode = 0068;
},
{
glyphname = hbar;
lastChange = "2018-06-15 13:54:31 +0000";
layers = (
{
anchors = (
{
name = _top;
position = "{179, 744}";
},
{
name = top;
position = "{179, 955}";
}
);
components = (
{
name = h;
}
);
layerId = "184835E3-72D9-430C-A639-2454AC4A0BE8";
paths = (
{
closed = 1;
nodes = (
"18 631 OFFCURVE",
"16 620 OFFCURVE",
"16 601 CURVE SMOOTH",
"16 585 OFFCURVE",
"18 573 OFFCURVE",
"22 562 CURVE",
"337 562 LINE",
"340 571 OFFCURVE",
"342 584 OFFCURVE",
"342 601 CURVE SMOOTH",
"342 618 OFFCURVE",
"340 629 OFFCURVE",
"336 640 CURVE",
"23 640 LINE {name = hr00;}"
);
}
);
width = 611;
}
);
leftKerningGroup = h;
rightKerningGroup = n;
unicode = 0127;
},
{
color = 4;
glyphname = i;
lastChange = "2018-06-15 03:25:00 +0000";
layers = (
{
anchors = (
{
name = btm;
position = "{158, 0}";
},
{
name = top;
position = "{155, 975}";
}
);
layerId = "184835E3-72D9-430C-A639-2454AC4A0BE8";
paths = (
{
closed = 1;
nodes = (
"240 530 OFFCURVE",
"226 543 OFFCURVE",
"195 543 CURVE SMOOTH",
"125 543 OFFCURVE",
"48 518 OFFCURVE",
"15 495 CURVE",
"15 450 LINE",
"71 450 OFFCURVE",
"79 417 OFFCURVE",
"79 386 CURVE SMOOTH",
"79 109 LINE SMOOTH",
"79 69 OFFCURVE",
"61 54 OFFCURVE",
"22 54 CURVE",
"22 31 OFFCURVE",
"30 15 OFFCURVE",
"45 0 CURVE",
"274 0 LINE",
"289 15 OFFCURVE",
"297 31 OFFCURVE",
"297 54 CURVE",
"258 54 OFFCURVE",
"240 68 OFFCURVE",
"240 108 CURVE SMOOTH",
"240 497 LINE SMOOTH {name = hr00;}"
);
},
{
closed = 1;
nodes = (
"256 763 OFFCURVE",
"219 801 OFFCURVE",
"161 801 CURVE SMOOTH",
"103 801 OFFCURVE",
"65 763 OFFCURVE",
"65 707 CURVE SMOOTH",
"65 650 OFFCURVE",
"101 613 OFFCURVE",
"159 613 CURVE SMOOTH",
"217 613 OFFCURVE",
"256 650 OFFCURVE",
"256 707 CURVE SMOOTH"
);
}
);
width = 312;
}
);
leftKerningGroup = i;
rightKerningGroup = i;
unicode = 0069;
},
{
glyphname = idotless;
lastChange = "2018-06-12 17:44:11 +0000";
layers = (
{
anchors = (
{
name = btm;
position = "{152, 0}";
},
{
name = top;
position = "{145, 822}";
}
);
layerId = "184835E3-72D9-430C-A639-2454AC4A0BE8";
paths = (
{
closed = 1;
nodes = (
"235 530 OFFCURVE",
"221 543 OFFCURVE",
"190 543 CURVE SMOOTH",
"146 543 OFFCURVE",
"64 522 OFFCURVE",
"15 495 CURVE",
"15 450 LINE",
"70 450 OFFCURVE",
"73 432 OFFCURVE",
"73 401 CURVE SMOOTH",
"73 109 LINE SMOOTH",
"73 69 OFFCURVE",
"58 54 OFFCURVE",
"19 54 CURVE",
"19 31 OFFCURVE",
"27 15 OFFCURVE",
"42 0 CURVE",
"266 0 LINE",
"281 15 OFFCURVE",
"289 31 OFFCURVE",
"289 54 CURVE",
"250 54 OFFCURVE",
"235 68 OFFCURVE",
"235 108 CURVE SMOOTH",
"235 497 LINE SMOOTH {name = hr00;}"
);
}
);
width = 312;
}
);
leftKerningGroup = i;
leftMetricsKey = i;
widthMetricsKey = i;
rightKerningGroup = i;
unicode = 0131;
},
{
color = 4;
glyphname = iogonek;
lastChange = "2018-06-15 13:54:39 +0000";
layers = (
{
components = (
{
name = idotless;
},
{
name = dotaccentcomb;
transform = "{1, 0, 0, 1, 145, 0}";
}
);
layerId = "184835E3-72D9-430C-A639-2454AC4A0BE8";
paths = (
{
closed = 1;
nodes = (
"217 40 LINE",
"168 40 OFFCURVE",
"24 -4 OFFCURVE",
"24 -124 CURVE SMOOTH",
"24 -206 OFFCURVE",
"92 -237 OFFCURVE",
"154 -237 CURVE SMOOTH",
"201 -237 OFFCURVE",
"242 -222 OFFCURVE",
"259 -205 CURVE SMOOTH",
"273 -191 OFFCURVE",
"277 -172 OFFCURVE",
"277 -153 CURVE SMOOTH",
"277 -141 OFFCURVE",
"275 -124 OFFCURVE",
"269 -115 CURVE",
"257 -125 OFFCURVE",
"229 -133 OFFCURVE",
"201 -133 CURVE SMOOTH",
"170 -133 OFFCURVE",
"138 -123 OFFCURVE",
"138 -94 CURVE SMOOTH",
"138 -50 OFFCURVE",
"168 -11 OFFCURVE",
"229 4 CURVE"
);
}
);
width = 312;
}
);
leftKerningGroup = i;
rightKerningGroup = i;
unicode = 012F;
},
{
glyphname = j;
lastChange = "2018-06-15 03:25:17 +0000";
layers = (
{
anchors = (
{
name = btm;
position = "{159, -97}";
},
{
name = top;
position = "{159, 878}";
}
);
background = {
paths = (
{
closed = 1;
nodes = (
"247 530 OFFCURVE",
"233 543 OFFCURVE",
"202 543 CURVE SMOOTH",
"158 543 OFFCURVE",
"76 522 OFFCURVE",
"27 495 CURVE",
"27 450 LINE",
"82 450 OFFCURVE",
"85 432 OFFCURVE",
"85 401 CURVE SMOOTH",
"85 109 LINE SMOOTH",
"85 69 OFFCURVE",
"70 54 OFFCURVE",
"31 54 CURVE",
"31 31 OFFCURVE",
"39 15 OFFCURVE",
"54 0 CURVE",
"278 0 LINE",
"293 15 OFFCURVE",
"301 31 OFFCURVE",
"301 54 CURVE",
"262 54 OFFCURVE",
"247 68 OFFCURVE",
"247 108 CURVE SMOOTH",
"247 497 LINE SMOOTH {name = hr00;}"
);
}
);
};
layerId = "184835E3-72D9-430C-A639-2454AC4A0BE8";
paths = (
{
closed = 1;
nodes = (
"255 749 OFFCURVE",
"218 783 OFFCURVE",
"164 783 CURVE SMOOTH",
"109 783 OFFCURVE",
"74 749 OFFCURVE",
"74 695 CURVE SMOOTH",
"74 643 OFFCURVE",
"109 606 OFFCURVE",
"164 606 CURVE SMOOTH",
"218 606 OFFCURVE",
"255 643 OFFCURVE",
"255 695 CURVE SMOOTH {name = hr00;}"
);
},
{
closed = 1;
nodes = (
"171 -188 OFFCURVE",
"245 -129 OFFCURVE",
"245 -3 CURVE SMOOTH",
"245 498 LINE SMOOTH",
"245 531 OFFCURVE",
"234 543 OFFCURVE",
"202 543 CURVE SMOOTH",
"160 543 OFFCURVE",
"69 521 OFFCURVE",
"20 496 CURVE",
"20 451 LINE",
"74 451 OFFCURVE",
"86 433 OFFCURVE",
"86 402 CURVE SMOOTH",
"86 4 LINE SMOOTH",
"86 -79 OFFCURVE",
"56 -105 OFFCURVE",
"4 -105 CURVE",
"0 -111 OFFCURVE",
"-5 -125 OFFCURVE",
"-5 -134 CURVE SMOOTH",
"-5 -159 OFFCURVE",
"22 -188 OFFCURVE",
"84 -188 CURVE SMOOTH"
);
}
);
width = 300;
}
);
leftKerningGroup = j;
rightKerningGroup = j;
unicode = 006A;
},
{
glyphname = jdotless;
lastChange = "2018-06-12 17:44:11 +0000";
layers = (
{
anchors = (
{
name = top;
position = "{171, 822}";
}
);
layerId = "184835E3-72D9-430C-A639-2454AC4A0BE8";
paths = (
{
closed = 1;
nodes = (
"171 -188 OFFCURVE",
"245 -129 OFFCURVE",
"245 -3 CURVE SMOOTH",
"245 498 LINE SMOOTH",
"245 531 OFFCURVE",
"234 543 OFFCURVE",
"202 543 CURVE SMOOTH",
"160 543 OFFCURVE",
"69 521 OFFCURVE",
"20 496 CURVE",
"20 451 LINE",
"74 451 OFFCURVE",
"86 433 OFFCURVE",
"86 402 CURVE SMOOTH",
"86 4 LINE SMOOTH",
"86 -79 OFFCURVE",
"56 -105 OFFCURVE",
"4 -105 CURVE",
"0 -111 OFFCURVE",
"-5 -125 OFFCURVE",
"-5 -134 CURVE SMOOTH",
"-5 -159 OFFCURVE",
"22 -188 OFFCURVE",
"84 -188 CURVE SMOOTH"
);
}
);
width = 300;
}
);
leftKerningGroup = j;
leftMetricsKey = j;
widthMetricsKey = j;
rightKerningGroup = j;
unicode = 0237;
},
{
color = 4;
glyphname = k;
lastChange = "2018-06-15 03:25:35 +0000";
layers = (
{
anchors = (
{
name = btm;
position = "{322, 0}";
},
{
name = top;
position = "{295, 972}";
}
);
layerId = "184835E3-72D9-430C-A639-2454AC4A0BE8";
paths = (
{
closed = 1;
nodes = (
"419 288 OFFCURVE",
"375 302 OFFCURVE",
"288 303 CURVE",
"293 242 LINE",
"502 448 LINE SMOOTH",
"516 461 OFFCURVE",
"531 475 OFFCURVE",
"567 475 CURVE",
"567 497 OFFCURVE",
"564 520 OFFCURVE",
"548 536 CURVE",
"323 536 LINE",
"308 520 OFFCURVE",
"300 497 OFFCURVE",
"300 475 CURVE",
"326 475 OFFCURVE",
"363 456 OFFCURVE",
"363 437 CURVE SMOOTH",
"363 428 OFFCURVE",
"352 415 OFFCURVE",
"344 407 CURVE SMOOTH",
"234 293 LINE",
"234 738 LINE SMOOTH",
"234 772 OFFCURVE",
"221 785 OFFCURVE",
"189 785 CURVE SMOOTH",
"147 785 OFFCURVE",
"59 762 OFFCURVE",
"10 736 CURVE",
"10 696 LINE",
"65 696 OFFCURVE",
"77 677 OFFCURVE",
"77 646 CURVE SMOOTH",
"77 104 LINE SMOOTH",
"77 65 OFFCURVE",
"62 50 OFFCURVE",
"22 50 CURVE",
"22 28 OFFCURVE",
"30 11 OFFCURVE",
"46 -3 CURVE",
"266 -3 LINE",
"281 11 OFFCURVE",
"290 28 OFFCURVE",
"290 50 CURVE",
"249 50 OFFCURVE",
"234 65 OFFCURVE",
"234 104 CURVE SMOOTH",
"234 257 LINE",
"273 242 OFFCURVE",
"293 196 OFFCURVE",
"315 146 CURVE SMOOTH",
"347 72 OFFCURVE",
"383 -10 OFFCURVE",
"493 -10 CURVE SMOOTH",
"542 -10 OFFCURVE",
"579 6 OFFCURVE",
"583 34 CURVE",
"582 58 LINE",
"530 76 OFFCURVE",
"521 107 OFFCURVE",
"459 217 CURVE SMOOTH"
);
}
);
width = 585;
}
);
leftKerningGroup = h;
leftMetricsKey = h;
rightKerningGroup = k;
unicode = 006B;
},
{
glyphname = kgreenlandic;
lastChange = "2018-06-15 16:54:10 +0000";
layers = (
{
layerId = "184835E3-72D9-430C-A639-2454AC4A0BE8";
paths = (
{
closed = 1;
nodes = (
"350 219 OFFCURVE",
"319 -13 OFFCURVE",
"507 -13 CURVE SMOOTH",
"556 -13 OFFCURVE",
"602 2 OFFCURVE",
"606 31 CURVE",
"606 59 LINE",
"554 78 OFFCURVE",
"541 98 OFFCURVE",
"472 204 CURVE SMOOTH",
"428 272 OFFCURVE",
"389 289 OFFCURVE",
"304 289 CURVE",
"243 254 LINE {name = hr00;}"
);
},
{
closed = 1;
nodes = (
"87 73 OFFCURVE",
"72 58 OFFCURVE",
"31 58 CURVE",
"31 36 OFFCURVE",
"40 15 OFFCURVE",
"55 0 CURVE",
"282 0 LINE",
"297 15 OFFCURVE",
"305 36 OFFCURVE",
"305 58 CURVE",
"265 58 OFFCURVE",
"250 73 OFFCURVE",
"250 112 CURVE SMOOTH",
"250 494 LINE SMOOTH",
"250 527 OFFCURVE",
"237 540 OFFCURVE",
"205 540 CURVE SMOOTH",
"163 540 OFFCURVE",
"68 518 OFFCURVE",
"20 492 CURVE",
"20 451 LINE",
"75 451 OFFCURVE",
"87 432 OFFCURVE",
"87 401 CURVE SMOOTH",
"87 113 LINE SMOOTH"
);
},
{
closed = 1;
nodes = (
"531 453 OFFCURVE",
"544 469 OFFCURVE",
"577 469 CURVE",
"577 490 OFFCURVE",
"573 514 OFFCURVE",
"558 529 CURVE",
"355 529 LINE",
"339 514 OFFCURVE",
"332 490 OFFCURVE",
"332 469 CURVE",
"358 469 OFFCURVE",
"376 450 OFFCURVE",
"376 430 CURVE SMOOTH",
"376 420 OFFCURVE",
"371 410 OFFCURVE",
"362 401 CURVE SMOOTH",
"247 288 LINE",
"247 255 LINE",
"350 278 LINE",
"518 441 LINE SMOOTH"
);
}
);
width = 608;
}
);
leftKerningGroup = n;
leftMetricsKey = n;
rightKerningGroup = k;
unicode = 0138;
},
{
color = 5;
glyphname = l;
lastChange = "2018-06-15 02:59:51 +0000";
layers = (
{
anchors = (
{
name = btm;
position = "{165, 0}";
},
{
name = car;
position = "{323, 712}";
},
{
name = top;
position = "{159, 1003}";
}
);
layerId = "184835E3-72D9-430C-A639-2454AC4A0BE8";
paths = (
{
closed = 1;
nodes = (
"84 69 OFFCURVE",
"68 54 OFFCURVE",
"29 54 CURVE",
"29 32 OFFCURVE",
"37 16 OFFCURVE",
"52 0 CURVE",
"271 0 LINE",
"286 16 OFFCURVE",
"295 32 OFFCURVE",
"295 54 CURVE",
"255 54 OFFCURVE",
"240 68 OFFCURVE",
"240 109 CURVE SMOOTH",
"240 733 LINE SMOOTH",
"240 766 OFFCURVE",
"227 778 OFFCURVE",
"196 778 CURVE SMOOTH",
"152 778 OFFCURVE",
"66 757 OFFCURVE",
"16 730 CURVE",
"16 690 LINE",
"72 690 OFFCURVE",
"84 670 OFFCURVE",
"84 640 CURVE SMOOTH",
"84 109 LINE SMOOTH {name = hr00;}"
);
}
);
width = 319;
}
);
leftKerningGroup = l;
rightKerningGroup = l;
unicode = 006C;
},
{
color = 4;
glyphname = lslash;
lastChange = "2018-06-15 16:54:33 +0000";
layers = (
{
components = (
{
name = l;
transform = "{1, 0, 0, 1, 30, 0}";
}
);
layerId = "184835E3-72D9-430C-A639-2454AC4A0BE8";
paths = (
{
closed = 1;
nodes = (
"56 200 LINE",
"396 486 LINE",
"344 540 LINE",
"3 255 LINE"
);
}
);
width = 399;
}
);
leftKerningGroup = lslash;
rightKerningGroup = lslash;
unicode = 0142;
},
{
color = 4;
glyphname = m;
lastChange = "2018-06-15 18:30:21 +0000";
layers = (
{
anchors = (
{
name = btm;
position = "{467, -8}";
},
{
name = top;
position = "{451, 822}";
}
);
hints = (
{
origin = "{0, 22}";
target = "{0, 37}";
type = Stem;
},
{
origin = "{0, 44}";
target = "{0, 57}";
type = Stem;
},
{
origin = "{0, 67}";
target = "{0, 0}";
type = Stem;
}
);
layerId = "184835E3-72D9-430C-A639-2454AC4A0BE8";
paths = (
{
closed = 1;
nodes = (
"834 407 LINE SMOOTH {name = hr01;}",
"834 496 OFFCURVE",
"787 544 OFFCURVE",
"691 544 CURVE SMOOTH",
"623 544 OFFCURVE",
"567 519 OFFCURVE",
"533 477 CURVE",
"513 521 OFFCURVE",
"469 544 OFFCURVE",
"403 544 CURVE SMOOTH",
"336 544 OFFCURVE",
"284 519 OFFCURVE",
"250 480 CURVE",
"245 532 OFFCURVE",
"226 544 OFFCURVE",
"199 544 CURVE SMOOTH",
"163 544 OFFCURVE",
"66 522 OFFCURVE",
"20 495 CURVE",
"20 451 LINE",
"71 451 OFFCURVE",
"87 436 OFFCURVE",
"87 401 CURVE SMOOTH",
"87 108 LINE SMOOTH",
"87 69 OFFCURVE",
"71 54 OFFCURVE",
"31 54 CURVE",
"31 32 OFFCURVE",
"40 15 OFFCURVE",
"55 0 CURVE",
"272 0 LINE",
"288 15 OFFCURVE",
"296 32 OFFCURVE",
"296 54 CURVE",
"263 54 OFFCURVE",
"250 69 OFFCURVE",
"250 108 CURVE SMOOTH",
"250 411 LINE",
"268 433 OFFCURVE",
"295 446 OFFCURVE",
"321 446 CURVE SMOOTH",
"356 446 OFFCURVE",
"384 422 OFFCURVE",
"384 379 CURVE SMOOTH",
"384 108 LINE SMOOTH",
"384 69 OFFCURVE",
"371 54 OFFCURVE",
"337 54 CURVE {name = hr03;}",
"337 32 OFFCURVE",
"346 15 OFFCURVE",
"360 0 CURVE",
"573 0 LINE",
"588 15 OFFCURVE",
"597 32 OFFCURVE",
"597 54 CURVE",
"562 54 OFFCURVE",
"547 69 OFFCURVE",
"547 108 CURVE SMOOTH",
"547 407 LINE SMOOTH",
"547 412 OFFCURVE",
"547 417 OFFCURVE",
"546 422 CURVE",
"563 438 OFFCURVE",
"584 446 OFFCURVE",
"606 446 CURVE SMOOTH {name = hr02;}",
"644 446 OFFCURVE",
"670 422 OFFCURVE",
"670 379 CURVE SMOOTH",
"670 38 LINE SMOOTH",
"670 -4 OFFCURVE",
"711 -14 OFFCURVE",
"760 -14 CURVE SMOOTH",
"822 -14 OFFCURVE",
"859 -2 OFFCURVE",
"883 19 CURVE",
"883 48 LINE",
"852 54 OFFCURVE",
"834 69 OFFCURVE",
"834 100 CURVE SMOOTH"
);
}
);
width = 902;
}
);
leftKerningGroup = n;
leftMetricsKey = n;
rightKerningGroup = n;
rightMetricsKey = n;
unicode = 006D;
},
{
color = 5;
glyphname = n;
lastChange = "2018-06-15 18:30:29 +0000";
layers = (
{
anchors = (
{
name = btm;
position = "{325, -3}";
},
{
name = top;
position = "{319, 822}";
}
);
layerId = "184835E3-72D9-430C-A639-2454AC4A0BE8";
paths = (
{
closed = 1;
nodes = (
"543 500 OFFCURVE",
"495 543 OFFCURVE",
"402 543 CURVE SMOOTH",
"326 543 OFFCURVE",
"269 507 OFFCURVE",
"238 458 CURVE",
"241 400 LINE",
"258 428 OFFCURVE",
"286 446 OFFCURVE",
"319 446 CURVE SMOOTH",
"353 446 OFFCURVE",
"381 428 OFFCURVE",
"381 373 CURVE SMOOTH",
"381 61 LINE SMOOTH",
"381 14 OFFCURVE",
"417 -6 OFFCURVE",
"474 -6 CURVE SMOOTH",
"517 -6 OFFCURVE",
"571 6 OFFCURVE",
"592 27 CURVE",
"591 56 LINE",
"560 62 OFFCURVE",
"543 81 OFFCURVE",
"543 114 CURVE SMOOTH",
"543 387 LINE SMOOTH {name = hr00;}"
);
},
{
closed = 1;
nodes = (
"297 15 OFFCURVE",
"305 32 OFFCURVE",
"305 53 CURVE",
"265 53 OFFCURVE",
"250 69 OFFCURVE",
"250 108 CURVE SMOOTH",
"250 455 LINE SMOOTH",
"250 528 OFFCURVE",
"230 543 OFFCURVE",
"199 543 CURVE SMOOTH",
"163 543 OFFCURVE",
"66 521 OFFCURVE",
"20 495 CURVE",
"20 450 LINE",
"71 450 OFFCURVE",
"87 435 OFFCURVE",
"87 400 CURVE SMOOTH",
"87 108 LINE SMOOTH",
"87 69 OFFCURVE",
"71 53 OFFCURVE",
"31 53 CURVE",
"31 32 OFFCURVE",
"40 15 OFFCURVE",
"55 0 CURVE",
"282 0 LINE"
);
}
);
width = 611;
}
);
leftKerningGroup = n;
rightKerningGroup = n;
unicode = 006E;
},
{
glyphname = eng;
lastChange = "2018-06-15 18:32:28 +0000";
layers = (
{
layerId = "184835E3-72D9-430C-A639-2454AC4A0BE8";
paths = (
{
closed = 1;
nodes = (
"297 15 OFFCURVE",
"305 37 OFFCURVE",
"305 58 CURVE",
"266 58 OFFCURVE",
"250 73 OFFCURVE",
"250 113 CURVE SMOOTH",
"250 455 LINE SMOOTH",
"250 528 OFFCURVE",
"231 544 OFFCURVE",
"199 544 CURVE SMOOTH",
"163 544 OFFCURVE",
"67 522 OFFCURVE",
"20 496 CURVE",
"20 451 LINE",
"71 451 OFFCURVE",
"87 436 OFFCURVE",
"87 401 CURVE SMOOTH",
"87 113 LINE SMOOTH",
"87 74 OFFCURVE",
"71 58 OFFCURVE",
"32 58 CURVE",
"32 37 OFFCURVE",
"40 15 OFFCURVE",
"55 0 CURVE",
"282 0 LINE {name = hr00;}"
);
},
{
closed = 1;
nodes = (
"467 -196 OFFCURVE",
"544 -137 OFFCURVE",
"544 -9 CURVE SMOOTH",
"543 408 LINE SMOOTH",
"543 496 OFFCURVE",
"496 544 OFFCURVE",
"402 544 CURVE SMOOTH",
"327 544 OFFCURVE",
"270 514 OFFCURVE",
"238 464 CURVE",
"240 401 LINE",
"257 427 OFFCURVE",
"286 446 OFFCURVE",
"320 446 CURVE SMOOTH",
"353 446 OFFCURVE",
"379 422 OFFCURVE",
"379 379 CURVE SMOOTH",
"380 -2 LINE SMOOTH",
"380 -85 OFFCURVE",
"351 -112 OFFCURVE",
"299 -112 CURVE",
"293 -119 OFFCURVE",
"290 -133 OFFCURVE",
"290 -142 CURVE SMOOTH",
"290 -166 OFFCURVE",
"317 -196 OFFCURVE",
"379 -196 CURVE SMOOTH"
);
}
);
width = 561;
}
);
leftKerningGroup = n;
leftMetricsKey = n;
rightKerningGroup = j;
unicode = 014B;
},
{
glyphname = o;
lastChange = "2018-06-13 04:17:35 +0000";
layers = (
{
anchors = (
{
name = btm;
position = "{278, -5}";
},
{
name = top;
position = "{270, 822}";
}
);
layerId = "184835E3-72D9-430C-A639-2454AC4A0BE8";
paths = (
{
closed = 1;
nodes = (
"416 -13 OFFCURVE",
"520 84 OFFCURVE",
"520 271 CURVE SMOOTH",
"520 448 OFFCURVE",
"421 543 OFFCURVE",
"278 543 CURVE SMOOTH",
"129 543 OFFCURVE",
"26 443 OFFCURVE",
"26 255 CURVE SMOOTH",
"26 79 OFFCURVE",
"125 -13 OFFCURVE",
"268 -13 CURVE SMOOTH"
);
},
{
closed = 1;
nodes = (
"230 59 OFFCURVE",
"200 96 OFFCURVE",
"200 282 CURVE SMOOTH {name = hr00;}",
"200 438 OFFCURVE",
"227 472 OFFCURVE",
"270 472 CURVE SMOOTH",
"316 472 OFFCURVE",
"345 435 OFFCURVE",
"345 247 CURVE SMOOTH",
"345 93 OFFCURVE",
"318 59 OFFCURVE",
"276 59 CURVE SMOOTH"
);
}
);
width = 546;
}
);
leftKerningGroup = o;
rightKerningGroup = o;
unicode = 006F;
},
{
glyphname = ohorn;
lastChange = "2018-06-13 17:34:45 +0000";
layers = (
{
components = (
{
name = o;
}
);
layerId = "184835E3-72D9-430C-A639-2454AC4A0BE8";
paths = (
{
closed = 1;
nodes = (
"310 540 LINE",
"398 470 LINE",
"455 470 LINE SMOOTH {name = hr01;}",
"497 470 OFFCURVE",
"558 494 OFFCURVE",
"558 563 CURVE SMOOTH",
"558 597 OFFCURVE",
"550 620 OFFCURVE",
"522 642 CURVE",
"461 642 LINE",
"475 553 OFFCURVE",
"438 539 OFFCURVE",
"391 539 CURVE"
);
}
);
width = 548;
}
);
leftKerningGroup = o;
rightKerningGroup = o;
unicode = 01A1;
},
{
color = 4;
glyphname = oogonek;
lastChange = "2018-06-13 17:34:51 +0000";
layers = (
{
components = (
{
name = o;
}
);
layerId = "184835E3-72D9-430C-A639-2454AC4A0BE8";
paths = (
{
closed = 1;
nodes = (
"359 42 LINE",
"310 42 OFFCURVE",
"166 -2 OFFCURVE",
"166 -122 CURVE SMOOTH",
"166 -204 OFFCURVE",
"234 -235 OFFCURVE",
"296 -235 CURVE SMOOTH",
"343 -235 OFFCURVE",
"384 -220 OFFCURVE",
"401 -203 CURVE SMOOTH",
"415 -189 OFFCURVE",
"419 -170 OFFCURVE",
"419 -151 CURVE SMOOTH",
"419 -139 OFFCURVE",
"417 -122 OFFCURVE",
"411 -113 CURVE",
"399 -123 OFFCURVE",
"371 -131 OFFCURVE",
"343 -131 CURVE SMOOTH",
"312 -131 OFFCURVE",
"280 -121 OFFCURVE",
"280 -92 CURVE SMOOTH",
"280 -48 OFFCURVE",
"310 -9 OFFCURVE",
"371 6 CURVE"
);
}
);
width = 548;
}
);
leftKerningGroup = o;
rightKerningGroup = o;
unicode = 01EB;
},
{
color = 4;
glyphname = oslash;
lastChange = "2018-06-13 17:34:52 +0000";
layers = (
{
anchors = (
{
name = _vslash;
position = "{27, 224}";
},
{
name = top;
position = "{270, 822}";
}
);
components = (
{
name = o;
}
);
layerId = "184835E3-72D9-430C-A639-2454AC4A0BE8";
paths = (
{
closed = 1;
nodes = (
"105 -16 LINE",
"180 85 LINE",
"201 113 LINE",
"371 376 LINE",
"405 407 LINE",
"510 546 LINE",
"435 546 LINE",
"371 458 LINE",
"343 426 LINE",
"167 153 LINE",
"132 120 LINE",
"31 -16 LINE"
);
}
);
width = 546;
}
);
leftKerningGroup = o;
leftMetricsKey = o;
rightKerningGroup = o;
rightMetricsKey = o;
unicode = 00F8;
},
{
glyphname = oe;
lastChange = "2018-06-13 04:17:48 +0000";
layers = (
{
anchors = (
{
name = btm;
position = "{409, -5}";
},
{
name = top;
position = "{409, 970}";
}
);
layerId = "184835E3-72D9-430C-A639-2454AC4A0BE8";
paths = (
{
closed = 1;
nodes = (
"407 -15 OFFCURVE",
"492 84 OFFCURVE",
"492 271 CURVE SMOOTH",
"492 448 OFFCURVE",
"422 543 OFFCURVE",
"279 543 CURVE SMOOTH",
"129 543 OFFCURVE",
"26 443 OFFCURVE",
"26 255 CURVE SMOOTH",
"26 79 OFFCURVE",
"125 -15 OFFCURVE",
"268 -15 CURVE SMOOTH"
);
},
{
closed = 1;
nodes = (
"231 57 OFFCURVE",
"202 94 OFFCURVE",
"202 282 CURVE SMOOTH {name = hr00;}",
"202 438 OFFCURVE",
"228 472 OFFCURVE",
"270 472 CURVE SMOOTH",
"316 472 OFFCURVE",
"345 435 OFFCURVE",
"345 247 CURVE SMOOTH",
"345 91 OFFCURVE",
"319 57 OFFCURVE",
"277 57 CURVE SMOOTH"
);
},
{
closed = 1;
nodes = (
"727 111 OFFCURVE",
"690 96 OFFCURVE",
"645 96 CURVE SMOOTH",
"570 96 OFFCURVE",
"519 140 OFFCURVE",
"519 265 CURVE SMOOTH",
"519 307 LINE SMOOTH",
"519 439 OFFCURVE",
"556 474 OFFCURVE",
"593 474 CURVE SMOOTH",
"622 474 OFFCURVE",
"647 454 OFFCURVE",
"647 369 CURVE SMOOTH",
"647 343 OFFCURVE",
"644 324 OFFCURVE",
"621 324 CURVE SMOOTH",
"466 324 LINE",
"463 248 LINE",
"730 248 LINE SMOOTH",
"783 248 OFFCURVE",
"795 292 OFFCURVE",
"795 343 CURVE SMOOTH",
"795 470 OFFCURVE",
"722 543 OFFCURVE",
"603 543 CURVE SMOOTH",
"458 543 OFFCURVE",
"352 436 OFFCURVE",
"352 261 CURVE SMOOTH",
"352 92 OFFCURVE",
"447 -15 OFFCURVE",
"596 -15 CURVE SMOOTH",
"711 -15 OFFCURVE",
"781 51 OFFCURVE",
"781 84 CURVE SMOOTH",
"781 98 OFFCURVE",
"773 125 OFFCURVE",
"762 136 CURVE {name = hr00;}"
);
}
);
width = 819;
}
);
leftKerningGroup = o;
leftMetricsKey = o;
rightKerningGroup = e;
rightMetricsKey = e;
unicode = 0153;
},
{
color = 5;
glyphname = p;
lastChange = "2018-06-15 03:28:17 +0000";
layers = (
{
anchors = (
{
name = btm;
position = "{276, -100}";
},
{
name = top;
position = "{320, 822}";
}
);
background = {
paths = (
{
closed = 1;
nodes = (
"266 542 OFFCURVE",
"229 531 OFFCURVE",
"202 503 CURVE",
"205 598 LINE",
"205 730 LINE SMOOTH",
"205 763 OFFCURVE",
"193 776 OFFCURVE",
"161 776 CURVE SMOOTH",
"118 776 OFFCURVE",
"28 750 OFFCURVE",
"-17 719 CURVE",
"-17 687 LINE",
"27 687 OFFCURVE",
"44 668 OFFCURVE",
"44 638 CURVE SMOOTH",
"44 24 LINE",
"91 1 OFFCURVE",
"191 -16 OFFCURVE",
"250 -16 CURVE SMOOTH",
"399 -16 OFFCURVE",
"518 93 OFFCURVE",
"518 285 CURVE SMOOTH",
"518 460 OFFCURVE",
"422 542 OFFCURVE",
"312 542 CURVE SMOOTH"
);
},
{
closed = 1;
nodes = (
"234 57 OFFCURVE",
"218 63 OFFCURVE",
"205 76 CURVE",
"205 446 LINE",
"215 453 OFFCURVE",
"228 457 OFFCURVE",
"243 457 CURVE SMOOTH",
"304 457 OFFCURVE",
"351 397 OFFCURVE",
"351 251 CURVE SMOOTH",
"351 108 OFFCURVE",
"307 57 OFFCURVE",
"253 57 CURVE SMOOTH"
);
}
);
};
layerId = "184835E3-72D9-430C-A639-2454AC4A0BE8";
paths = (
{
closed = 1;
nodes = (
"420 -11 OFFCURVE",
"540 99 OFFCURVE",
"540 290 CURVE SMOOTH",
"540 459 OFFCURVE",
"446 540 OFFCURVE",
"340 540 CURVE SMOOTH",
"293 540 OFFCURVE",
"249 529 OFFCURVE",
"219 500 CURVE",
"211 532 OFFCURVE",
"192 540 OFFCURVE",
"166 540 CURVE SMOOTH",
"131 540 OFFCURVE",
"50 518 OFFCURVE",
"6 492 CURVE",
"6 447 LINE",
"57 447 OFFCURVE",
"73 432 OFFCURVE",
"73 397 CURVE SMOOTH",
"73 -82 LINE SMOOTH",
"73 -121 OFFCURVE",
"66 -137 OFFCURVE",
"26 -137 CURVE",
"26 -159 OFFCURVE",
"35 -175 OFFCURVE",
"50 -190 CURVE",
"273 -190 LINE",
"288 -175 OFFCURVE",
"296 -159 OFFCURVE",
"296 -137 CURVE",
"266 -137 OFFCURVE",
"232 -121 OFFCURVE",
"232 -82 CURVE SMOOTH",
"232 -9 LINE",
"247 -10 OFFCURVE",
"260 -11 OFFCURVE",
"271 -11 CURVE SMOOTH"
);
},
{
closed = 1;
nodes = (
"369 122 OFFCURVE",
"324 62 OFFCURVE",
"270 62 CURVE SMOOTH",
"256 62 OFFCURVE",
"244 65 OFFCURVE",
"232 72 CURVE",
"232 445 LINE",
"240 449 OFFCURVE",
"250 451 OFFCURVE",
"260 451 CURVE SMOOTH",
"320 451 OFFCURVE",
"369 404 OFFCURVE",
"369 266 CURVE SMOOTH"
);
}
);
width = 568;
}
);
leftKerningGroup = p;
leftMetricsKey = b;
rightKerningGroup = o;
rightMetricsKey = b;
unicode = 0070;
},
{
color = 5;
glyphname = thorn;
lastChange = "2018-06-15 18:31:02 +0000";
layers = (
{
anchors = (
{
name = btm;
position = "{462, -270}";
},
{
name = top;
position = "{462, 664}";
}
);
layerId = "184835E3-72D9-430C-A639-2454AC4A0BE8";
paths = (
{
closed = 1;
nodes = (
"419 -8 OFFCURVE",
"541 91 OFFCURVE",
"541 283 CURVE SMOOTH",
"541 458 OFFCURVE",
"442 540 OFFCURVE",
"332 540 CURVE SMOOTH",
"286 540 OFFCURVE",
"246 529 OFFCURVE",
"219 501 CURVE",
"222 596 LINE",
"222 738 LINE SMOOTH",
"222 771 OFFCURVE",
"210 784 OFFCURVE",
"178 784 CURVE SMOOTH",
"135 784 OFFCURVE",
"51 758 OFFCURVE",
"6 727 CURVE",
"6 695 LINE",
"50 695 OFFCURVE",
"67 676 OFFCURVE",
"67 646 CURVE SMOOTH",
"67 -82 LINE",
"67 -121 OFFCURVE",
"62 -137 OFFCURVE",
"22 -137 CURVE",
"22 -159 OFFCURVE",
"31 -175 OFFCURVE",
"46 -190 CURVE",
"269 -190 LINE",
"284 -175 OFFCURVE",
"292 -159 OFFCURVE",
"292 -137 CURVE",
"262 -137 OFFCURVE",
"222 -121 OFFCURVE",
"222 -82 CURVE SMOOTH",
"222 -6 LINE",
"239 -7 OFFCURVE",
"255 -8 OFFCURVE",
"270 -8 CURVE SMOOTH"
);
},
{
closed = 1;
nodes = (
"232 451 OFFCURVE",
"248 455 OFFCURVE",
"263 455 CURVE SMOOTH",
"324 455 OFFCURVE",
"371 395 OFFCURVE",
"371 249 CURVE SMOOTH",
"371 106 OFFCURVE",
"327 65 OFFCURVE",
"273 65 CURVE SMOOTH",
"254 65 OFFCURVE",
"235 71 OFFCURVE",
"222 84 CURVE",
"222 444 LINE"
);
}
);
width = 569;
}
);
leftKerningGroup = h;
leftMetricsKey = b;
rightKerningGroup = o;
rightMetricsKey = b;
unicode = 00FE;
},
{
color = 5;
glyphname = q;
lastChange = "2018-06-13 04:17:23 +0000";
layers = (
{
anchors = (
{
name = btm;
position = "{289, -112}";
},
{
name = top;
position = "{289, 863}";
}
);
layerId = "184835E3-72D9-430C-A639-2454AC4A0BE8";
paths = (
{
closed = 1;
nodes = (
"502 409 LINE SMOOTH {name = hr00;}",
"502 449 OFFCURVE",
"504 465 OFFCURVE",
"544 465 CURVE",
"544 487 OFFCURVE",
"536 510 OFFCURVE",
"520 525 CURVE",
"455 525 LINE SMOOTH",
"439 525 OFFCURVE",
"426 523 OFFCURVE",
"412 520 CURVE",
"375 532 OFFCURVE",
"334 540 OFFCURVE",
"294 540 CURVE SMOOTH",
"145 540 OFFCURVE",
"28 430 OFFCURVE",
"28 239 CURVE SMOOTH",
"28 68 OFFCURVE",
"126 -13 OFFCURVE",
"236 -13 CURVE SMOOTH",
"279 -13 OFFCURVE",
"315 -2 OFFCURVE",
"341 24 CURVE",
"341 -166 LINE SMOOTH",
"341 -208 OFFCURVE",
"379 -218 OFFCURVE",
"428 -218 CURVE SMOOTH",
"490 -218 OFFCURVE",
"527 -206 OFFCURVE",
"551 -184 CURVE",
"551 -157 LINE",
"520 -150 OFFCURVE",
"502 -135 OFFCURVE",
"502 -103 CURVE SMOOTH"
);
},
{
closed = 1;
nodes = (
"245 74 OFFCURVE",
"198 135 OFFCURVE",
"198 273 CURVE SMOOTH",
"198 420 OFFCURVE",
"241 468 OFFCURVE",
"295 468 CURVE SMOOTH",
"312 468 OFFCURVE",
"328 464 OFFCURVE",
"341 455 CURVE",
"341 83 LINE",
"332 78 OFFCURVE",
"320 74 OFFCURVE",
"305 74 CURVE SMOOTH"
);
}
);
width = 561;
}
);
leftKerningGroup = o;
leftMetricsKey = d;
rightKerningGroup = q;
rightMetricsKey = d;
unicode = 0071;
},
{
color = 1;
glyphname = r;
lastChange = "2018-06-14 04:15:22 +0000";
layers = (
{
anchors = (
{
name = btm;
position = "{181, 0}";
},
{
name = top;
position = "{263, 822}";
}
);
layerId = "184835E3-72D9-430C-A639-2454AC4A0BE8";
paths = (
{
closed = 1;
nodes = (
"303 460 OFFCURVE",
"298 451 OFFCURVE",
"298 424 CURVE SMOOTH",
"298 391 OFFCURVE",
"326 360 OFFCURVE",
"372 360 CURVE SMOOTH",
"424 360 OFFCURVE",
"455 400 OFFCURVE",
"455 457 CURVE SMOOTH",
"455 508 OFFCURVE",
"430 543 OFFCURVE",
"368 543 CURVE SMOOTH",
"305 543 OFFCURVE",
"243 489 OFFCURVE",
"226 444 CURVE",
"197 362 LINE",
"244 442 OFFCURVE",
"285 449 OFFCURVE",
"335 453 CURVE",
"317 468 LINE {name = hr00;}"
);
},
{
closed = 1;
nodes = (
"231 453 LINE",
"231 525 OFFCURVE",
"218 540 OFFCURVE",
"187 540 CURVE SMOOTH",
"150 540 OFFCURVE",
"62 519 OFFCURVE",
"15 492 CURVE",
"15 447 LINE",
"66 447 OFFCURVE",
"81 433 OFFCURVE",
"81 398 CURVE SMOOTH",
"81 109 LINE SMOOTH",
"81 69 OFFCURVE",
"66 54 OFFCURVE",
"27 54 CURVE",
"27 31 OFFCURVE",
"35 15 OFFCURVE",
"50 0 CURVE",
"317 0 LINE",
"332 15 OFFCURVE",
"336 31 OFFCURVE",
"336 54 CURVE",
"254 54 OFFCURVE",
"240 72 OFFCURVE",
"240 118 CURVE SMOOTH",
"240 437 LINE"
);
}
);
width = 450;
}
);
leftKerningGroup = n;
rightKerningGroup = r;
unicode = 0072;
},
{
glyphname = s;
lastChange = "2018-06-15 18:31:26 +0000";
layers = (
{
anchors = (
{
name = btm;
position = "{238, 0}";
},
{
name = top;
position = "{247, 822}";
}
);
layerId = "184835E3-72D9-430C-A639-2454AC4A0BE8";
paths = (
{
closed = 1;
nodes = (
"343 -10 OFFCURVE",
"452 31 OFFCURVE",
"452 143 CURVE SMOOTH",
"452 246 OFFCURVE",
"369 286 OFFCURVE",
"296 324 CURVE SMOOTH",
"242 352 OFFCURVE",
"191 377 OFFCURVE",
"191 423 CURVE SMOOTH",
"191 452 OFFCURVE",
"215 476 OFFCURVE",
"259 476 CURVE SMOOTH",
"285 476 OFFCURVE",
"304 472 OFFCURVE",
"319 460 CURVE",
"309 448 OFFCURVE",
"304 427 OFFCURVE",
"304 411 CURVE SMOOTH",
"304 377 OFFCURVE",
"333 355 OFFCURVE",
"367 355 CURVE SMOOTH",
"404 355 OFFCURVE",
"434 382 OFFCURVE",
"434 423 CURVE SMOOTH",
"434 480 OFFCURVE",
"382 540 OFFCURVE",
"242 540 CURVE SMOOTH",
"107 540 OFFCURVE",
"31 476 OFFCURVE",
"31 388 CURVE SMOOTH",
"31 283 OFFCURVE",
"116 243 OFFCURVE",
"190 203 CURVE SMOOTH",
"244 174 OFFCURVE",
"295 148 OFFCURVE",
"295 108 CURVE SMOOTH",
"295 82 OFFCURVE",
"268 63 OFFCURVE",
"222 63 CURVE SMOOTH",
"192 63 OFFCURVE",
"157 68 OFFCURVE",
"145 80 CURVE",
"156 94 OFFCURVE",
"161 105 OFFCURVE",
"161 123 CURVE SMOOTH",
"161 162 OFFCURVE",
"131 188 OFFCURVE",
"94 188 CURVE SMOOTH",
"53 188 OFFCURVE",
"23 157 OFFCURVE",
"23 110 CURVE SMOOTH",
"23 33 OFFCURVE",
"136 -10 OFFCURVE",
"231 -10 CURVE SMOOTH {name = hr00;}"
);
}
);
width = 475;
}
);
leftKerningGroup = s;
rightKerningGroup = s;
unicode = 0073;
},
{
color = 4;
glyphname = germandbls;
lastChange = "2018-06-15 03:03:37 +0000";
layers = (
{
anchors = (
{
name = btm;
position = "{327, -5}";
},
{
name = top;
position = "{327, 970}";
}
);
layerId = "184835E3-72D9-430C-A639-2454AC4A0BE8";
paths = (
{
closed = 1;
nodes = (
"102 539 LINE",
"80 522 OFFCURVE",
"57 506 OFFCURVE",
"20 496 CURVE",
"20 434 LINE",
"81 434 LINE",
"81 108 LINE SMOOTH",
"81 68 OFFCURVE",
"65 53 OFFCURVE",
"26 53 CURVE",
"26 31 OFFCURVE",
"34 10 OFFCURVE",
"50 -5 CURVE",
"243 -5 LINE",
"243 592 LINE SMOOTH",
"243 682 OFFCURVE",
"300 711 OFFCURVE",
"338 711 CURVE SMOOTH",
"380 711 OFFCURVE",
"407 684 OFFCURVE",
"407 645 CURVE SMOOTH {name = hr02;}",
"407 546 OFFCURVE",
"328 523 OFFCURVE",
"328 426 CURVE SMOOTH",
"328 251 OFFCURVE",
"494 230 OFFCURVE",
"494 103 CURVE SMOOTH {name = hr03;}",
"494 72 OFFCURVE",
"478 54 OFFCURVE",
"444 54 CURVE SMOOTH",
"422 54 OFFCURVE",
"407 62 OFFCURVE",
"397 73 CURVE",
"407 84 OFFCURVE",
"414 101 OFFCURVE",
"414 119 CURVE SMOOTH",
"414 155 OFFCURVE",
"390 181 OFFCURVE",
"358 181 CURVE SMOOTH",
"315 181 OFFCURVE",
"288 146 OFFCURVE",
"288 103 CURVE SMOOTH",
"288 42 OFFCURVE",
"341 -15 OFFCURVE",
"447 -15 CURVE SMOOTH",
"543 -15 OFFCURVE",
"639 26 OFFCURVE",
"639 151 CURVE SMOOTH",
"639 337 OFFCURVE",
"486 342 OFFCURVE",
"486 469 CURVE SMOOTH",
"486 526 OFFCURVE",
"545 553 OFFCURVE",
"545 636 CURVE SMOOTH {name = hr04;}",
"545 738 OFFCURVE",
"471 782 OFFCURVE",
"355 782 CURVE SMOOTH",
"210 782 OFFCURVE",
"91 679 OFFCURVE",
"91 489 CURVE",
"119 495 LINE {name = hr01;}"
);
}
);
width = 657;
}
);
leftKerningGroup = h;
leftMetricsKey = n;
rightKerningGroup = germandbls;
unicode = 00DF;
},
{
color = 1;
glyphname = t;
lastChange = "2018-06-15 16:56:29 +0000";
layers = (
{
anchors = (
{
name = btm;
position = "{222, 0}";
},
{
name = car;
position = "{314, 712}";
},
{
name = top;
position = "{170, 939}";
}
);
background = {
paths = (
{
closed = 1;
nodes = (
"516 978 LINE",
"551 1031 OFFCURVE",
"554 1111 OFFCURVE",
"554 1177 CURVE",
"349 1177 LINE SMOOTH",
"301 1177 OFFCURVE",
"273 1281 OFFCURVE",
"273 1416 CURVE SMOOTH",
"273 1541 OFFCURVE",
"334 1612 OFFCURVE",
"409 1612 CURVE SMOOTH {name = hr02;}",
"432 1612 OFFCURVE",
"441 1601 OFFCURVE",
"444 1589 CURVE",
"410 1566 OFFCURVE",
"397 1518 OFFCURVE",
"397 1478 CURVE SMOOTH",
"397 1385 OFFCURVE",
"483 1326 OFFCURVE",
"572 1326 CURVE SMOOTH",
"680 1326 OFFCURVE",
"754 1417 OFFCURVE",
"754 1536 CURVE SMOOTH",
"754 1656 OFFCURVE",
"636 1805 OFFCURVE",
"402 1805 CURVE SMOOTH",
"134 1805 OFFCURVE",
"-48 1655 OFFCURVE",
"-48 1345 CURVE SMOOTH",
"-48 1268 OFFCURVE",
"-26 1212 OFFCURVE",
"-26 1103 CURVE",
"-1 1200 LINE",
"-49 1162 OFFCURVE",
"-78 1136 OFFCURVE",
"-162 1115 CURVE",
"-162 978 LINE {name = hr03;}",
"88 978 LINE",
"-26 1092 LINE",
"-26 242 LINE SMOOTH",
"-26 154 OFFCURVE",
"-60 120 OFFCURVE",
"-148 120 CURVE",
"-148 71 OFFCURVE",
"-130 34 OFFCURVE",
"-96 0 CURVE",
"492 0 LINE",
"525 34 OFFCURVE",
"544 71 OFFCURVE",
"544 120 CURVE",
"366 120 OFFCURVE",
"335 162 OFFCURVE",
"335 262 CURVE SMOOTH",
"335 1092 LINE {name = hr01;}",
"221 978 LINE {name = hr01;}"
);
}
);
};
layerId = "184835E3-72D9-430C-A639-2454AC4A0BE8";
paths = (
{
closed = 1;
nodes = (
"344 465 OFFCURVE",
"345 498 OFFCURVE",
"345 530 CURVE",
"229 530 LINE",
"229 635 LINE SMOOTH",
"229 662 OFFCURVE",
"211 701 OFFCURVE",
"158 701 CURVE SMOOTH",
"148 701 OFFCURVE",
"137 700 OFFCURVE",
"125 698 CURVE",
"115 609 OFFCURVE",
"63 510 OFFCURVE",
"10 502 CURVE",
"10 441 LINE",
"71 441 LINE",
"71 166 LINE SMOOTH",
"71 33 OFFCURVE",
"144 -7 OFFCURVE",
"228 -7 CURVE SMOOTH",
"324 -7 OFFCURVE",
"369 44 OFFCURVE",
"369 88 CURVE SMOOTH",
"369 100 OFFCURVE",
"365 129 OFFCURVE",
"350 141 CURVE",
"334 122 OFFCURVE",
"303 106 OFFCURVE",
"277 106 CURVE SMOOTH",
"250 106 OFFCURVE",
"231 116 OFFCURVE",
"231 159 CURVE SMOOTH",
"231 441 LINE",
"329 441 LINE {name = hr00;}"
);
}
);
width = 377;
}
);
leftKerningGroup = t;
rightKerningGroup = t;
unicode = 0074;
userData = {
com.typemytype.robofont.guides = (
{
angle = 0;
isGlobal = 0;
magnetic = 5;
x = 0;
y = -31;
}
);
};
},
{
glyphname = tbar;
lastChange = "2018-06-15 16:56:29 +0000";
layers = (
{
components = (
{
name = t;
}
);
guideLines = (
{
angle = 270;
position = "{350, 389}";
}
);
layerId = "184835E3-72D9-430C-A639-2454AC4A0BE8";
paths = (
{
closed = 1;
nodes = (
"12 335 OFFCURVE",
"10 317 OFFCURVE",
"10 298 CURVE SMOOTH",
"10 282 OFFCURVE",
"12 265 OFFCURVE",
"17 254 CURVE",
"336 254 LINE",
"348 273 OFFCURVE",
"350 318 OFFCURVE",
"350 344 CURVE",
"17 344 LINE {name = hr00;}"
);
}
);
width = 377;
}
);
leftKerningGroup = t;
leftMetricsKey = t;
rightKerningGroup = t;
rightMetricsKey = t;
unicode = 0167;
},
{
color = 1;
glyphname = u;
lastChange = "2018-06-15 18:29:55 +0000";
layers = (
{
anchors = (
{
name = btm;
position = "{319, 0}";
},
{
name = top;
position = "{292, 822}";
}
);
layerId = "184835E3-72D9-430C-A639-2454AC4A0BE8";
paths = (
{
closed = 1;
nodes = (
"349 26 OFFCURVE",
"389 -10 OFFCURVE",
"443 -10 CURVE SMOOTH",
"486 -10 OFFCURVE",
"538 3 OFFCURVE",
"560 28 CURVE",
"560 56 LINE",
"529 59 OFFCURVE",
"512 82 OFFCURVE",
"512 114 CURVE SMOOTH",
"512 482 LINE SMOOTH",
"512 529 OFFCURVE",
"497 535 OFFCURVE",
"445 535 CURVE SMOOTH",
"370 535 OFFCURVE",
"311 513 OFFCURVE",
"293 499 CURVE",
"293 455 LINE",
"328 455 OFFCURVE",
"349 447 OFFCURVE",
"349 424 CURVE",
"349 91 LINE SMOOTH {name = hr01;}"
);
},
{
closed = 1;
nodes = (
"68 52 OFFCURVE",
"122 -10 OFFCURVE",
"216 -10 CURVE SMOOTH",
"278 -10 OFFCURVE",
"328 17 OFFCURVE",
"360 69 CURVE",
"358 141 LINE",
"342 112 OFFCURVE",
"310 84 OFFCURVE",
"276 84 CURVE SMOOTH {name = hr02;}",
"243 84 OFFCURVE",
"231 106 OFFCURVE",
"231 146 CURVE SMOOTH",
"231 482 LINE SMOOTH",
"231 529 OFFCURVE",
"219 535 OFFCURVE",
"167 535 CURVE SMOOTH",
"97 535 OFFCURVE",
"36 513 OFFCURVE",
"19 499 CURVE",
"19 455 LINE",
"50 455 OFFCURVE",
"68 447 OFFCURVE",
"68 424 CURVE",
"68 149 LINE"
);
}
);
width = 572;
}
);
leftKerningGroup = u;
rightKerningGroup = u;
unicode = 0075;
},
{
glyphname = uhorn;
lastChange = "2018-06-15 03:29:35 +0000";
layers = (
{
components = (
{
name = u;
}
);
layerId = "184835E3-72D9-430C-A639-2454AC4A0BE8";
paths = (
{
closed = 1;
nodes = (
"434 470 LINE",
"491 470 LINE SMOOTH {name = hr01;}",
"533 470 OFFCURVE",
"594 494 OFFCURVE",
"594 563 CURVE SMOOTH",
"594 597 OFFCURVE",
"586 620 OFFCURVE",
"558 642 CURVE",
"497 642 LINE",
"511 553 OFFCURVE",
"481 539 OFFCURVE",
"434 539 CURVE"
);
}
);
width = 574;
}
);
leftKerningGroup = u;
rightKerningGroup = uhorn;
unicode = 01B0;
},
{
color = 4;
glyphname = uogonek;
lastChange = "2018-06-15 03:29:39 +0000";
layers = (
{
components = (
{
name = u;
}
);
layerId = "184835E3-72D9-430C-A639-2454AC4A0BE8";
paths = (
{
closed = 1;
nodes = (
"497 38 LINE",
"448 38 OFFCURVE",
"304 -6 OFFCURVE",
"304 -126 CURVE SMOOTH",
"304 -208 OFFCURVE",
"372 -239 OFFCURVE",
"434 -239 CURVE SMOOTH",
"481 -239 OFFCURVE",
"522 -224 OFFCURVE",
"539 -207 CURVE SMOOTH",
"553 -193 OFFCURVE",
"557 -174 OFFCURVE",
"557 -155 CURVE SMOOTH",
"557 -143 OFFCURVE",
"555 -126 OFFCURVE",
"549 -117 CURVE",
"537 -127 OFFCURVE",
"509 -135 OFFCURVE",
"481 -135 CURVE SMOOTH",
"450 -135 OFFCURVE",
"418 -125 OFFCURVE",
"418 -96 CURVE SMOOTH",
"418 -52 OFFCURVE",
"448 -13 OFFCURVE",
"509 2 CURVE"
);
}
);
width = 574;
}
);
leftKerningGroup = u;
rightKerningGroup = u;
unicode = 0173;
},
{
color = 4;
glyphname = v;
lastChange = "2018-06-15 16:59:31 +0000";
layers = (
{
anchors = (
{
name = btm;
position = "{261, -2}";
},
{
name = top;
position = "{261, 973}";
}
);
layerId = "184835E3-72D9-430C-A639-2454AC4A0BE8";
paths = (
{
closed = 1;
nodes = (
"198 412 OFFCURVE",
"196 420 OFFCURVE",
"196 426 CURVE SMOOTH",
"196 457 OFFCURVE",
"216 471 OFFCURVE",
"243 471 CURVE",
"243 492 OFFCURVE",
"235 516 OFFCURVE",
"220 531 CURVE",
"-8 531 LINE",
"-23 516 OFFCURVE",
"-29 492 OFFCURVE",
"-29 471 CURVE",
"6 471 OFFCURVE",
"16 455 OFFCURVE",
"29 419 CURVE SMOOTH",
"187 -7 LINE",
"291 -7 LINE SMOOTH",
"351 -7 OFFCURVE",
"372 26 OFFCURVE",
"393 100 CURVE",
"497 419 LINE SMOOTH",
"509 455 OFFCURVE",
"522 471 OFFCURVE",
"557 471 CURVE",
"557 492 OFFCURVE",
"552 516 OFFCURVE",
"537 531 CURVE",
"343 531 LINE",
"328 516 OFFCURVE",
"324 492 OFFCURVE",
"324 471 CURVE",
"356 471 OFFCURVE",
"376 457 OFFCURVE",
"376 429 CURVE SMOOTH",
"376 422 OFFCURVE",
"374 413 OFFCURVE",
"372 405 CURVE SMOOTH",
"333 269 LINE",
"287 94 LINE",
"241 269 LINE",
"200 405 LINE SMOOTH {name = hr00;}"
);
}
);
width = 528;
}
);
leftKerningGroup = v;
rightKerningGroup = v;
unicode = 0076;
},
{
color = 5;
glyphname = w;
lastChange = "2018-06-15 16:59:43 +0000";
layers = (
{
anchors = (
{
name = btm;
position = "{400, -2}";
},
{
name = top;
position = "{417, 822}";
}
);
background = {
paths = (
{
closed = 1;
nodes = (
"262 -7 LINE SMOOTH",
"325 -7 OFFCURVE",
"339 24 OFFCURVE",
"357 100 CURVE SMOOTH",
"440 455 LINE",
"346 455 LINE",
"248 60 LINE",
"271 61 LINE",
"178 411 LINE SMOOTH",
"175 422 OFFCURVE",
"175 430 OFFCURVE",
"175 438 CURVE SMOOTH",
"175 462 OFFCURVE",
"188 471 OFFCURVE",
"214 471 CURVE",
"214 492 OFFCURVE",
"210 516 OFFCURVE",
"194 531 CURVE",
"-25 531 LINE",
"-40 516 OFFCURVE",
"-44 492 OFFCURVE",
"-44 471 CURVE",
"-7 471 OFFCURVE",
"12 461 OFFCURVE",
"23 425 CURVE SMOOTH",
"159 -7 LINE {name = hr00;}"
);
},
{
closed = 1;
nodes = (
"494 439 OFFCURVE",
"493 448 OFFCURVE",
"493 455 CURVE",
"346 455 LINE",
"481 -7 LINE",
"576 -7 LINE SMOOTH",
"641 -7 OFFCURVE",
"654 26 OFFCURVE",
"676 102 CURVE SMOOTH",
"768 425 LINE SMOOTH",
"778 461 OFFCURVE",
"798 471 OFFCURVE",
"835 471 CURVE",
"835 492 OFFCURVE",
"831 516 OFFCURVE",
"815 531 CURVE",
"634 531 LINE",
"619 516 OFFCURVE",
"615 492 OFFCURVE",
"615 471 CURVE",
"641 471 OFFCURVE",
"655 462 OFFCURVE",
"655 438 CURVE SMOOTH",
"655 430 OFFCURVE",
"653 422 OFFCURVE",
"651 411 CURVE SMOOTH",
"576 60 LINE",
"597 60 LINE",
"497 429 LINE SMOOTH"
);
}
);
};
layerId = "184835E3-72D9-430C-A639-2454AC4A0BE8";
paths = (
{
closed = 1;
nodes = (
"614 531 LINE",
"599 516 OFFCURVE",
"595 492 OFFCURVE",
"595 471 CURVE",
"621 471 OFFCURVE",
"635 462 OFFCURVE",
"635 438 CURVE SMOOTH",
"635 430 OFFCURVE",
"634 422 OFFCURVE",
"631 411 CURVE SMOOTH",
"598 270 LINE",
"565 66 LINE",
"596 67 LINE",
"532 270 LINE",
"480 484 LINE",
"403 485 LINE",
"355 485 OFFCURVE",
"342 435 OFFCURVE",
"326 373 CURVE",
"297 269 LINE",
"230 54 LINE",
"269 52 LINE",
"223 269 LINE",
"197 405 LINE {name = hr00;}",
"196 412 OFFCURVE",
"193 420 OFFCURVE",
"193 426 CURVE SMOOTH",
"193 457 OFFCURVE",
"213 471 OFFCURVE",
"240 471 CURVE",
"240 492 OFFCURVE",
"232 516 OFFCURVE",
"217 531 CURVE",
"-8 531 LINE",
"-23 516 OFFCURVE",
"-29 492 OFFCURVE",
"-29 471 CURVE",
"6 471 OFFCURVE",
"17 455 OFFCURVE",
"29 419 CURVE SMOOTH",
"165 -7 LINE",
"267 -7 LINE",
"267 -6 LINE",
"312 2 OFFCURVE",
"324 34 OFFCURVE",
"342 100 CURVE SMOOTH",
"396 293 LINE",
"490 -7 LINE",
"569 -7 LINE SMOOTH",
"634 -7 OFFCURVE",
"648 25 OFFCURVE",
"669 102 CURVE SMOOTH",
"758 425 LINE SMOOTH",
"768 461 OFFCURVE",
"788 471 OFFCURVE",
"825 471 CURVE",
"825 492 OFFCURVE",
"821 516 OFFCURVE",
"805 531 CURVE"
);
},
{
closed = 0;
nodes = (
"393 348 LINE {name = hr00;}"
);
}
);
width = 796;
}
);
leftKerningGroup = w;
rightKerningGroup = w;
unicode = 0077;
},
{
glyphname = x;
lastChange = "2018-06-15 03:29:54 +0000";
layers = (
{
anchors = (
{
name = btm;
position = "{277, 6}";
},
{
name = top;
position = "{277, 981}";
}
);
layerId = "184835E3-72D9-430C-A639-2454AC4A0BE8";
paths = (
{
closed = 1;
nodes = (
"240 429 OFFCURVE",
"235 441 OFFCURVE",
"235 450 CURVE SMOOTH",
"235 464 OFFCURVE",
"247 471 OFFCURVE",
"268 471 CURVE",
"268 493 OFFCURVE",
"265 517 OFFCURVE",
"248 531 CURVE",
"33 531 LINE",
"16 517 OFFCURVE",
"12 493 OFFCURVE",
"12 471 CURVE",
"49 471 OFFCURVE",
"56 442 OFFCURVE",
"78 410 CURVE",
"198 254 LINE",
"216 224 LINE",
"292 118 LINE",
"300 106 OFFCURVE",
"303 96 OFFCURVE",
"303 86 CURVE SMOOTH",
"303 70 OFFCURVE",
"290 58 OFFCURVE",
"263 58 CURVE",
"263 36 OFFCURVE",
"268 15 OFFCURVE",
"284 0 CURVE",
"518 0 LINE",
"533 15 OFFCURVE",
"543 36 OFFCURVE",
"543 58 CURVE",
"514 58 OFFCURVE",
"489 82 OFFCURVE",
"462 122 CURVE",
"334 299 LINE",
"307 330 LINE",
"249 414 LINE {name = hr00;}"
);
},
{
closed = 1;
nodes = (
"481 457 OFFCURVE",
"505 471 OFFCURVE",
"539 471 CURVE",
"539 493 OFFCURVE",
"535 517 OFFCURVE",
"518 531 CURVE",
"345 531 LINE",
"329 517 OFFCURVE",
"325 493 OFFCURVE",
"325 471 CURVE",
"339 471 OFFCURVE",
"356 463 OFFCURVE",
"356 444 CURVE SMOOTH",
"356 435 OFFCURVE",
"352 424 OFFCURVE",
"342 397 CURVE",
"262 298 LINE",
"302 239 LINE",
"452 420 LINE"
);
},
{
closed = 1;
nodes = (
"53 86 OFFCURVE",
"19 62 OFFCURVE",
"-10 58 CURVE",
"-10 36 OFFCURVE",
"0 15 OFFCURVE",
"15 0 CURVE",
"197 0 LINE",
"212 15 OFFCURVE",
"217 36 OFFCURVE",
"217 58 CURVE",
"188 58 OFFCURVE",
"171 73 OFFCURVE",
"171 94 CURVE SMOOTH",
"171 103 OFFCURVE",
"174 112 OFFCURVE",
"182 123 CURVE SMOOTH",
"297 283 LINE",
"237 320 LINE",
"72 112 LINE"
);
}
);
width = 541;
}
);
leftKerningGroup = x;
rightKerningGroup = x;
unicode = 0078;
},
{
glyphname = y;
lastChange = "2018-06-15 17:00:46 +0000";
layers = (
{
anchors = (
{
name = btm;
position = "{482, 59}";
},
{
name = top;
position = "{291, 822}";
}
);
layerId = "184835E3-72D9-430C-A639-2454AC4A0BE8";
paths = (
{
closed = 1;
nodes = (
"211 403 OFFCURVE",
"210 415 OFFCURVE",
"210 424 CURVE SMOOTH",
"210 451 OFFCURVE",
"223 470 OFFCURVE",
"256 470 CURVE",
"256 493 OFFCURVE",
"247 515 OFFCURVE",
"232 531 CURVE",
"-4 531 LINE",
"-19 515 OFFCURVE",
"-25 493 OFFCURVE",
"-25 470 CURVE",
"16 470 OFFCURVE",
"20 449 OFFCURVE",
"36 411 CURVE SMOOTH",
"190 37 LINE",
"336 37 LINE",
"215 391 LINE {name = hr00;}"
);
},
{
closed = 1;
nodes = (
"511 455 OFFCURVE",
"527 470 OFFCURVE",
"560 470 CURVE",
"560 493 OFFCURVE",
"555 515 OFFCURVE",
"540 531 CURVE",
"347 531 LINE",
"332 515 OFFCURVE",
"328 493 OFFCURVE",
"328 470 CURVE",
"361 470 OFFCURVE",
"377 456 OFFCURVE",
"377 428 CURVE SMOOTH",
"377 422 OFFCURVE",
"376 413 OFFCURVE",
"374 404 CURVE",
"295 65 LINE",
"277 55 LINE",
"250 -42 OFFCURVE",
"201 -66 OFFCURVE",
"158 -66 CURVE SMOOTH",
"123 -66 OFFCURVE",
"96 -55 OFFCURVE",
"78 -34 CURVE",
"54 -45 OFFCURVE",
"37 -72 OFFCURVE",
"37 -104 CURVE SMOOTH",
"37 -152 OFFCURVE",
"78 -192 OFFCURVE",
"161 -192 CURVE SMOOTH",
"261 -192 OFFCURVE",
"326 -126 OFFCURVE",
"385 63 CURVE",
"499 418 LINE"
);
}
);
width = 530;
}
);
leftKerningGroup = y;
rightKerningGroup = y;
unicode = 0079;
},
{
glyphname = z;
lastChange = "2018-06-15 03:30:07 +0000";
layers = (
{
anchors = (
{
name = btm;
position = "{267, 0}";
},
{
name = top;
position = "{264, 822}";
}
);
layerId = "184835E3-72D9-430C-A639-2454AC4A0BE8";
paths = (
{
closed = 1;
nodes = (
"143 68 LINE",
"160 32 LINE",
"247 131 LINE",
"484 489 LINE {name = hr02;}",
"454 530 LINE {name = hr03;}",
"29 530 LINE",
"30 465 OFFCURVE",
"29 399 OFFCURVE",
"46 351 CURVE",
"126 351 LINE",
"126 431 OFFCURVE",
"152 463 OFFCURVE",
"215 463 CURVE SMOOTH",
"340 463 LINE",
"323 498 LINE",
"243 410 LINE",
"3 38 LINE",
"31 0 LINE {name = hr01;}",
"455 0 LINE",
"479 47 OFFCURVE",
"481 109 OFFCURVE",
"481 161 CURVE SMOOTH",
"481 196 LINE",
"406 196 LINE",
"386 118 OFFCURVE",
"363 68 OFFCURVE",
"261 68 CURVE SMOOTH"
);
}
);
width = 507;
}
);
leftKerningGroup = z;
rightKerningGroup = z;
unicode = 007A;
},
{
glyphname = f_f;
lastChange = "2018-06-12 18:50:51 +0000";
layers = (
{
anchors = (
{
name = btm;
position = "{198, 0}";
},
{
name = top;
position = "{197, 975}";
}
);
background = {
paths = (
{
closed = 1;
nodes = (
"330 450 LINE",
"345 473 OFFCURVE",
"347 510 OFFCURVE",
"347 540 CURVE",
"251 540 LINE SMOOTH",
"238 540 OFFCURVE",
"218 586 OFFCURVE",
"218 647 CURVE SMOOTH",
"218 703 OFFCURVE",
"246 750 OFFCURVE",
"282 750 CURVE SMOOTH {name = hr02;}",
"291 750 OFFCURVE",
"304 745 OFFCURVE",
"308 737 CURVE",
"279 716 OFFCURVE",
"276 692 OFFCURVE",
"276 674 CURVE SMOOTH",
"276 633 OFFCURVE",
"315 603 OFFCURVE",
"358 603 CURVE SMOOTH",
"406 603 OFFCURVE",
"436 644 OFFCURVE",
"436 697 CURVE SMOOTH",
"436 752 OFFCURVE",
"382 822 OFFCURVE",
"278 822 CURVE SMOOTH",
"158 822 OFFCURVE",
"77 754 OFFCURVE",
"77 615 CURVE SMOOTH",
"77 580 OFFCURVE",
"87 555 OFFCURVE",
"87 506 CURVE",
"98 549 LINE",
"76 532 OFFCURVE",
"63 521 OFFCURVE",
"26 512 CURVE",
"26 450 LINE {name = hr03;}",
"138 450 LINE",
"87 501 LINE",
"87 109 LINE SMOOTH",
"87 70 OFFCURVE",
"72 54 OFFCURVE",
"32 54 CURVE",
"32 33 OFFCURVE",
"40 15 OFFCURVE",
"55 0 CURVE",
"319 0 LINE",
"334 15 OFFCURVE",
"342 33 OFFCURVE",
"342 54 CURVE",
"262 54 OFFCURVE",
"248 73 OFFCURVE",
"248 118 CURVE SMOOTH",
"248 501 LINE {name = hr01;}",
"197 450 LINE {name = hr01;}"
);
}
);
};
layerId = "184835E3-72D9-430C-A639-2454AC4A0BE8";
paths = (
{
closed = 1;
nodes = (
"448 450 LINE",
"448 109 LINE SMOOTH",
"448 70 OFFCURVE",
"433 54 OFFCURVE",
"393 54 CURVE",
"393 33 OFFCURVE",
"402 16 OFFCURVE",
"416 0 CURVE",
"690 0 LINE",
"704 16 OFFCURVE",
"714 33 OFFCURVE",
"714 54 CURVE",
"634 54 OFFCURVE",
"611 73 OFFCURVE",
"611 118 CURVE SMOOTH",
"611 450 LINE",
"714 450 LINE",
"730 473 OFFCURVE",
"731 510 OFFCURVE",
"731 540 CURVE",
"617 540 LINE SMOOTH",
"571 540 OFFCURVE",
"570 591 OFFCURVE",
"570 651 CURVE SMOOTH",
"570 708 OFFCURVE",
"602 751 OFFCURVE",
"629 751 CURVE SMOOTH",
"636 751 OFFCURVE",
"640 749 OFFCURVE",
"647 745 CURVE",
"632 734 OFFCURVE",
"626 713 OFFCURVE",
"626 696 CURVE SMOOTH",
"626 655 OFFCURVE",
"668 633 OFFCURVE",
"706 633 CURVE SMOOTH",
"753 633 OFFCURVE",
"785 673 OFFCURVE",
"785 724 CURVE SMOOTH",
"785 777 OFFCURVE",
"736 822 OFFCURVE",
"649 822 CURVE SMOOTH",
"530 822 OFFCURVE",
"437 729 OFFCURVE",
"437 602 CURVE SMOOTH",
"437 585 OFFCURVE",
"439 557 OFFCURVE",
"442 540 CURVE",
"257 540 LINE SMOOTH",
"211 540 OFFCURVE",
"201 578 OFFCURVE",
"201 641 CURVE SMOOTH",
"201 700 OFFCURVE",
"239 744 OFFCURVE",
"269 744 CURVE SMOOTH",
"277 744 OFFCURVE",
"280 742 OFFCURVE",
"287 737 CURVE",
"273 727 OFFCURVE",
"267 706 OFFCURVE",
"267 688 CURVE SMOOTH",
"267 648 OFFCURVE",
"307 622 OFFCURVE",
"346 622 CURVE SMOOTH",
"394 622 OFFCURVE",
"422 660 OFFCURVE",
"422 712 CURVE SMOOTH",
"422 764 OFFCURVE",
"377 811 OFFCURVE",
"290 811 CURVE SMOOTH",
"165 811 OFFCURVE",
"77 749 OFFCURVE",
"77 595 CURVE SMOOTH",
"77 587 OFFCURVE",
"78 555 OFFCURVE",
"82 537 CURVE",
"68 526 OFFCURVE",
"54 518 OFFCURVE",
"26 512 CURVE",
"26 450 LINE",
"87 450 LINE",
"87 109 LINE SMOOTH",
"87 70 OFFCURVE",
"72 54 OFFCURVE",
"33 54 CURVE",
"33 33 OFFCURVE",
"41 16 OFFCURVE",
"56 0 CURVE",
"319 0 LINE",
"335 16 OFFCURVE",
"343 33 OFFCURVE",
"343 54 CURVE",
"263 54 OFFCURVE",
"248 73 OFFCURVE",
"248 118 CURVE SMOOTH",
"248 450 LINE {name = hr00;}"
);
}
);
width = 724;
}
);
leftKerningGroup = f;
leftMetricsKey = f;
rightKerningGroup = f;
rightMetricsKey = f;
unicode = FB00;
},
{
glyphname = ordfeminine;
lastChange = "2018-06-12 17:44:11 +0000";
layers = (
{
layerId = "184835E3-72D9-430C-A639-2454AC4A0BE8";
paths = (
{
closed = 1;
nodes = (
"40 435 OFFCURVE",
"92 387 OFFCURVE",
"167 387 CURVE SMOOTH",
"210 387 OFFCURVE",
"239 402 OFFCURVE",
"261 422 CURVE",
"275 399 OFFCURVE",
"301 387 OFFCURVE",
"336 387 CURVE SMOOTH",
"368 387 OFFCURVE",
"404 397 OFFCURVE",
"419 415 CURVE",
"418 439 LINE",
"395 444 OFFCURVE",
"383 459 OFFCURVE",
"383 482 CURVE SMOOTH",
"383 682 LINE SMOOTH",
"383 760 OFFCURVE",
"332 800 OFFCURVE",
"230 800 CURVE SMOOTH",
"117 800 OFFCURVE",
"66 750 OFFCURVE",
"66 702 CURVE SMOOTH",
"66 667 OFFCURVE",
"92 640 OFFCURVE",
"132 640 CURVE SMOOTH",
"167 640 OFFCURVE",
"193 660 OFFCURVE",
"193 691 CURVE SMOOTH",
"193 708 OFFCURVE",
"184 723 OFFCURVE",
"165 731 CURVE",
"175 740 OFFCURVE",
"190 743 OFFCURVE",
"205 743 CURVE SMOOTH",
"233 743 OFFCURVE",
"251 729 OFFCURVE",
"251 691 CURVE SMOOTH",
"251 593 LINE",
"232 603 OFFCURVE",
"201 609 OFFCURVE",
"172 609 CURVE SMOOTH",
"91 609 OFFCURVE",
"40 562 OFFCURVE",
"40 499 CURVE SMOOTH {name = hr00;}"
);
},
{
closed = 1;
nodes = (
"243 456 OFFCURVE",
"229 452 OFFCURVE",
"216 452 CURVE SMOOTH",
"190 452 OFFCURVE",
"172 469 OFFCURVE",
"172 499 CURVE SMOOTH",
"172 529 OFFCURVE",
"192 544 OFFCURVE",
"214 544 CURVE SMOOTH",
"229 544 OFFCURVE",
"242 537 OFFCURVE",
"251 531 CURVE",
"251 464 LINE"
);
}
);
width = 459;
}
);
leftKerningGroup = ordfeminine;
rightKerningGroup = ordfeminine;
unicode = 00AA;
},
{
glyphname = ordmasculine;
lastChange = "2018-06-12 17:44:11 +0000";
layers = (
{
layerId = "184835E3-72D9-430C-A639-2454AC4A0BE8";
paths = (
{
closed = 1;
nodes = (
"331 384 OFFCURVE",
"407 474 OFFCURVE",
"407 606 CURVE SMOOTH",
"407 731 OFFCURVE",
"334 800 OFFCURVE",
"227 800 CURVE SMOOTH",
"116 800 OFFCURVE",
"40 715 OFFCURVE",
"40 582 CURVE SMOOTH",
"40 457 OFFCURVE",
"113 384 OFFCURVE",
"220 384 CURVE SMOOTH"
);
},
{
closed = 1;
nodes = (
"193 439 OFFCURVE",
"175 472 OFFCURVE",
"175 600 CURVE SMOOTH {name = hr00;}",
"175 707 OFFCURVE",
"191 746 OFFCURVE",
"221 746 CURVE SMOOTH",
"254 746 OFFCURVE",
"272 718 OFFCURVE",
"272 589 CURVE SMOOTH",
"272 481 OFFCURVE",
"256 439 OFFCURVE",
"226 439 CURVE SMOOTH"
);
}
);
width = 447;
}
);
leftKerningGroup = ordmasculine;
rightKerningGroup = ordmasculine;
unicode = 00BA;
},
{
glyphname = Delta;
lastChange = "2018-06-12 17:44:11 +0000";
layers = (
{
layerId = "184835E3-72D9-430C-A639-2454AC4A0BE8";
paths = (
{
closed = 1;
nodes = (
"515 697 LINE",
"349 697 LINE",
"148 129 LINE SMOOTH",
"132 85 OFFCURVE",
"100 64 OFFCURVE",
"64 64 CURVE",
"64 40 OFFCURVE",
"72 16 OFFCURVE",
"87 0 CURVE",
"768 0 LINE",
"783 16 OFFCURVE",
"791 40 OFFCURVE",
"791 64 CURVE",
"757 64 OFFCURVE",
"721 85 OFFCURVE",
"706 129 CURVE SMOOTH"
);
},
{
closed = 1;
nodes = (
"332 79 LINE",
"293 79 OFFCURVE",
"269 79 OFFCURVE",
"269 115 CURVE SMOOTH",
"269 127 OFFCURVE",
"272 142 OFFCURVE",
"277 159 CURVE SMOOTH",
"395 552 LINE",
"404 539 OFFCURVE",
"412 523 OFFCURVE",
"417 506 CURVE SMOOTH",
"520 159 LINE SMOOTH",
"526 140 OFFCURVE",
"528 124 OFFCURVE",
"528 112 CURVE SMOOTH",
"528 78 OFFCURVE",
"509 79 OFFCURVE",
"474 79 CURVE",
"474 78 LINE",
"332 78 LINE"
);
}
);
width = 855;
}
);
leftKerningGroup = A;
rightKerningGroup = A;
unicode = 0394;
},
{
glyphname = Omega;
lastChange = "2018-06-12 17:44:11 +0000";
layers = (
{
layerId = "184835E3-72D9-430C-A639-2454AC4A0BE8";
paths = (
{
closed = 1;
nodes = (
"750 203 LINE",
"750 122 OFFCURVE",
"716 76 OFFCURVE",
"585 86 CURVE",
"585 109 OFFCURVE",
"767 220 OFFCURVE",
"767 399 CURVE SMOOTH",
"767 592 OFFCURVE",
"652 703 OFFCURVE",
"448 703 CURVE SMOOTH",
"244 703 OFFCURVE",
"129 592 OFFCURVE",
"129 399 CURVE SMOOTH",
"129 217 OFFCURVE",
"311 112 OFFCURVE",
"311 86 CURVE",
"147 86 OFFCURVE",
"146 122 OFFCURVE",
"146 203 CURVE",
"98 203 LINE",
"76 185 OFFCURVE",
"70 151 OFFCURVE",
"70 109 CURVE SMOOTH",
"70 53 OFFCURVE",
"92 0 OFFCURVE",
"176 0 CURVE SMOOTH {name = hr01;}",
"382 0 LINE",
"410 73 LINE",
"386 136 OFFCURVE",
"317 188 OFFCURVE",
"317 395 CURVE SMOOTH",
"317 559 OFFCURVE",
"357 629 OFFCURVE",
"450 629 CURVE SMOOTH",
"512 629 OFFCURVE",
"579 598 OFFCURVE",
"579 395 CURVE SMOOTH",
"579 188 OFFCURVE",
"510 136 OFFCURVE",
"486 73 CURVE",
"514 0 LINE",
"720 0 LINE SMOOTH {name = hr01;}",
"804 0 OFFCURVE",
"826 53 OFFCURVE",
"826 109 CURVE SMOOTH",
"826 151 OFFCURVE",
"820 185 OFFCURVE",
"798 203 CURVE"
);
}
);
width = 896;
}
);
leftKerningGroup = Omega;
rightKerningGroup = Omega;
unicode = 03A9;
},
{
glyphname = mu;
lastChange = "2018-06-12 17:44:11 +0000";
layers = (
{
layerId = "184835E3-72D9-430C-A639-2454AC4A0BE8";
paths = (
{
closed = 1;
nodes = (
"350 23 OFFCURVE",
"396 -13 OFFCURVE",
"456 -13 CURVE SMOOTH",
"492 -13 OFFCURVE",
"559 0 OFFCURVE",
"580 54 CURVE",
"555 97 LINE {name = hr02;}",
"546 83 OFFCURVE",
"538 80 OFFCURVE",
"532 80 CURVE SMOOTH",
"517 80 OFFCURVE",
"512 92 OFFCURVE",
"512 115 CURVE SMOOTH",
"512 502 LINE SMOOTH",
"512 533 OFFCURVE",
"471 548 OFFCURVE",
"430 548 CURVE SMOOTH",
"390 548 OFFCURVE",
"350 533 OFFCURVE",
"350 504 CURVE SMOOTH",
"350 88 LINE SMOOTH {name = hr01;}"
);
},
{
closed = 1;
nodes = (
"170 19 OFFCURVE",
"203 -13 OFFCURVE",
"264 -13 CURVE SMOOTH",
"309 -13 OFFCURVE",
"359 4 OFFCURVE",
"376 79 CURVE",
"350 143 LINE",
"339 104 OFFCURVE",
"318 82 OFFCURVE",
"283 82 CURVE SMOOTH",
"251 82 OFFCURVE",
"219 104 OFFCURVE",
"219 143 CURVE SMOOTH",
"219 502 LINE SMOOTH",
"219 533 OFFCURVE",
"178 548 OFFCURVE",
"138 548 CURVE SMOOTH",
"97 548 OFFCURVE",
"57 533 OFFCURVE",
"57 504 CURVE SMOOTH",
"57 154 LINE",
"54 -192 LINE",
"109 -192 LINE SMOOTH",
"149 -192 OFFCURVE",
"173 -169 OFFCURVE",
"173 -132 CURVE SMOOTH",
"173 -128 OFFCURVE",
"173 -125 OFFCURVE",
"173 -120 CURVE SMOOTH",
"159 109 LINE",
"149 45 LINE"
);
}
);
width = 595;
}
);
leftKerningGroup = u;
rightKerningGroup = u;
unicode = 03BC;
},
{
glyphname = pi;
lastChange = "2018-06-12 17:44:11 +0000";
layers = (
{
layerId = "184835E3-72D9-430C-A639-2454AC4A0BE8";
paths = (
{
closed = 1;
nodes = (
"573 77 OFFCURVE",
"567 89 OFFCURVE",
"564 112 CURVE SMOOTH",
"530 418 LINE",
"641 418 LINE",
"666 443 OFFCURVE",
"668 494 OFFCURVE",
"668 530 CURVE",
"57 530 LINE",
"57 418 LINE",
"172 418 LINE",
"172 307 LINE",
"172 195 OFFCURVE",
"169 137 OFFCURVE",
"155 100 CURVE",
"144 126 OFFCURVE",
"121 139 OFFCURVE",
"95 139 CURVE SMOOTH",
"54 139 OFFCURVE",
"32 112 OFFCURVE",
"32 74 CURVE SMOOTH",
"32 28 OFFCURVE",
"68 -13 OFFCURVE",
"142 -13 CURVE SMOOTH",
"274 -13 OFFCURVE",
"299 92 OFFCURVE",
"299 218 CURVE",
"299 418 LINE",
"407 418 LINE",
"415 85 LINE SMOOTH {name = hr01;}",
"417 20 OFFCURVE",
"452 -13 OFFCURVE",
"512 -13 CURVE SMOOTH",
"577 -13 OFFCURVE",
"637 8 OFFCURVE",
"652 62 CURVE",
"623 105 LINE {name = hr02;}",
"610 83 OFFCURVE",
"594 77 OFFCURVE",
"588 77 CURVE SMOOTH"
);
}
);
width = 700;
}
);
leftKerningGroup = pi;
rightKerningGroup = pi;
unicode = 03C0;
},
{
glyphname = zero;
lastChange = "2018-06-14 03:50:28 +0000";
layers = (
{
layerId = "184835E3-72D9-430C-A639-2454AC4A0BE8";
paths = (
{
closed = 1;
nodes = (
"503 -10 OFFCURVE",
"618 81 OFFCURVE",
"618 338 CURVE SMOOTH",
"618 607 OFFCURVE",
"506 708 OFFCURVE",
"332 708 CURVE SMOOTH",
"160 708 OFFCURVE",
"45 609 OFFCURVE",
"45 339 CURVE SMOOTH",
"45 84 OFFCURVE",
"157 -10 OFFCURVE",
"330 -10 CURVE SMOOTH"
);
},
{
closed = 1;
nodes = (
"273 60 OFFCURVE",
"226 100 OFFCURVE",
"226 337 CURVE SMOOTH",
"226 597 OFFCURVE",
"274 638 OFFCURVE",
"332 638 CURVE SMOOTH",
"390 638 OFFCURVE",
"436 597 OFFCURVE",
"436 340 CURVE SMOOTH",
"436 100 OFFCURVE",
"389 60 OFFCURVE",
"330 60 CURVE SMOOTH {name = hr00;}"
);
}
);
width = 663;
}
);
leftKerningGroup = zero;
rightKerningGroup = zero;
unicode = 0030;
userData = {
com.typemytype.robofont.guides = (
{
angle = 0;
isGlobal = 0;
magnetic = 5;
x = 0;
y = -27;
}
);
};
},
{
color = 9;
glyphname = one;
lastChange = "2018-06-15 17:07:39 +0000";
layers = (
{
layerId = "184835E3-72D9-430C-A639-2454AC4A0BE8";
paths = (
{
closed = 1;
nodes = (
"331 679 OFFCURVE",
"321 710 OFFCURVE",
"284 710 CURVE SMOOTH",
"266 710 OFFCURVE",
"244 705 OFFCURVE",
"199 679 CURVE SMOOTH",
"43 588 LINE",
"70 538 LINE",
"88 546 OFFCURVE",
"114 551 OFFCURVE",
"133 551 CURVE SMOOTH",
"163 551 OFFCURVE",
"178 540 OFFCURVE",
"178 519 CURVE SMOOTH",
"178 157 LINE SMOOTH",
"178 87 OFFCURVE",
"133 68 OFFCURVE",
"68 68 CURVE",
"68 48 OFFCURVE",
"77 14 OFFCURVE",
"92 0 CURVE",
"419 0 LINE",
"434 14 OFFCURVE",
"442 48 OFFCURVE",
"442 68 CURVE",
"373 68 OFFCURVE",
"331 86 OFFCURVE",
"331 157 CURVE SMOOTH",
"331 656 LINE SMOOTH {name = hr00;}"
);
}
);
width = 480;
}
);
leftKerningGroup = one;
rightKerningGroup = one;
unicode = 0031;
},
{
glyphname = two;
lastChange = "2018-06-14 03:50:15 +0000";
layers = (
{
layerId = "184835E3-72D9-430C-A639-2454AC4A0BE8";
paths = (
{
closed = 1;
nodes = (
"123 33 LINE",
"152 235 OFFCURVE",
"529 257 OFFCURVE",
"529 508 CURVE SMOOTH",
"529 644 OFFCURVE",
"419 709 OFFCURVE",
"282 709 CURVE SMOOTH",
"130 709 OFFCURVE",
"30 629 OFFCURVE",
"30 538 CURVE SMOOTH",
"30 473 OFFCURVE",
"75 437 OFFCURVE",
"125 437 CURVE SMOOTH",
"173 437 OFFCURVE",
"219 469 OFFCURVE",
"219 518 CURVE SMOOTH",
"219 550 OFFCURVE",
"196 585 OFFCURVE",
"161 595 CURVE",
"183 625 OFFCURVE",
"212 639 OFFCURVE",
"251 639 CURVE SMOOTH",
"307 639 OFFCURVE",
"351 605 OFFCURVE",
"351 525 CURVE SMOOTH",
"351 327 OFFCURVE",
"78 249 OFFCURVE",
"34 14 CURVE",
"66 -11 LINE {name = hr01;}"
);
},
{
closed = 1;
nodes = (
"103 4 OFFCURVE",
"147 10 OFFCURVE",
"190 10 CURVE SMOOTH",
"269 10 OFFCURVE",
"313 -10 OFFCURVE",
"383 -10 CURVE SMOOTH {name = hr02;}",
"516 -10 OFFCURVE",
"555 66 OFFCURVE",
"555 129 CURVE SMOOTH",
"555 168 OFFCURVE",
"540 205 OFFCURVE",
"519 224 CURVE",
"496 224 LINE",
"481 170 OFFCURVE",
"425 139 OFFCURVE",
"361 139 CURVE SMOOTH {name = hr03;}",
"293 139 LINE SMOOTH",
"236 139 OFFCURVE",
"185 126 OFFCURVE",
"131 98 CURVE",
"67 -11 LINE"
);
}
);
width = 585;
}
);
leftKerningGroup = two;
rightKerningGroup = two;
unicode = 0032;
},
{
glyphname = three;
lastChange = "2018-06-14 03:50:04 +0000";
layers = (
{
background = {
paths = (
{
closed = 1;
nodes = (
"529 667 OFFCURVE",
"429 726 OFFCURVE",
"291 726 CURVE SMOOTH",
"162 726 OFFCURVE",
"57 673 OFFCURVE",
"57 582 CURVE SMOOTH",
"57 535 OFFCURVE",
"85 502 OFFCURVE",
"135 502 CURVE SMOOTH",
"184 502 OFFCURVE",
"209 535 OFFCURVE",
"209 564 CURVE SMOOTH",
"209 590 OFFCURVE",
"190 612 OFFCURVE",
"173 619 CURVE",
"193 644 OFFCURVE",
"223 656 OFFCURVE",
"255 656 CURVE SMOOTH",
"318 656 OFFCURVE",
"352 615 OFFCURVE",
"352 549 CURVE SMOOTH",
"352 488 OFFCURVE",
"322 429 OFFCURVE",
"196 396 CURVE",
"329 372 LINE",
"462 407 OFFCURVE",
"529 479 OFFCURVE",
"529 566 CURVE SMOOTH {name = hr00;}"
);
}
);
};
layerId = "184835E3-72D9-430C-A639-2454AC4A0BE8";
paths = (
{
closed = 1;
nodes = (
"529 648 OFFCURVE",
"429 707 OFFCURVE",
"291 707 CURVE SMOOTH",
"162 707 OFFCURVE",
"54 655 OFFCURVE",
"54 564 CURVE SMOOTH",
"54 515 OFFCURVE",
"82 478 OFFCURVE",
"134 478 CURVE SMOOTH",
"185 478 OFFCURVE",
"212 515 OFFCURVE",
"212 545 CURVE SMOOTH",
"212 572 OFFCURVE",
"194 592 OFFCURVE",
"177 599 CURVE",
"197 624 OFFCURVE",
"219 631 OFFCURVE",
"251 631 CURVE SMOOTH",
"311 631 OFFCURVE",
"351 586 OFFCURVE",
"351 523 CURVE SMOOTH",
"351 462 OFFCURVE",
"322 415 OFFCURVE",
"196 382 CURVE",
"216 322 LINE",
"468 376 OFFCURVE",
"529 460 OFFCURVE",
"529 547 CURVE SMOOTH {name = hr00;}"
);
},
{
closed = 1;
nodes = (
"579 327 OFFCURVE",
"481 382 OFFCURVE",
"357 367 CURVE",
"196 382 LINE",
"221 336 LINE",
"273 336 LINE SMOOTH",
"362 336 OFFCURVE",
"394 266 OFFCURVE",
"394 197 CURVE SMOOTH",
"394 128 OFFCURVE",
"350 83 OFFCURVE",
"267 83 CURVE SMOOTH",
"228 83 OFFCURVE",
"189 83 OFFCURVE",
"172 97 CURVE",
"193 115 OFFCURVE",
"200 142 OFFCURVE",
"200 161 CURVE SMOOTH",
"200 198 OFFCURVE",
"170 230 OFFCURVE",
"123 230 CURVE SMOOTH",
"76 230 OFFCURVE",
"40 199 OFFCURVE",
"40 142 CURVE SMOOTH",
"40 48 OFFCURVE",
"144 -8 OFFCURVE",
"283 -8 CURVE SMOOTH",
"455 -8 OFFCURVE",
"579 73 OFFCURVE",
"579 196 CURVE SMOOTH"
);
}
);
width = 624;
}
);
leftKerningGroup = three;
rightKerningGroup = three;
unicode = 0033;
},
{
color = 9;
glyphname = four;
lastChange = "2018-06-15 17:07:39 +0000";
layers = (
{
layerId = "184835E3-72D9-430C-A639-2454AC4A0BE8";
paths = (
{
closed = 1;
nodes = (
"572 294 OFFCURVE",
"548 274 OFFCURVE",
"495 274 CURVE SMOOTH",
"150 274 LINE",
"336 629 LINE",
"396 698 LINE",
"276 698 LINE",
"10 254 LINE",
"28 192 LINE",
"479 192 LINE SMOOTH",
"629 192 OFFCURVE",
"653 224 OFFCURVE",
"653 280 CURVE SMOOTH",
"653 309 OFFCURVE",
"635 334 OFFCURVE",
"613 341 CURVE",
"590 341 LINE {name = hr00;}"
);
},
{
closed = 1;
nodes = (
"325 80 OFFCURVE",
"279 67 OFFCURVE",
"216 67 CURVE",
"216 47 OFFCURVE",
"223 14 OFFCURVE",
"238 0 CURVE",
"559 0 LINE",
"574 14 OFFCURVE",
"583 47 OFFCURVE",
"583 67 CURVE",
"514 67 OFFCURVE",
"479 80 OFFCURVE",
"479 121 CURVE SMOOTH",
"479 698 LINE",
"363 698 LINE",
"325 621 LINE",
"325 122 LINE SMOOTH"
);
}
);
width = 663;
}
);
leftKerningGroup = four;
rightKerningGroup = four;
unicode = 0034;
},
{
color = 4;
glyphname = five;
lastChange = "2018-06-14 03:48:59 +0000";
layers = (
{
layerId = "184835E3-72D9-430C-A639-2454AC4A0BE8";
paths = (
{
closed = 1;
nodes = (
"189 99 OFFCURVE",
"206 121 OFFCURVE",
"206 151 CURVE SMOOTH",
"206 194 OFFCURVE",
"172 225 OFFCURVE",
"126 225 CURVE SMOOTH",
"79 225 OFFCURVE",
"40 192 OFFCURVE",
"40 136 CURVE SMOOTH",
"40 52 OFFCURVE",
"133 -8 OFFCURVE",
"274 -8 CURVE SMOOTH",
"462 -8 OFFCURVE",
"563 105 OFFCURVE",
"563 227 CURVE SMOOTH",
"563 350 OFFCURVE",
"475 440 OFFCURVE",
"329 440 CURVE SMOOTH",
"259 440 OFFCURVE",
"199 412 OFFCURVE",
"164 393 CURVE",
"187 367 LINE",
"218 645 LINE",
"111 645 LINE",
"107 590 LINE",
"127 590 OFFCURVE",
"180 621 OFFCURVE",
"192 621 CURVE SMOOTH",
"275 621 OFFCURVE",
"336 564 OFFCURVE",
"431 564 CURVE SMOOTH",
"492 564 OFFCURVE",
"542 595 OFFCURVE",
"542 656 CURVE SMOOTH",
"542 687 OFFCURVE",
"531 715 OFFCURVE",
"513 728 CURVE",
"490 728 LINE",
"458 707 OFFCURVE",
"410 698 OFFCURVE",
"336 698 CURVE SMOOTH",
"96 698 LINE",
"82 374 LINE",
"121 329 LINE",
"151 343 OFFCURVE",
"197 351 OFFCURVE",
"234 351 CURVE SMOOTH",
"323 351 OFFCURVE",
"380 307 OFFCURVE",
"380 214 CURVE SMOOTH",
"380 138 OFFCURVE",
"329 76 OFFCURVE",
"238 76 CURVE SMOOTH",
"198 76 OFFCURVE",
"164 87 OFFCURVE",
"154 96 CURVE",
"142 79 LINE {name = hr00;}"
);
}
);
width = 603;
}
);
leftKerningGroup = five;
rightKerningGroup = five;
unicode = 0035;
},
{
color = 9;
glyphname = six;
lastChange = "2018-06-15 17:08:29 +0000";
layers = (
{
layerId = "184835E3-72D9-430C-A639-2454AC4A0BE8";
paths = (
{
closed = 1;
nodes = (
"316 434 OFFCURVE",
"255 415 OFFCURVE",
"220 382 CURVE",
"219 385 OFFCURVE",
"219 389 OFFCURVE",
"219 393 CURVE SMOOTH",
"219 576 OFFCURVE",
"280 637 OFFCURVE",
"353 637 CURVE SMOOTH {name = hr00;}",
"386 637 OFFCURVE",
"419 627 OFFCURVE",
"436 607 CURVE",
"413 595 OFFCURVE",
"398 571 OFFCURVE",
"398 550 CURVE SMOOTH",
"398 507 OFFCURVE",
"434 476 OFFCURVE",
"482 476 CURVE SMOOTH",
"535 476 OFFCURVE",
"566 515 OFFCURVE",
"566 566 CURVE SMOOTH",
"566 660 OFFCURVE",
"470 707 OFFCURVE",
"353 707 CURVE SMOOTH",
"185 707 OFFCURVE",
"45 591 OFFCURVE",
"45 335 CURVE SMOOTH",
"45 107 OFFCURVE",
"157 -8 OFFCURVE",
"322 -8 CURVE SMOOTH",
"484 -8 OFFCURVE",
"595 97 OFFCURVE",
"595 229 CURVE SMOOTH",
"595 356 OFFCURVE",
"501 434 OFFCURVE",
"377 434 CURVE SMOOTH"
);
},
{
closed = 1;
nodes = (
"270 67 OFFCURVE",
"218 112 OFFCURVE",
"218 259 CURVE SMOOTH",
"218 272 OFFCURVE",
"218 286 OFFCURVE",
"219 300 CURVE",
"237 335 OFFCURVE",
"273 352 OFFCURVE",
"319 352 CURVE SMOOTH",
"377 352 OFFCURVE",
"428 311 OFFCURVE",
"428 205 CURVE SMOOTH",
"428 99 OFFCURVE",
"376 67 OFFCURVE",
"325 67 CURVE SMOOTH"
);
}
);
width = 635;
}
);
leftKerningGroup = six;
rightKerningGroup = six;
unicode = 0036;
},
{
glyphname = seven;
lastChange = "2018-06-15 17:02:01 +0000";
layers = (
{
layerId = "184835E3-72D9-430C-A639-2454AC4A0BE8";
paths = (
{
closed = 1;
nodes = (
"469 684 OFFCURVE",
"460 679 OFFCURVE",
"414 679 CURVE SMOOTH",
"326 679 OFFCURVE",
"200 708 OFFCURVE",
"147 708 CURVE SMOOTH {name = hr02;}",
"56 708 OFFCURVE",
"20 661 OFFCURVE",
"20 594 CURVE SMOOTH",
"20 543 OFFCURVE",
"40 508 OFFCURVE",
"62 488 CURVE",
"118 488 LINE",
"132 548 OFFCURVE",
"160 567 OFFCURVE",
"238 567 CURVE SMOOTH",
"347 567 OFFCURVE",
"438 596 OFFCURVE",
"484 622 CURVE",
"506 711 LINE {name = hr01;}"
);
},
{
closed = 1;
nodes = (
"171 -6 OFFCURVE",
"203 -10 OFFCURVE",
"230 -10 CURVE SMOOTH",
"333 -10 OFFCURVE",
"347 29 OFFCURVE",
"347 63 CURVE",
"347 119 LINE",
"347 258 OFFCURVE",
"370 444 OFFCURVE",
"542 662 CURVE",
"506 711 LINE",
"478 670 LINE",
"254 418 OFFCURVE",
"161 227 OFFCURVE",
"147 5 CURVE"
);
}
);
width = 542;
}
);
leftKerningGroup = seven;
rightKerningGroup = seven;
unicode = 0037;
userData = {
com.typemytype.robofont.guides = (
{
angle = 0;
isGlobal = 0;
magnetic = 5;
x = 0;
y = -32;
}
);
};
},
{
glyphname = eight;
lastChange = "2018-06-14 03:48:26 +0000";
layers = (
{
layerId = "184835E3-72D9-430C-A639-2454AC4A0BE8";
paths = (
{
closed = 1;
nodes = (
"509 439 OFFCURVE",
"561 491 OFFCURVE",
"561 555 CURVE SMOOTH",
"561 628 OFFCURVE",
"500 709 OFFCURVE",
"329 709 CURVE SMOOTH",
"157 709 OFFCURVE",
"67 629 OFFCURVE",
"67 525 CURVE SMOOTH",
"67 450 OFFCURVE",
"116 398 OFFCURVE",
"177 354 CURVE",
"92 321 OFFCURVE",
"36 252 OFFCURVE",
"36 174 CURVE SMOOTH",
"36 80 OFFCURVE",
"116 -8 OFFCURVE",
"304 -8 CURVE SMOOTH",
"491 -8 OFFCURVE",
"600 79 OFFCURVE",
"600 197 CURVE SMOOTH",
"600 278 OFFCURVE",
"552 347 OFFCURVE",
"441 404 CURVE"
);
},
{
closed = 1;
nodes = (
"407 642 OFFCURVE",
"439 602 OFFCURVE",
"439 553 CURVE SMOOTH",
"439 509 OFFCURVE",
"414 468 OFFCURVE",
"366 437 CURVE",
"264 482 OFFCURVE",
"229 524 OFFCURVE",
"229 564 CURVE SMOOTH",
"229 611 OFFCURVE",
"275 642 OFFCURVE",
"338 642 CURVE SMOOTH"
);
},
{
closed = 1;
nodes = (
"220 66 OFFCURVE",
"169 119 OFFCURVE",
"169 189 CURVE SMOOTH",
"169 239 OFFCURVE",
"196 286 OFFCURVE",
"247 311 CURVE",
"387 262 OFFCURVE",
"426 216 OFFCURVE",
"426 162 CURVE SMOOTH",
"426 105 OFFCURVE",
"376 66 OFFCURVE",
"303 66 CURVE SMOOTH"
);
}
);
width = 636;
}
);
leftKerningGroup = eight;
rightKerningGroup = eight;
unicode = 0038;
},
{
color = 9;
glyphname = nine;
lastChange = "2018-06-15 17:08:29 +0000";
layers = (
{
layerId = "184835E3-72D9-430C-A639-2454AC4A0BE8";
paths = (
{
closed = 1;
nodes = (
"248 63 OFFCURVE",
"215 68 OFFCURVE",
"194 94 CURVE",
"227 106 OFFCURVE",
"239 130 OFFCURVE",
"239 157 CURVE SMOOTH",
"239 204 OFFCURVE",
"200 227 OFFCURVE",
"159 227 CURVE SMOOTH",
"106 227 OFFCURVE",
"74 192 OFFCURVE",
"74 137 CURVE SMOOTH",
"74 43 OFFCURVE",
"162 -11 OFFCURVE",
"295 -11 CURVE SMOOTH",
"468 -11 OFFCURVE",
"587 126 OFFCURVE",
"587 350 CURVE SMOOTH",
"587 561 OFFCURVE",
"510 709 OFFCURVE",
"307 709 CURVE SMOOTH",
"143 709 OFFCURVE",
"40 600 OFFCURVE",
"40 480 CURVE SMOOTH",
"40 348 OFFCURVE",
"138 266 OFFCURVE",
"265 266 CURVE SMOOTH",
"377 266 OFFCURVE",
"462 326 OFFCURVE",
"468 412 CURVE",
"425 429 LINE",
"425 376 OFFCURVE",
"379 348 OFFCURVE",
"324 348 CURVE SMOOTH",
"259 348 OFFCURVE",
"202 396 OFFCURVE",
"202 499 CURVE SMOOTH",
"202 611 OFFCURVE",
"258 639 OFFCURVE",
"306 639 CURVE SMOOTH",
"354 639 OFFCURVE",
"413 601 OFFCURVE",
"413 423 CURVE SMOOTH",
"413 398 OFFCURVE",
"412 372 OFFCURVE",
"410 343 CURVE",
"410 302 LINE",
"410 296 OFFCURVE",
"410 291 OFFCURVE",
"410 287 CURVE SMOOTH",
"410 140 OFFCURVE",
"377 63 OFFCURVE",
"284 63 CURVE SMOOTH {name = hr00;}"
);
}
);
width = 632;
}
);
leftKerningGroup = nine;
rightKerningGroup = nine;
unicode = 0039;
},
{
glyphname = zero.osf;
lastChange = "2018-06-15 17:04:29 +0000";
layers = (
{
layerId = "184835E3-72D9-430C-A639-2454AC4A0BE8";
paths = (
{
closed = 1;
nodes = (
"514 -11 OFFCURVE",
"629 70 OFFCURVE",
"629 298 CURVE SMOOTH",
"629 523 OFFCURVE",
"517 617 OFFCURVE",
"343 617 CURVE SMOOTH",
"171 617 OFFCURVE",
"56 525 OFFCURVE",
"56 298 CURVE SMOOTH",
"56 72 OFFCURVE",
"168 -11 OFFCURVE",
"341 -11 CURVE SMOOTH"
);
},
{
closed = 1;
nodes = (
"284 51 OFFCURVE",
"237 87 OFFCURVE",
"237 296 CURVE SMOOTH",
"237 515 OFFCURVE",
"285 556 OFFCURVE",
"343 556 CURVE SMOOTH",
"401 556 OFFCURVE",
"447 515 OFFCURVE",
"447 299 CURVE SMOOTH",
"447 87 OFFCURVE",
"400 51 OFFCURVE",
"341 51 CURVE SMOOTH {name = hr00;}"
);
}
);
width = 685;
}
);
leftKerningGroup = zero;
rightKerningGroup = zero;
},
{
color = 9;
glyphname = one.osf;
lastChange = "2018-06-15 17:07:39 +0000";
layers = (
{
layerId = "184835E3-72D9-430C-A639-2454AC4A0BE8";
paths = (
{
closed = 1;
nodes = (
"338 590 OFFCURVE",
"323 617 OFFCURVE",
"279 617 CURVE SMOOTH",
"261 617 OFFCURVE",
"239 613 OFFCURVE",
"194 590 CURVE SMOOTH",
"38 511 LINE",
"72 456 LINE",
"90 464 OFFCURVE",
"190 492 OFFCURVE",
"209 492 CURVE SMOOTH",
"239 492 OFFCURVE",
"173 533 OFFCURVE",
"173 515 CURVE SMOOTH",
"173 129 LINE SMOOTH",
"173 67 OFFCURVE",
"128 41 OFFCURVE",
"63 41 CURVE",
"63 23 OFFCURVE",
"72 4 OFFCURVE",
"87 -8 CURVE",
"419 -8 LINE",
"434 4 OFFCURVE",
"442 23 OFFCURVE",
"442 41 CURVE",
"373 41 OFFCURVE",
"338 66 OFFCURVE",
"338 129 CURVE SMOOTH",
"338 569 LINE SMOOTH {name = hr00;}"
);
}
);
width = 480;
}
);
leftKerningGroup = one.osf;
rightKerningGroup = one.osf;
},
{
glyphname = two.osf;
lastChange = "2018-06-15 17:02:53 +0000";
layers = (
{
layerId = "184835E3-72D9-430C-A639-2454AC4A0BE8";
paths = (
{
closed = 1;
nodes = (
"140 35 LINE",
"169 210 OFFCURVE",
"546 212 OFFCURVE",
"546 429 CURVE SMOOTH",
"546 546 OFFCURVE",
"436 617 OFFCURVE",
"299 617 CURVE SMOOTH",
"126 617 OFFCURVE",
"51 533 OFFCURVE",
"51 454 CURVE SMOOTH",
"51 401 OFFCURVE",
"94 361 OFFCURVE",
"142 361 CURVE SMOOTH",
"188 361 OFFCURVE",
"232 388 OFFCURVE",
"232 427 CURVE SMOOTH",
"232 455 OFFCURVE",
"210 493 OFFCURVE",
"177 501 CURVE",
"199 527 OFFCURVE",
"218 557 OFFCURVE",
"268 557 CURVE SMOOTH",
"324 557 OFFCURVE",
"368 513 OFFCURVE",
"368 444 CURVE SMOOTH",
"368 271 OFFCURVE",
"95 223 OFFCURVE",
"51 18 CURVE",
"83 -3 LINE {name = hr01;}"
);
},
{
closed = 1;
nodes = (
"120 10 OFFCURVE",
"164 16 OFFCURVE",
"207 16 CURVE SMOOTH",
"286 16 OFFCURVE",
"330 -2 OFFCURVE",
"400 -2 CURVE SMOOTH {name = hr02;}",
"533 -2 OFFCURVE",
"572 65 OFFCURVE",
"572 119 CURVE SMOOTH",
"572 152 OFFCURVE",
"557 184 OFFCURVE",
"536 200 CURVE",
"513 200 LINE",
"498 153 OFFCURVE",
"442 127 OFFCURVE",
"378 127 CURVE SMOOTH {name = hr03;}",
"310 127 LINE SMOOTH",
"253 127 OFFCURVE",
"202 115 OFFCURVE",
"148 92 CURVE",
"84 -3 LINE"
);
}
);
width = 623;
}
);
leftKerningGroup = two.osf;
rightKerningGroup = two.osf;
},
{
glyphname = three.osf;
lastChange = "2018-06-12 17:44:11 +0000";
layers = (
{
layerId = "184835E3-72D9-430C-A639-2454AC4A0BE8";
paths = (
{
closed = 1;
nodes = (
"539 557 OFFCURVE",
"429 617 OFFCURVE",
"301 617 CURVE SMOOTH",
"182 617 OFFCURVE",
"67 564 OFFCURVE",
"67 473 CURVE SMOOTH",
"67 426 OFFCURVE",
"95 392 OFFCURVE",
"145 392 CURVE SMOOTH",
"194 392 OFFCURVE",
"219 425 OFFCURVE",
"219 455 CURVE SMOOTH",
"219 481 OFFCURVE",
"200 503 OFFCURVE",
"183 510 CURVE",
"203 535 OFFCURVE",
"243 546 OFFCURVE",
"265 546 CURVE SMOOTH",
"318 546 OFFCURVE",
"362 506 OFFCURVE",
"362 440 CURVE SMOOTH",
"362 379 OFFCURVE",
"332 301 OFFCURVE",
"206 268 CURVE",
"339 264 LINE",
"472 299 OFFCURVE",
"539 355 OFFCURVE",
"539 457 CURVE SMOOTH {name = hr00;}"
);
},
{
closed = 1;
nodes = (
"589 195 OFFCURVE",
"501 275 OFFCURVE",
"375 282 CURVE",
"206 268 LINE",
"225 217 LINE",
"266 217 LINE SMOOTH",
"353 217 OFFCURVE",
"407 154 OFFCURVE",
"407 85 CURVE SMOOTH",
"407 15 OFFCURVE",
"343 -37 OFFCURVE",
"275 -37 CURVE SMOOTH",
"246 -37 OFFCURVE",
"196 -25 OFFCURVE",
"180 -10 CURVE",
"200 7 OFFCURVE",
"207 33 OFFCURVE",
"207 51 CURVE SMOOTH",
"207 87 OFFCURVE",
"178 115 OFFCURVE",
"133 115 CURVE SMOOTH",
"88 115 OFFCURVE",
"53 88 OFFCURVE",
"53 33 CURVE SMOOTH",
"53 -61 OFFCURVE",
"171 -118 OFFCURVE",
"300 -118 CURVE SMOOTH",
"462 -118 OFFCURVE",
"589 -32 OFFCURVE",
"589 91 CURVE SMOOTH"
);
}
);
width = 640;
}
);
leftKerningGroup = three.osf;
rightKerningGroup = three.osf;
},
{
color = 9;
glyphname = four.osf;
lastChange = "2018-06-15 17:07:39 +0000";
layers = (
{
layerId = "184835E3-72D9-430C-A639-2454AC4A0BE8";
paths = (
{
closed = 1;
nodes = (
"551 302 OFFCURVE",
"515 274 OFFCURVE",
"476 274 CURVE SMOOTH",
"153 274 LINE",
"335 681 LINE",
"385 710 LINE",
"273 710 LINE",
"5 240 LINE",
"31 192 LINE",
"476 192 LINE SMOOTH",
"604 192 OFFCURVE",
"637 223 OFFCURVE",
"637 293 CURVE SMOOTH",
"637 322 OFFCURVE",
"614 342 OFFCURVE",
"592 349 CURVE",
"569 349 LINE {name = hr00;}"
);
},
{
closed = 1;
nodes = (
"319 72 OFFCURVE",
"265 59 OFFCURVE",
"202 59 CURVE",
"202 39 OFFCURVE",
"209 14 OFFCURVE",
"224 0 CURVE",
"556 0 LINE",
"571 14 OFFCURVE",
"580 39 OFFCURVE",
"580 59 CURVE",
"511 59 OFFCURVE",
"476 72 OFFCURVE",
"476 113 CURVE SMOOTH",
"476 710 LINE",
"385 710 LINE",
"319 693 LINE",
"319 114 LINE SMOOTH"
);
}
);
width = 657;
}
);
leftKerningGroup = four.osf;
rightKerningGroup = four.osf;
},
{
glyphname = five.osf;
lastChange = "2018-06-12 17:44:11 +0000";
layers = (
{
layerId = "184835E3-72D9-430C-A639-2454AC4A0BE8";
paths = (
{
closed = 1;
nodes = (
"200 -14 OFFCURVE",
"217 8 OFFCURVE",
"217 38 CURVE SMOOTH",
"217 81 OFFCURVE",
"183 112 OFFCURVE",
"137 112 CURVE SMOOTH",
"90 112 OFFCURVE",
"51 79 OFFCURVE",
"51 23 CURVE SMOOTH",
"51 -61 OFFCURVE",
"144 -121 OFFCURVE",
"285 -121 CURVE SMOOTH",
"473 -121 OFFCURVE",
"574 -14 OFFCURVE",
"574 108 CURVE SMOOTH",
"574 231 OFFCURVE",
"475 334 OFFCURVE",
"329 334 CURVE SMOOTH",
"259 334 OFFCURVE",
"210 315 OFFCURVE",
"175 296 CURVE",
"198 261 LINE",
"229 551 LINE",
"112 491 LINE",
"113 490 OFFCURVE",
"115 489 OFFCURVE",
"118 489 CURVE SMOOTH",
"138 489 OFFCURVE",
"199 516 OFFCURVE",
"211 516 CURVE SMOOTH",
"294 516 OFFCURVE",
"314 454 OFFCURVE",
"409 454 CURVE SMOOTH",
"492 454 OFFCURVE",
"541 502 OFFCURVE",
"541 563 CURVE SMOOTH",
"541 594 OFFCURVE",
"530 621 OFFCURVE",
"512 635 CURVE",
"489 635 LINE",
"457 614 OFFCURVE",
"409 604 OFFCURVE",
"335 604 CURVE SMOOTH",
"107 604 LINE",
"93 268 LINE",
"132 224 LINE",
"162 237 OFFCURVE",
"208 245 OFFCURVE",
"245 245 CURVE SMOOTH",
"328 245 OFFCURVE",
"391 181 OFFCURVE",
"391 95 CURVE SMOOTH",
"391 18 OFFCURVE",
"340 -37 OFFCURVE",
"249 -37 CURVE SMOOTH",
"209 -37 OFFCURVE",
"175 -27 OFFCURVE",
"165 -17 CURVE",
"153 -35 LINE {name = hr00;}"
);
}
);
width = 624;
}
);
leftKerningGroup = five.osf;
rightKerningGroup = five.osf;
},
{
color = 4;
glyphname = six.osf;
lastChange = "2018-06-15 17:03:02 +0000";
layers = (
{
layerId = "184835E3-72D9-430C-A639-2454AC4A0BE8";
paths = (
{
closed = 1;
nodes = (
"398 632 OFFCURVE",
"426 620 OFFCURVE",
"443 601 CURVE",
"420 588 OFFCURVE",
"406 564 OFFCURVE",
"406 538 CURVE SMOOTH",
"406 496 OFFCURVE",
"441 464 OFFCURVE",
"489 464 CURVE SMOOTH",
"541 464 OFFCURVE",
"572 503 OFFCURVE",
"572 554 CURVE SMOOTH",
"572 644 OFFCURVE",
"478 702 OFFCURVE",
"361 702 CURVE SMOOTH",
"193 702 OFFCURVE",
"53 590 OFFCURVE",
"53 334 CURVE SMOOTH",
"53 97 OFFCURVE",
"168 -13 OFFCURVE",
"333 -13 CURVE SMOOTH",
"495 -13 OFFCURVE",
"597 96 OFFCURVE",
"597 228 CURVE SMOOTH",
"597 348 OFFCURVE",
"503 427 OFFCURVE",
"379 427 CURVE SMOOTH",
"262 427 OFFCURVE",
"181 358 OFFCURVE",
"174 254 CURVE",
"217 238 LINE",
"217 308 OFFCURVE",
"264 345 OFFCURVE",
"327 345 CURVE SMOOTH",
"385 345 OFFCURVE",
"428 312 OFFCURVE",
"428 213 CURVE SMOOTH",
"428 107 OFFCURVE",
"387 62 OFFCURVE",
"336 62 CURVE SMOOTH",
"281 62 OFFCURVE",
"229 105 OFFCURVE",
"229 252 CURVE SMOOTH",
"229 274 OFFCURVE",
"229 298 OFFCURVE",
"232 324 CURVE",
"231 365 LINE",
"231 372 OFFCURVE",
"230 379 OFFCURVE",
"230 386 CURVE SMOOTH",
"230 568 OFFCURVE",
"293 632 OFFCURVE",
"366 632 CURVE SMOOTH {name = hr00;}"
);
}
);
width = 650;
}
);
leftKerningGroup = six.osf;
rightKerningGroup = six.osf;
},
{
glyphname = seven.osf;
lastChange = "2018-06-15 17:03:26 +0000";
layers = (
{
layerId = "184835E3-72D9-430C-A639-2454AC4A0BE8";
paths = (
{
closed = 1;
nodes = (
"539 589 OFFCURVE",
"490 579 OFFCURVE",
"444 579 CURVE SMOOTH",
"356 579 OFFCURVE",
"294 617 OFFCURVE",
"201 617 CURVE SMOOTH {name = hr02;}",
"93 617 OFFCURVE",
"52 566 OFFCURVE",
"52 500 CURVE SMOOTH",
"52 449 OFFCURVE",
"76 414 OFFCURVE",
"103 394 CURVE",
"131 394 LINE",
"156 437 OFFCURVE",
"201 463 OFFCURVE",
"271 463 CURVE SMOOTH",
"312 463 LINE SMOOTH",
"406 463 OFFCURVE",
"474 480 OFFCURVE",
"520 507 CURVE",
"576 616 LINE {name = hr01;}"
);
},
{
closed = 1;
nodes = (
"220 -115 OFFCURVE",
"260 -118 OFFCURVE",
"287 -118 CURVE SMOOTH",
"390 -118 OFFCURVE",
"394 -74 OFFCURVE",
"398 -40 CURVE SMOOTH",
"419 136 OFFCURVE",
"410 312 OFFCURVE",
"612 567 CURVE",
"576 617 LINE",
"548 575 LINE",
"324 324 OFFCURVE",
"225 123 OFFCURVE",
"197 -100 CURVE"
);
}
);
width = 662;
}
);
leftKerningGroup = seven.osf;
rightKerningGroup = seven.osf;
},
{
glyphname = eight.osf;
lastChange = "2018-06-12 17:44:11 +0000";
layers = (
{
layerId = "184835E3-72D9-430C-A639-2454AC4A0BE8";
paths = (
{
closed = 1;
nodes = (
"490 424 OFFCURVE",
"533 477 OFFCURVE",
"533 541 CURVE SMOOTH",
"533 614 OFFCURVE",
"476 698 OFFCURVE",
"319 698 CURVE SMOOTH",
"162 698 OFFCURVE",
"76 613 OFFCURVE",
"76 509 CURVE SMOOTH",
"76 434 OFFCURVE",
"121 381 OFFCURVE",
"182 348 CURVE",
"105 315 OFFCURVE",
"53 249 OFFCURVE",
"53 171 CURVE SMOOTH",
"53 77 OFFCURVE",
"130 -16 OFFCURVE",
"302 -16 CURVE SMOOTH",
"473 -16 OFFCURVE",
"577 76 OFFCURVE",
"577 194 CURVE SMOOTH",
"577 275 OFFCURVE",
"529 330 OFFCURVE",
"427 389 CURVE"
);
},
{
closed = 1;
nodes = (
"391 628 OFFCURVE",
"420 586 OFFCURVE",
"420 537 CURVE SMOOTH",
"420 492 OFFCURVE",
"397 455 OFFCURVE",
"353 424 CURVE",
"260 468 OFFCURVE",
"235 507 OFFCURVE",
"235 547 CURVE SMOOTH",
"235 595 OFFCURVE",
"271 628 OFFCURVE",
"327 628 CURVE SMOOTH"
);
},
{
closed = 1;
nodes = (
"226 58 OFFCURVE",
"179 116 OFFCURVE",
"179 186 CURVE SMOOTH",
"179 236 OFFCURVE",
"204 280 OFFCURVE",
"250 305 CURVE",
"371 259 OFFCURVE",
"408 213 OFFCURVE",
"408 159 CURVE SMOOTH",
"408 102 OFFCURVE",
"369 58 OFFCURVE",
"302 58 CURVE SMOOTH"
);
}
);
width = 628;
}
);
leftKerningGroup = eight.osf;
rightKerningGroup = eight.osf;
},
{
color = 4;
glyphname = nine.osf;
lastChange = "2018-06-12 20:21:36 +0000";
layers = (
{
layerId = "184835E3-72D9-430C-A639-2454AC4A0BE8";
paths = (
{
closed = 1;
nodes = (
"252 -39 OFFCURVE",
"223 -29 OFFCURVE",
"203 -4 CURVE",
"235 8 OFFCURVE",
"247 32 OFFCURVE",
"247 58 CURVE SMOOTH",
"247 105 OFFCURVE",
"209 131 OFFCURVE",
"168 131 CURVE SMOOTH",
"115 131 OFFCURVE",
"82 91 OFFCURVE",
"82 37 CURVE SMOOTH",
"82 -53 OFFCURVE",
"184 -116 OFFCURVE",
"303 -116 CURVE SMOOTH",
"455 -116 OFFCURVE",
"593 1 OFFCURVE",
"593 261 CURVE SMOOTH",
"593 476 OFFCURVE",
"511 617 OFFCURVE",
"309 617 CURVE SMOOTH",
"151 617 OFFCURVE",
"52 511 OFFCURVE",
"52 381 CURVE SMOOTH",
"52 249 OFFCURVE",
"144 172 OFFCURVE",
"271 172 CURVE SMOOTH",
"383 172 OFFCURVE",
"466 232 OFFCURVE",
"472 318 CURVE",
"429 334 LINE",
"429 282 OFFCURVE",
"383 254 OFFCURVE",
"330 254 CURVE SMOOTH",
"265 254 OFFCURVE",
"216 295 OFFCURVE",
"216 399 CURVE SMOOTH",
"216 511 OFFCURVE",
"273 544 OFFCURVE",
"318 544 CURVE SMOOTH",
"366 544 OFFCURVE",
"417 506 OFFCURVE",
"417 328 CURVE SMOOTH",
"417 305 OFFCURVE",
"416 278 OFFCURVE",
"414 248 CURVE",
"416 208 LINE",
"416 203 OFFCURVE",
"416 197 OFFCURVE",
"416 192 CURVE SMOOTH",
"416 19 OFFCURVE",
"366 -39 OFFCURVE",
"286 -39 CURVE SMOOTH {name = hr00;}"
);
}
);
width = 646;
}
);
leftKerningGroup = nine.osf;
rightKerningGroup = nine.osf;
},
{
color = 5;
glyphname = zero.osf.zero;
lastChange = "2018-06-15 17:04:32 +0000";
layers = (
{
components = (
{
name = zero.osf;
}
);
layerId = "184835E3-72D9-430C-A639-2454AC4A0BE8";
paths = (
{
closed = 1;
nodes = (
"261 32 LINE",
"461 530 LINE",
"411 562 LINE",
"210 54 LINE"
);
}
);
width = 685;
}
);
leftKerningGroup = zero;
leftMetricsKey = zero.osf;
widthMetricsKey = zero.osf;
rightKerningGroup = zero;
},
{
color = 4;
glyphname = zero.tf;
lastChange = "2018-06-12 20:26:07 +0000";
layers = (
{
layerId = "184835E3-72D9-430C-A639-2454AC4A0BE8";
paths = (
{
closed = 1;
nodes = (
"487 -13 OFFCURVE",
"592 79 OFFCURVE",
"592 336 CURVE SMOOTH",
"592 592 OFFCURVE",
"490 698 OFFCURVE",
"316 698 CURVE SMOOTH",
"144 698 OFFCURVE",
"37 594 OFFCURVE",
"37 337 CURVE SMOOTH",
"37 82 OFFCURVE",
"141 -13 OFFCURVE",
"315 -13 CURVE SMOOTH"
);
},
{
closed = 1;
nodes = (
"257 57 OFFCURVE",
"216 98 OFFCURVE",
"216 335 CURVE SMOOTH",
"216 582 OFFCURVE",
"258 628 OFFCURVE",
"316 628 CURVE SMOOTH",
"374 628 OFFCURVE",
"414 582 OFFCURVE",
"414 338 CURVE SMOOTH",
"414 98 OFFCURVE",
"373 57 OFFCURVE",
"315 57 CURVE SMOOTH {name = hr00;}"
);
}
);
width = 630;
}
);
leftKerningGroup = zero.tf;
rightKerningGroup = zero.tf;
},
{
color = 4;
glyphname = one.tf;
lastChange = "2018-06-12 20:26:07 +0000";
layers = (
{
layerId = "184835E3-72D9-430C-A639-2454AC4A0BE8";
paths = (
{
closed = 1;
nodes = (
"407 679 OFFCURVE",
"386 707 OFFCURVE",
"343 707 CURVE SMOOTH",
"324 707 OFFCURVE",
"308 698 OFFCURVE",
"284 684 CURVE SMOOTH",
"265 673 OFFCURVE",
"214 649 OFFCURVE",
"182 636 CURVE SMOOTH",
"39 580 LINE",
"66 501 LINE",
"84 509 OFFCURVE",
"232 541 OFFCURVE",
"280 541 CURVE",
"247 580 LINE",
"247 151 LINE SMOOTH",
"247 80 OFFCURVE",
"163 67 OFFCURVE",
"47 67 CURVE",
"47 47 OFFCURVE",
"56 14 OFFCURVE",
"71 0 CURVE",
"562 0 LINE",
"577 14 OFFCURVE",
"585 47 OFFCURVE",
"585 67 CURVE",
"456 67 OFFCURVE",
"407 79 OFFCURVE",
"407 150 CURVE SMOOTH",
"407 656 LINE SMOOTH {name = hr00;}"
);
}
);
width = 630;
}
);
leftKerningGroup = one.tf;
rightKerningGroup = one.tf;
},
{
color = 4;
glyphname = two.tf;
lastChange = "2018-06-12 20:26:07 +0000";
layers = (
{
layerId = "184835E3-72D9-430C-A639-2454AC4A0BE8";
paths = (
{
closed = 1;
nodes = (
"514 221 LINE",
"499 167 OFFCURVE",
"444 136 OFFCURVE",
"379 136 CURVE SMOOTH",
"311 136 LINE SMOOTH",
"262 136 OFFCURVE",
"218 126 OFFCURVE",
"172 106 CURVE",
"208 157 OFFCURVE",
"269 196 OFFCURVE",
"331 235 CURVE SMOOTH",
"438 303 OFFCURVE",
"548 372 OFFCURVE",
"548 508 CURVE SMOOTH",
"548 644 OFFCURVE",
"437 709 OFFCURVE",
"301 709 CURVE SMOOTH",
"148 709 OFFCURVE",
"52 628 OFFCURVE",
"52 537 CURVE SMOOTH",
"52 475 OFFCURVE",
"95 440 OFFCURVE",
"144 440 CURVE SMOOTH",
"189 440 OFFCURVE",
"233 471 OFFCURVE",
"233 518 CURVE SMOOTH",
"233 549 OFFCURVE",
"212 582 OFFCURVE",
"179 592 CURVE",
"200 622 OFFCURVE",
"230 639 OFFCURVE",
"269 639 CURVE SMOOTH",
"325 639 OFFCURVE",
"369 605 OFFCURVE",
"369 525 CURVE SMOOTH",
"369 424 OFFCURVE",
"301 355 OFFCURVE",
"225 279 CURVE SMOOTH",
"152 206 OFFCURVE",
"74 127 OFFCURVE",
"52 11 CURVE",
"84 -14 LINE",
"85 -13 LINE",
"85 -14 LINE",
"121 1 OFFCURVE",
"165 7 OFFCURVE",
"208 7 CURVE SMOOTH",
"249 7 OFFCURVE",
"280 2 OFFCURVE",
"310 -3 CURVE SMOOTH",
"339 -8 OFFCURVE",
"366 -13 OFFCURVE",
"401 -13 CURVE SMOOTH",
"534 -13 OFFCURVE",
"574 63 OFFCURVE",
"574 126 CURVE SMOOTH",
"574 165 OFFCURVE",
"558 202 OFFCURVE",
"538 221 CURVE"
);
}
);
width = 630;
}
);
leftKerningGroup = two.tf;
rightKerningGroup = two.tf;
},
{
color = 4;
glyphname = three.tf;
lastChange = "2018-06-12 20:26:07 +0000";
layers = (
{
layerId = "184835E3-72D9-430C-A639-2454AC4A0BE8";
paths = (
{
closed = 1;
nodes = (
"496 415 OFFCURVE",
"541 468 OFFCURVE",
"541 552 CURVE SMOOTH",
"541 653 OFFCURVE",
"440 712 OFFCURVE",
"303 712 CURVE SMOOTH",
"173 712 OFFCURVE",
"68 659 OFFCURVE",
"68 568 CURVE SMOOTH",
"68 521 OFFCURVE",
"96 488 OFFCURVE",
"146 488 CURVE SMOOTH",
"195 488 OFFCURVE",
"220 521 OFFCURVE",
"220 550 CURVE SMOOTH",
"220 576 OFFCURVE",
"202 598 OFFCURVE",
"184 605 CURVE",
"205 630 OFFCURVE",
"234 642 OFFCURVE",
"267 642 CURVE SMOOTH",
"329 642 OFFCURVE",
"363 601 OFFCURVE",
"363 535 CURVE SMOOTH",
"363 474 OFFCURVE",
"334 402 OFFCURVE",
"208 369 CURVE",
"226 318 LINE",
"268 318 LINE SMOOTH",
"355 318 OFFCURVE",
"408 259 OFFCURVE",
"408 190 CURVE SMOOTH",
"408 121 OFFCURVE",
"354 76 OFFCURVE",
"277 76 CURVE SMOOTH",
"237 76 OFFCURVE",
"197 88 OFFCURVE",
"182 102 CURVE",
"201 119 OFFCURVE",
"208 138 OFFCURVE",
"208 156 CURVE SMOOTH",
"208 192 OFFCURVE",
"179 220 OFFCURVE",
"134 220 CURVE SMOOTH",
"89 220 OFFCURVE",
"54 193 OFFCURVE",
"54 138 CURVE SMOOTH",
"54 44 OFFCURVE",
"156 -13 OFFCURVE",
"295 -13 CURVE SMOOTH",
"466 -13 OFFCURVE",
"590 73 OFFCURVE",
"590 196 CURVE SMOOTH",
"590 292 OFFCURVE",
"516 362 OFFCURVE",
"406 379 CURVE"
);
}
);
width = 630;
}
);
leftKerningGroup = three.tf;
rightKerningGroup = three.tf;
},
{
color = 4;
glyphname = four.tf;
lastChange = "2018-06-12 20:26:07 +0000";
layers = (
{
layerId = "184835E3-72D9-430C-A639-2454AC4A0BE8";
paths = (
{
closed = 1;
nodes = (
"528 294 OFFCURVE",
"504 274 OFFCURVE",
"451 274 CURVE SMOOTH",
"141 274 LINE",
"338 641 LINE",
"398 698 LINE",
"264 698 LINE",
"8 225 LINE",
"31 192 LINE",
"435 192 LINE SMOOTH",
"585 192 OFFCURVE",
"609 224 OFFCURVE",
"609 280 CURVE SMOOTH",
"609 309 OFFCURVE",
"591 334 OFFCURVE",
"569 341 CURVE",
"546 341 LINE {name = hr00;}"
);
},
{
closed = 1;
nodes = (
"321 72 OFFCURVE",
"275 59 OFFCURVE",
"212 59 CURVE",
"212 39 OFFCURVE",
"219 14 OFFCURVE",
"234 0 CURVE",
"555 0 LINE",
"570 14 OFFCURVE",
"579 39 OFFCURVE",
"579 59 CURVE",
"510 59 OFFCURVE",
"475 72 OFFCURVE",
"475 113 CURVE SMOOTH",
"475 698 LINE",
"365 698 LINE",
"321 621 LINE",
"321 114 LINE SMOOTH"
);
}
);
width = 630;
}
);
leftKerningGroup = four.tf;
rightKerningGroup = four.tf;
},
{
color = 4;
glyphname = five.tf;
lastChange = "2018-06-12 20:26:07 +0000";
layers = (
{
layerId = "184835E3-72D9-430C-A639-2454AC4A0BE8";
paths = (
{
closed = 1;
nodes = (
"298 428 OFFCURVE",
"258 417 OFFCURVE",
"226 404 CURVE",
"248 609 LINE",
"319 602 OFFCURVE",
"342 548 OFFCURVE",
"431 548 CURVE SMOOTH",
"514 548 OFFCURVE",
"564 596 OFFCURVE",
"564 657 CURVE SMOOTH",
"564 688 OFFCURVE",
"552 716 OFFCURVE",
"535 729 CURVE",
"511 729 LINE",
"479 708 OFFCURVE",
"431 698 OFFCURVE",
"357 698 CURVE SMOOTH",
"129 698 LINE",
"115 362 LINE",
"154 317 LINE",
"184 331 OFFCURVE",
"230 339 OFFCURVE",
"267 339 CURVE SMOOTH",
"350 339 OFFCURVE",
"414 295 OFFCURVE",
"414 209 CURVE SMOOTH",
"414 133 OFFCURVE",
"362 77 OFFCURVE",
"271 77 CURVE SMOOTH",
"240 77 OFFCURVE",
"213 84 OFFCURVE",
"197 91 CURVE",
"227 108 OFFCURVE",
"239 127 OFFCURVE",
"239 152 CURVE SMOOTH",
"239 195 OFFCURVE",
"205 226 OFFCURVE",
"159 226 CURVE SMOOTH",
"112 226 OFFCURVE",
"73 193 OFFCURVE",
"73 137 CURVE SMOOTH",
"73 53 OFFCURVE",
"166 -7 OFFCURVE",
"307 -7 CURVE SMOOTH",
"496 -7 OFFCURVE",
"596 100 OFFCURVE",
"596 222 CURVE SMOOTH",
"596 345 OFFCURVE",
"498 428 OFFCURVE",
"351 428 CURVE SMOOTH"
);
}
);
width = 630;
}
);
leftKerningGroup = five.tf;
rightKerningGroup = five.tf;
},
{
color = 4;
glyphname = seven.tf;
lastChange = "2018-06-12 20:26:07 +0000";
layers = (
{
layerId = "184835E3-72D9-430C-A639-2454AC4A0BE8";
paths = (
{
closed = 1;
nodes = (
"538 689 OFFCURVE",
"489 679 OFFCURVE",
"443 679 CURVE SMOOTH",
"355 679 OFFCURVE",
"263 711 OFFCURVE",
"170 711 CURVE SMOOTH {name = hr02;}",
"62 711 OFFCURVE",
"21 661 OFFCURVE",
"21 594 CURVE SMOOTH",
"21 543 OFFCURVE",
"45 508 OFFCURVE",
"72 488 CURVE",
"100 488 LINE",
"125 532 OFFCURVE",
"170 558 OFFCURVE",
"250 558 CURVE SMOOTH",
"291 558 LINE SMOOTH",
"405 558 OFFCURVE",
"473 580 OFFCURVE",
"519 606 CURVE",
"575 716 LINE {name = hr01;}"
);
},
{
closed = 1;
nodes = (
"211 -10 OFFCURVE",
"252 -13 OFFCURVE",
"279 -13 CURVE SMOOTH",
"382 -13 OFFCURVE",
"386 31 OFFCURVE",
"389 65 CURVE SMOOTH",
"405 242 OFFCURVE",
"409 411 OFFCURVE",
"611 667 CURVE",
"575 716 LINE",
"547 675 LINE",
"323 423 OFFCURVE",
"217 228 OFFCURVE",
"189 6 CURVE"
);
}
);
width = 630;
}
);
leftKerningGroup = seven.tf;
rightKerningGroup = seven.tf;
},
{
color = 4;
glyphname = eight.tf;
lastChange = "2018-06-12 20:26:07 +0000";
layers = (
{
layerId = "184835E3-72D9-430C-A639-2454AC4A0BE8";
paths = (
{
closed = 1;
nodes = (
"479 436 OFFCURVE",
"524 490 OFFCURVE",
"524 554 CURVE SMOOTH",
"524 627 OFFCURVE",
"470 711 OFFCURVE",
"319 711 CURVE SMOOTH",
"167 711 OFFCURVE",
"86 626 OFFCURVE",
"86 522 CURVE SMOOTH",
"86 447 OFFCURVE",
"133 394 OFFCURVE",
"191 350 CURVE",
"116 317 OFFCURVE",
"62 251 OFFCURVE",
"62 173 CURVE SMOOTH",
"62 79 OFFCURVE",
"137 -14 OFFCURVE",
"302 -14 CURVE SMOOTH",
"467 -14 OFFCURVE",
"567 78 OFFCURVE",
"567 196 CURVE SMOOTH",
"567 277 OFFCURVE",
"516 344 OFFCURVE",
"418 401 CURVE"
);
},
{
closed = 1;
nodes = (
"388 641 OFFCURVE",
"416 598 OFFCURVE",
"416 549 CURVE SMOOTH",
"416 505 OFFCURVE",
"390 467 OFFCURVE",
"347 436 CURVE",
"257 481 OFFCURVE",
"238 520 OFFCURVE",
"238 560 CURVE SMOOTH",
"238 607 OFFCURVE",
"272 641 OFFCURVE",
"327 641 CURVE SMOOTH"
);
},
{
closed = 1;
nodes = (
"233 60 OFFCURVE",
"189 118 OFFCURVE",
"189 188 CURVE SMOOTH",
"189 238 OFFCURVE",
"216 282 OFFCURVE",
"260 307 CURVE",
"377 261 OFFCURVE",
"408 215 OFFCURVE",
"408 161 CURVE SMOOTH",
"408 104 OFFCURVE",
"371 60 OFFCURVE",
"306 60 CURVE SMOOTH"
);
}
);
width = 630;
}
);
leftKerningGroup = eight.tf;
rightKerningGroup = eight.tf;
},
{
color = 4;
glyphname = zero.tf.zero;
lastChange = "2018-06-14 03:55:01 +0000";
layers = (
{
components = (
{
name = zero.tf;
transform = "{1, 0, 0, 1, 0, 20}";
}
);
layerId = "184835E3-72D9-430C-A639-2454AC4A0BE8";
paths = (
{
closed = 1;
nodes = (
"232 32 LINE",
"445 669 LINE",
"395 701 LINE",
"181 54 LINE"
);
}
);
width = 630;
}
);
leftKerningGroup = zero.tf.zero;
leftMetricsKey = zero.tf;
widthMetricsKey = zero.tf;
rightKerningGroup = zero.tf.zero;
},
{
color = 5;
glyphname = zero.tosf;
lastChange = "2018-06-13 15:48:13 +0000";
layers = (
{
layerId = "184835E3-72D9-430C-A639-2454AC4A0BE8";
paths = (
{
closed = 1;
nodes = (
"486 -11 OFFCURVE",
"601 70 OFFCURVE",
"601 298 CURVE SMOOTH",
"601 523 OFFCURVE",
"490 617 OFFCURVE",
"315 617 CURVE SMOOTH",
"143 617 OFFCURVE",
"29 525 OFFCURVE",
"29 298 CURVE SMOOTH",
"29 72 OFFCURVE",
"140 -11 OFFCURVE",
"314 -11 CURVE SMOOTH"
);
},
{
closed = 1;
nodes = (
"256 51 OFFCURVE",
"210 87 OFFCURVE",
"210 296 CURVE SMOOTH",
"210 515 OFFCURVE",
"258 556 OFFCURVE",
"315 556 CURVE SMOOTH",
"373 556 OFFCURVE",
"420 515 OFFCURVE",
"420 299 CURVE SMOOTH",
"420 87 OFFCURVE",
"373 51 OFFCURVE",
"315 51 CURVE SMOOTH {name = hr00;}"
);
}
);
width = 630;
}
);
leftKerningGroup = zero.tosf;
widthMetricsKey = zero.tf;
rightKerningGroup = zero.tosf;
},
{
color = 5;
glyphname = one.tosf;
lastChange = "2018-06-13 15:47:50 +0000";
layers = (
{
layerId = "184835E3-72D9-430C-A639-2454AC4A0BE8";
paths = (
{
closed = 1;
nodes = (
"418 594 OFFCURVE",
"397 622 OFFCURVE",
"354 622 CURVE",
"50 496 LINE",
"77 416 LINE",
"94 424 OFFCURVE",
"163 446 OFFCURVE",
"210 446 CURVE SMOOTH",
"241 446 OFFCURVE",
"254 434 OFFCURVE",
"254 414 CURVE SMOOTH",
"254 151 LINE SMOOTH",
"254 80 OFFCURVE",
"177 67 OFFCURVE",
"59 67 CURVE",
"59 47 OFFCURVE",
"67 14 OFFCURVE",
"82 0 CURVE",
"572 0 LINE",
"588 14 OFFCURVE",
"596 47 OFFCURVE",
"596 67 CURVE",
"466 67 OFFCURVE",
"418 79 OFFCURVE",
"418 150 CURVE SMOOTH",
"418 571 LINE SMOOTH {name = hr00;}"
);
}
);
width = 630;
}
);
leftKerningGroup = one.tosf;
widthMetricsKey = one.tf;
rightKerningGroup = one.tosf;
},
{
color = 5;
glyphname = two.tosf;
lastChange = "2018-06-13 15:46:21 +0000";
layers = (
{
layerId = "184835E3-72D9-430C-A639-2454AC4A0BE8";
paths = (
{
closed = 1;
nodes = (
"147 35 LINE",
"178 210 OFFCURVE",
"554 212 OFFCURVE",
"554 429 CURVE SMOOTH",
"554 546 OFFCURVE",
"444 617 OFFCURVE",
"307 617 CURVE SMOOTH",
"134 617 OFFCURVE",
"59 533 OFFCURVE",
"59 454 CURVE SMOOTH",
"59 401 OFFCURVE",
"103 361 OFFCURVE",
"151 361 CURVE SMOOTH",
"196 361 OFFCURVE",
"240 388 OFFCURVE",
"240 427 CURVE SMOOTH",
"240 455 OFFCURVE",
"219 493 OFFCURVE",
"186 501 CURVE",
"207 527 OFFCURVE",
"225 557 OFFCURVE",
"276 557 CURVE SMOOTH",
"331 557 OFFCURVE",
"376 513 OFFCURVE",
"376 444 CURVE SMOOTH",
"376 271 OFFCURVE",
"104 223 OFFCURVE",
"60 18 CURVE",
"91 -3 LINE {name = hr01;}"
);
},
{
closed = 1;
nodes = (
"128 10 OFFCURVE",
"171 16 OFFCURVE",
"216 16 CURVE SMOOTH",
"295 16 OFFCURVE",
"338 -2 OFFCURVE",
"407 -2 CURVE SMOOTH {name = hr02;}",
"541 -2 OFFCURVE",
"580 65 OFFCURVE",
"580 119 CURVE SMOOTH",
"580 152 OFFCURVE",
"565 184 OFFCURVE",
"545 200 CURVE",
"520 200 LINE",
"506 153 OFFCURVE",
"451 127 OFFCURVE",
"386 127 CURVE SMOOTH {name = hr03;}",
"318 127 LINE SMOOTH",
"260 127 OFFCURVE",
"210 115 OFFCURVE",
"156 92 CURVE",
"91 -3 LINE"
);
}
);
width = 630;
}
);
leftKerningGroup = two.tosf;
widthMetricsKey = two.tf;
rightKerningGroup = two.tosf;
},
{
color = 5;
glyphname = four.tosf;
lastChange = "2018-06-13 15:42:21 +0000";
layers = (
{
layerId = "184835E3-72D9-430C-A639-2454AC4A0BE8";
paths = (
{
closed = 1;
nodes = (
"528 294 OFFCURVE",
"504 274 OFFCURVE",
"451 274 CURVE SMOOTH",
"141 274 LINE",
"338 641 LINE",
"398 698 LINE",
"264 698 LINE",
"8 225 LINE",
"31 192 LINE",
"435 192 LINE SMOOTH",
"585 192 OFFCURVE",
"609 224 OFFCURVE",
"609 280 CURVE SMOOTH",
"609 309 OFFCURVE",
"591 334 OFFCURVE",
"569 341 CURVE",
"546 341 LINE {name = hr00;}"
);
},
{
closed = 1;
nodes = (
"321 72 OFFCURVE",
"275 59 OFFCURVE",
"212 59 CURVE",
"212 39 OFFCURVE",
"219 14 OFFCURVE",
"234 0 CURVE",
"555 0 LINE",
"570 14 OFFCURVE",
"579 39 OFFCURVE",
"579 59 CURVE",
"510 59 OFFCURVE",
"475 72 OFFCURVE",
"475 113 CURVE SMOOTH",
"475 698 LINE",
"365 698 LINE",
"321 621 LINE",
"321 114 LINE SMOOTH"
);
}
);
width = 630;
}
);
leftKerningGroup = four.tosf;
leftMetricsKey = four.tf;
widthMetricsKey = four.tf;
rightKerningGroup = four.tosf;
},
{
color = 5;
glyphname = five.tosf;
lastChange = "2018-06-13 15:44:52 +0000";
layers = (
{
background = {
paths = (
{
closed = 1;
nodes = (
"200 -122 OFFCURVE",
"217 -100 OFFCURVE",
"217 -70 CURVE SMOOTH",
"217 -27 OFFCURVE",
"183 4 OFFCURVE",
"137 4 CURVE SMOOTH",
"90 4 OFFCURVE",
"51 -29 OFFCURVE",
"51 -85 CURVE SMOOTH",
"51 -169 OFFCURVE",
"144 -229 OFFCURVE",
"285 -229 CURVE SMOOTH",
"473 -229 OFFCURVE",
"574 -122 OFFCURVE",
"574 0 CURVE SMOOTH",
"574 123 OFFCURVE",
"475 226 OFFCURVE",
"329 226 CURVE SMOOTH",
"259 226 OFFCURVE",
"210 207 OFFCURVE",
"175 188 CURVE",
"198 153 LINE",
"229 443 LINE",
"112 383 LINE",
"113 382 OFFCURVE",
"115 381 OFFCURVE",
"118 381 CURVE SMOOTH",
"138 381 OFFCURVE",
"199 408 OFFCURVE",
"211 408 CURVE SMOOTH",
"294 408 OFFCURVE",
"314 346 OFFCURVE",
"409 346 CURVE SMOOTH",
"492 346 OFFCURVE",
"541 394 OFFCURVE",
"541 455 CURVE SMOOTH",
"541 486 OFFCURVE",
"530 513 OFFCURVE",
"512 527 CURVE",
"489 527 LINE",
"457 506 OFFCURVE",
"409 496 OFFCURVE",
"335 496 CURVE SMOOTH",
"107 496 LINE",
"93 160 LINE",
"132 116 LINE",
"162 129 OFFCURVE",
"208 137 OFFCURVE",
"245 137 CURVE SMOOTH",
"328 137 OFFCURVE",
"391 73 OFFCURVE",
"391 -13 CURVE SMOOTH",
"391 -90 OFFCURVE",
"340 -145 OFFCURVE",
"249 -145 CURVE SMOOTH",
"209 -145 OFFCURVE",
"175 -135 OFFCURVE",
"165 -125 CURVE",
"153 -143 LINE {name = hr00;}"
);
}
);
};
components = (
{
name = five.tf;
}
);
layerId = "184835E3-72D9-430C-A639-2454AC4A0BE8";
width = 630;
}
);
leftKerningGroup = five.tosf;
leftMetricsKey = five.tf;
widthMetricsKey = five.tf;
rightKerningGroup = five.tosf;
},
{
color = 5;
glyphname = seven.tosf;
lastChange = "2018-06-13 15:44:18 +0000";
layers = (
{
background = {
paths = (
{
closed = 1;
nodes = (
"531 478 OFFCURVE",
"481 468 OFFCURVE",
"436 468 CURVE SMOOTH",
"348 468 OFFCURVE",
"286 506 OFFCURVE",
"193 506 CURVE SMOOTH {name = hr02;}",
"85 506 OFFCURVE",
"44 455 OFFCURVE",
"44 389 CURVE SMOOTH",
"44 338 OFFCURVE",
"69 303 OFFCURVE",
"95 283 CURVE",
"123 283 LINE",
"148 326 OFFCURVE",
"193 352 OFFCURVE",
"262 352 CURVE SMOOTH",
"304 352 LINE SMOOTH",
"397 352 OFFCURVE",
"466 369 OFFCURVE",
"512 396 CURVE",
"568 505 LINE {name = hr01;}"
);
},
{
closed = 1;
nodes = (
"212 -226 OFFCURVE",
"252 -229 OFFCURVE",
"279 -229 CURVE SMOOTH",
"382 -229 OFFCURVE",
"386 -185 OFFCURVE",
"389 -151 CURVE SMOOTH",
"405 26 OFFCURVE",
"402 201 OFFCURVE",
"603 456 CURVE",
"568 506 LINE",
"540 464 LINE",
"316 213 OFFCURVE",
"217 12 OFFCURVE",
"189 -211 CURVE"
);
}
);
};
layerId = "184835E3-72D9-430C-A639-2454AC4A0BE8";
paths = (
{
closed = 1;
nodes = (
"538 473 OFFCURVE",
"489 463 OFFCURVE",
"443 463 CURVE SMOOTH",
"355 463 OFFCURVE",
"263 495 OFFCURVE",
"170 495 CURVE SMOOTH {name = hr02;}",
"62 495 OFFCURVE",
"21 445 OFFCURVE",
"21 378 CURVE SMOOTH",
"21 327 OFFCURVE",
"45 292 OFFCURVE",
"72 272 CURVE",
"100 272 LINE",
"125 316 OFFCURVE",
"170 342 OFFCURVE",
"250 342 CURVE SMOOTH",
"291 342 LINE SMOOTH",
"405 342 OFFCURVE",
"473 364 OFFCURVE",
"519 390 CURVE",
"575 500 LINE {name = hr01;}"
);
},
{
closed = 1;
nodes = (
"211 -226 OFFCURVE",
"252 -229 OFFCURVE",
"279 -229 CURVE SMOOTH",
"382 -229 OFFCURVE",
"386 -185 OFFCURVE",
"389 -151 CURVE SMOOTH",
"405 26 OFFCURVE",
"409 195 OFFCURVE",
"611 451 CURVE",
"575 500 LINE",
"547 459 LINE",
"323 207 OFFCURVE",
"217 12 OFFCURVE",
"189 -210 CURVE"
);
}
);
width = 630;
}
);
leftKerningGroup = seven.tosf;
leftMetricsKey = seven.tf;
widthMetricsKey = seven.tf;
rightKerningGroup = seven.tosf;
},
{
color = 5;
glyphname = zero.tosf.zero;
lastChange = "2018-06-13 15:48:34 +0000";
layers = (
{
components = (
{
name = zero.tosf;
}
);
layerId = "184835E3-72D9-430C-A639-2454AC4A0BE8";
paths = (
{
closed = 1;
nodes = (
"233 32 LINE",
"440 530 LINE",
"390 562 LINE",
"182 54 LINE"
);
}
);
width = 630;
}
);
leftKerningGroup = zero.tosf.zero;
leftMetricsKey = zero.tosf;
widthMetricsKey = zero.tosf;
rightKerningGroup = zero.tosf.zero;
},
{
glyphname = zero.zero;
lastChange = "2018-06-15 17:03:48 +0000";
layers = (
{
components = (
{
name = zero;
transform = "{1, 0, 0, 1, 0, 20}";
}
);
layerId = "184835E3-72D9-430C-A639-2454AC4A0BE8";
paths = (
{
closed = 1;
nodes = (
"261 32 LINE",
"474 676 LINE",
"424 708 LINE",
"210 54 LINE"
);
}
);
width = 663;
}
);
leftKerningGroup = zero;
leftMetricsKey = zero;
widthMetricsKey = zero;
rightKerningGroup = zero;
},
{
color = 4;
glyphname = zero.dnom;
lastChange = "2018-06-13 15:17:26 +0000";
layers = (
{
layerId = "184835E3-72D9-430C-A639-2454AC4A0BE8";
paths = (
{
closed = 1;
nodes = (
"351 -13 OFFCURVE",
"430 60 OFFCURVE",
"430 210 CURVE SMOOTH",
"430 361 OFFCURVE",
"352 421 OFFCURVE",
"234 421 CURVE SMOOTH",
"116 421 OFFCURVE",
"35 360 OFFCURVE",
"35 209 CURVE SMOOTH",
"35 59 OFFCURVE",
"113 -13 OFFCURVE",
"233 -13 CURVE SMOOTH"
);
},
{
closed = 1;
nodes = (
"194 28 OFFCURVE",
"161 70 OFFCURVE",
"161 209 CURVE SMOOTH",
"161 356 OFFCURVE",
"194 380 OFFCURVE",
"234 380 CURVE SMOOTH",
"274 380 OFFCURVE",
"305 353 OFFCURVE",
"305 209 CURVE SMOOTH",
"305 67 OFFCURVE",
"273 28 OFFCURVE",
"233 28 CURVE SMOOTH {name = hr00;}"
);
}
);
width = 465;
}
);
leftKerningGroup = zero.dnom;
rightKerningGroup = zero.dnom;
userData = {
com.typemytype.robofont.guides = (
{
angle = 0;
isGlobal = 0;
magnetic = 5;
x = 0;
y = -27;
}
);
};
},
{
color = 4;
glyphname = one.dnom;
lastChange = "2018-06-13 15:15:55 +0000";
layers = (
{
layerId = "184835E3-72D9-430C-A639-2454AC4A0BE8";
paths = (
{
closed = 1;
nodes = (
"238 401 OFFCURVE",
"229 420 OFFCURVE",
"199 420 CURVE SMOOTH",
"186 420 OFFCURVE",
"119 404 OFFCURVE",
"89 396 CURVE SMOOTH",
"38 383 LINE",
"55 333 LINE",
"68 337 OFFCURVE",
"89 341 OFFCURVE",
"102 341 CURVE SMOOTH",
"126 341 OFFCURVE",
"134 312 OFFCURVE",
"134 301 CURVE SMOOTH",
"134 101 LINE SMOOTH",
"134 59 OFFCURVE",
"93 51 OFFCURVE",
"46 51 CURVE",
"46 41 OFFCURVE",
"52 7 OFFCURVE",
"63 0 CURVE",
"305 0 LINE",
"315 7 OFFCURVE",
"320 41 OFFCURVE",
"320 51 CURVE",
"274 51 OFFCURVE",
"238 59 OFFCURVE",
"238 101 CURVE SMOOTH",
"238 387 LINE SMOOTH {name = hr00;}"
);
}
);
width = 350;
}
);
leftKerningGroup = one.dnom;
rightKerningGroup = one.dnom;
},
{
color = 4;
glyphname = two.dnom;
lastChange = "2018-06-13 15:15:46 +0000";
layers = (
{
layerId = "184835E3-72D9-430C-A639-2454AC4A0BE8";
paths = (
{
closed = 1;
nodes = (
"346 132 LINE",
"337 101 OFFCURVE",
"298 82 OFFCURVE",
"254 82 CURVE SMOOTH {name = hr03;}",
"207 82 LINE SMOOTH",
"175 82 OFFCURVE",
"144 77 OFFCURVE",
"112 66 CURVE",
"137 95 OFFCURVE",
"179 118 OFFCURVE",
"219 141 CURVE SMOOTH",
"292 183 OFFCURVE",
"370 216 OFFCURVE",
"370 297 CURVE SMOOTH",
"370 377 OFFCURVE",
"293 421 OFFCURVE",
"200 421 CURVE SMOOTH",
"97 421 OFFCURVE",
"32 374 OFFCURVE",
"32 310 CURVE SMOOTH",
"32 275 OFFCURVE",
"59 254 OFFCURVE",
"94 254 CURVE SMOOTH",
"124 254 OFFCURVE",
"150 273 OFFCURVE",
"150 300 CURVE SMOOTH",
"150 319 OFFCURVE",
"138 338 OFFCURVE",
"116 345 CURVE",
"128 367 OFFCURVE",
"152 379 OFFCURVE",
"178 379 CURVE SMOOTH",
"216 379 OFFCURVE",
"246 351 OFFCURVE",
"246 304 CURVE SMOOTH",
"246 244 OFFCURVE",
"200 210 OFFCURVE",
"148 168 CURVE SMOOTH",
"97 127 OFFCURVE",
"45 77 OFFCURVE",
"30 8 CURVE",
"53 -6 LINE {name = hr01;}",
"54 -5 LINE",
"53 -6 LINE",
"77 2 OFFCURVE",
"106 5 OFFCURVE",
"136 5 CURVE SMOOTH",
"165 5 OFFCURVE",
"193 3 OFFCURVE",
"213 0 CURVE SMOOTH",
"233 -3 OFFCURVE",
"252 -5 OFFCURVE",
"275 -5 CURVE SMOOTH {name = hr02;}",
"365 -5 OFFCURVE",
"387 40 OFFCURVE",
"387 76 CURVE SMOOTH",
"387 100 OFFCURVE",
"376 122 OFFCURVE",
"361 132 CURVE"
);
}
);
width = 427;
}
);
leftKerningGroup = two.dnom;
rightKerningGroup = two.dnom;
},
{
color = 4;
glyphname = three.dnom;
lastChange = "2018-06-13 15:16:14 +0000";
layers = (
{
layerId = "184835E3-72D9-430C-A639-2454AC4A0BE8";
paths = (
{
closed = 1;
nodes = (
"318 242 OFFCURVE",
"346 273 OFFCURVE",
"346 323 CURVE SMOOTH {name = hr00;}",
"346 381 OFFCURVE",
"280 421 OFFCURVE",
"190 421 CURVE SMOOTH",
"107 421 OFFCURVE",
"39 385 OFFCURVE",
"39 332 CURVE SMOOTH",
"39 304 OFFCURVE",
"57 284 OFFCURVE",
"90 284 CURVE SMOOTH",
"122 284 OFFCURVE",
"138 304 OFFCURVE",
"138 321 CURVE SMOOTH",
"138 336 OFFCURVE",
"126 349 OFFCURVE",
"116 353 CURVE",
"128 368 OFFCURVE",
"148 380 OFFCURVE",
"169 379 CURVE SMOOTH",
"208 377 OFFCURVE",
"230 351 OFFCURVE",
"230 311 CURVE SMOOTH",
"230 276 OFFCURVE",
"220 240 OFFCURVE",
"138 219 CURVE",
"151 182 LINE",
"169 182 LINE SMOOTH",
"226 182 OFFCURVE",
"259 149 OFFCURVE",
"259 109 CURVE SMOOTH",
"259 67 OFFCURVE",
"226 42 OFFCURVE",
"175 40 CURVE SMOOTH",
"149 39 OFFCURVE",
"123 48 OFFCURVE",
"112 58 CURVE",
"126 67 OFFCURVE",
"129 79 OFFCURVE",
"129 89 CURVE SMOOTH",
"129 109 OFFCURVE",
"110 127 OFFCURVE",
"81 126 CURVE SMOOTH",
"52 125 OFFCURVE",
"30 111 OFFCURVE",
"30 77 CURVE SMOOTH",
"30 22 OFFCURVE",
"96 -11 OFFCURVE",
"187 -11 CURVE SMOOTH",
"299 -11 OFFCURVE",
"378 40 OFFCURVE",
"378 112 CURVE SMOOTH",
"378 169 OFFCURVE",
"332 209 OFFCURVE",
"260 220 CURVE"
);
}
);
width = 418;
}
);
leftKerningGroup = three.dnom;
rightKerningGroup = three.dnom;
},
{
color = 4;
glyphname = four.dnom;
lastChange = "2018-06-13 15:14:12 +0000";
layers = (
{
layerId = "184835E3-72D9-430C-A639-2454AC4A0BE8";
paths = (
{
closed = 1;
nodes = (
"384 177 OFFCURVE",
"358 162 OFFCURVE",
"321 162 CURVE SMOOTH",
"85 162 LINE",
"227 373 LINE",
"266 413 LINE",
"199 413 LINE",
"0 141 LINE",
"16 112 LINE",
"304 112 LINE SMOOTH",
"407 112 OFFCURVE",
"438 136 OFFCURVE",
"438 170 CURVE SMOOTH",
"438 186 OFFCURVE",
"427 202 OFFCURVE",
"411 206 CURVE",
"395 206 LINE {name = hr00;}"
);
},
{
closed = 1;
nodes = (
"209 43 OFFCURVE",
"177 34 OFFCURVE",
"135 34 CURVE",
"135 24 OFFCURVE",
"140 8 OFFCURVE",
"149 0 CURVE",
"376 0 LINE",
"387 8 OFFCURVE",
"393 24 OFFCURVE",
"393 34 CURVE",
"346 34 OFFCURVE",
"321 43 OFFCURVE",
"321 68 CURVE SMOOTH",
"321 413 LINE",
"266 413 LINE",
"209 368 LINE",
"209 68 LINE SMOOTH"
);
}
);
width = 438;
}
);
leftKerningGroup = four.dnom;
rightKerningGroup = four.dnom;
},
{
color = 4;
glyphname = five.dnom;
lastChange = "2018-06-13 15:14:48 +0000";
layers = (
{
layerId = "184835E3-72D9-430C-A639-2454AC4A0BE8";
paths = (
{
closed = 1;
nodes = (
"200 261 OFFCURVE",
"167 252 OFFCURVE",
"145 245 CURVE",
"160 359 LINE",
"209 355 OFFCURVE",
"224 327 OFFCURVE",
"286 327 CURVE SMOOTH",
"341 327 OFFCURVE",
"375 352 OFFCURVE",
"375 388 CURVE SMOOTH",
"375 406 OFFCURVE",
"368 424 OFFCURVE",
"355 430 CURVE",
"339 430 LINE",
"318 420 OFFCURVE",
"286 413 OFFCURVE",
"235 413 CURVE SMOOTH",
"79 413 LINE",
"69 222 LINE",
"95 195 LINE",
"116 203 OFFCURVE",
"147 207 OFFCURVE",
"173 207 CURVE SMOOTH",
"229 207 OFFCURVE",
"272 170 OFFCURVE",
"272 120 CURVE SMOOTH",
"272 74 OFFCURVE",
"238 42 OFFCURVE",
"175 42 CURVE SMOOTH",
"153 42 OFFCURVE",
"136 44 OFFCURVE",
"125 50 CURVE",
"146 61 OFFCURVE",
"153 70 OFFCURVE",
"153 86 CURVE SMOOTH",
"153 110 OFFCURVE",
"129 129 OFFCURVE",
"99 129 CURVE SMOOTH",
"67 129 OFFCURVE",
"40 108 OFFCURVE",
"40 76 CURVE SMOOTH",
"40 26 OFFCURVE",
"108 -8 OFFCURVE",
"203 -8 CURVE SMOOTH",
"333 -8 OFFCURVE",
"398 61 OFFCURVE",
"398 133 CURVE SMOOTH",
"398 205 OFFCURVE",
"348 261 OFFCURVE",
"235 261 CURVE SMOOTH"
);
}
);
width = 438;
}
);
leftKerningGroup = five.dnom;
rightKerningGroup = five.dnom;
},
{
color = 4;
glyphname = six.dnom;
lastChange = "2018-06-13 15:17:55 +0000";
layers = (
{
layerId = "184835E3-72D9-430C-A639-2454AC4A0BE8";
paths = (
{
closed = 1;
nodes = (
"216 252 OFFCURVE",
"181 242 OFFCURVE",
"155 223 CURVE",
"155 224 OFFCURVE",
"155 226 OFFCURVE",
"155 228 CURVE SMOOTH",
"155 341 OFFCURVE",
"199 379 OFFCURVE",
"250 379 CURVE SMOOTH {name = hr00;}",
"271 379 OFFCURVE",
"291 372 OFFCURVE",
"301 360 CURVE",
"287 353 OFFCURVE",
"277 338 OFFCURVE",
"277 324 CURVE SMOOTH",
"277 299 OFFCURVE",
"300 279 OFFCURVE",
"333 279 CURVE SMOOTH",
"370 279 OFFCURVE",
"391 304 OFFCURVE",
"391 333 CURVE SMOOTH",
"391 386 OFFCURVE",
"326 421 OFFCURVE",
"247 421 CURVE SMOOTH",
"129 421 OFFCURVE",
"35 349 OFFCURVE",
"35 195 CURVE SMOOTH",
"35 57 OFFCURVE",
"114 -11 OFFCURVE",
"227 -11 CURVE SMOOTH",
"336 -11 OFFCURVE",
"407 53 OFFCURVE",
"407 131 CURVE SMOOTH",
"407 205 OFFCURVE",
"343 252 OFFCURVE",
"258 252 CURVE SMOOTH"
);
},
{
closed = 1;
nodes = (
"191 34 OFFCURVE",
"155 63 OFFCURVE",
"155 148 CURVE SMOOTH",
"155 157 OFFCURVE",
"155 165 OFFCURVE",
"155 174 CURVE",
"170 195 OFFCURVE",
"193 203 OFFCURVE",
"223 203 CURVE SMOOTH",
"263 203 OFFCURVE",
"293 183 OFFCURVE",
"293 122 CURVE SMOOTH",
"293 61 OFFCURVE",
"264 34 OFFCURVE",
"229 34 CURVE SMOOTH"
);
}
);
width = 437;
}
);
leftKerningGroup = six.dnom;
rightKerningGroup = six.dnom;
},
{
color = 4;
glyphname = seven.dnom;
lastChange = "2018-06-13 15:15:07 +0000";
layers = (
{
layerId = "184835E3-72D9-430C-A639-2454AC4A0BE8";
paths = (
{
closed = 1;
nodes = (
"344 414 LINE",
"321 401 OFFCURVE",
"291 394 OFFCURVE",
"263 394 CURVE SMOOTH",
"208 394 OFFCURVE",
"170 419 OFFCURVE",
"113 419 CURVE SMOOTH {name = hr02;}",
"46 419 OFFCURVE",
"20 386 OFFCURVE",
"20 347 CURVE SMOOTH",
"20 317 OFFCURVE",
"32 297 OFFCURVE",
"48 283 CURVE",
"72 283 LINE",
"87 310 OFFCURVE",
"104 326 OFFCURVE",
"147 326 CURVE SMOOTH",
"172 326 LINE SMOOTH",
"214 326 OFFCURVE",
"243 331 OFFCURVE",
"269 339 CURVE",
"165 215 OFFCURVE",
"122 113 OFFCURVE",
"108 -4 CURVE",
"121 -13 OFFCURVE",
"157 -14 OFFCURVE",
"173 -14 CURVE SMOOTH",
"237 -14 OFFCURVE",
"240 13 OFFCURVE",
"242 32 CURVE SMOOTH",
"251 136 OFFCURVE",
"242 236 OFFCURVE",
"367 386 CURVE",
"344 416 LINE {name = hr01;}"
);
}
);
width = 377;
}
);
leftKerningGroup = seven.dnom;
rightKerningGroup = seven.dnom;
userData = {
com.typemytype.robofont.guides = (
{
angle = 0;
isGlobal = 0;
magnetic = 5;
x = 0;
y = -32;
}
);
};
},
{
color = 4;
glyphname = eight.dnom;
lastChange = "2018-06-13 15:16:38 +0000";
layers = (
{
layerId = "184835E3-72D9-430C-A639-2454AC4A0BE8";
paths = (
{
closed = 1;
nodes = (
"354 249 OFFCURVE",
"384 280 OFFCURVE",
"384 319 CURVE SMOOTH",
"384 363 OFFCURVE",
"344 421 OFFCURVE",
"231 421 CURVE SMOOTH",
"118 421 OFFCURVE",
"56 362 OFFCURVE",
"56 300 CURVE SMOOTH",
"56 254 OFFCURVE",
"89 225 OFFCURVE",
"132 198 CURVE",
"77 178 OFFCURVE",
"40 142 OFFCURVE",
"40 98 CURVE SMOOTH",
"40 42 OFFCURVE",
"94 -9 OFFCURVE",
"219 -9 CURVE SMOOTH",
"341 -9 OFFCURVE",
"416 40 OFFCURVE",
"416 111 CURVE SMOOTH",
"416 159 OFFCURVE",
"381 195 OFFCURVE",
"308 229 CURVE"
);
},
{
closed = 1;
nodes = (
"283 379 OFFCURVE",
"303 345 OFFCURVE",
"303 316 CURVE SMOOTH",
"303 290 OFFCURVE",
"287 268 OFFCURVE",
"255 249 CURVE",
"188 275 OFFCURVE",
"170 298 OFFCURVE",
"170 322 CURVE SMOOTH",
"170 350 OFFCURVE",
"196 379 OFFCURVE",
"236 379 CURVE SMOOTH"
);
},
{
closed = 1;
nodes = (
"164 35 OFFCURVE",
"130 65 OFFCURVE",
"130 105 CURVE SMOOTH",
"130 136 OFFCURVE",
"149 159 OFFCURVE",
"181 173 CURVE",
"268 145 OFFCURVE",
"296 122 OFFCURVE",
"296 90 CURVE SMOOTH",
"296 57 OFFCURVE",
"266 35 OFFCURVE",
"218 35 CURVE SMOOTH"
);
}
);
width = 456;
}
);
leftKerningGroup = eight.dnom;
rightKerningGroup = eight.dnom;
},
{
color = 4;
glyphname = nine.dnom;
lastChange = "2018-06-13 15:17:51 +0000";
layers = (
{
layerId = "184835E3-72D9-430C-A639-2454AC4A0BE8";
paths = (
{
closed = 1;
nodes = (
"99 421 OFFCURVE",
"30 357 OFFCURVE",
"30 280 CURVE SMOOTH",
"30 203 OFFCURVE",
"92 151 OFFCURVE",
"180 151 CURVE SMOOTH",
"219 151 OFFCURVE",
"253 161 OFFCURVE",
"278 177 CURVE",
"278 163 LINE SMOOTH",
"278 66 OFFCURVE",
"241 36 OFFCURVE",
"185 36 CURVE SMOOTH {name = hr00;}",
"164 36 OFFCURVE",
"146 38 OFFCURVE",
"133 54 CURVE",
"155 60 OFFCURVE",
"164 73 OFFCURVE",
"164 90 CURVE SMOOTH",
"164 117 OFFCURVE",
"138 131 OFFCURVE",
"109 131 CURVE SMOOTH",
"74 131 OFFCURVE",
"50 109 OFFCURVE",
"50 77 CURVE SMOOTH",
"50 23 OFFCURVE",
"117 -9 OFFCURVE",
"198 -9 CURVE SMOOTH",
"309 -9 OFFCURVE",
"400 59 OFFCURVE",
"400 205 CURVE SMOOTH",
"400 216 LINE SMOOTH",
"400 354 OFFCURVE",
"323 421 OFFCURVE",
"208 421 CURVE SMOOTH"
);
},
{
closed = 1;
nodes = (
"175 200 OFFCURVE",
"142 230 OFFCURVE",
"142 291 CURVE SMOOTH",
"142 357 OFFCURVE",
"182 377 OFFCURVE",
"212 377 CURVE SMOOTH",
"245 377 OFFCURVE",
"279 354 OFFCURVE",
"279 243 CURVE SMOOTH",
"279 237 OFFCURVE",
"279 230 OFFCURVE",
"279 222 CURVE",
"266 206 OFFCURVE",
"245 200 OFFCURVE",
"220 200 CURVE SMOOTH"
);
}
);
width = 435;
}
);
leftKerningGroup = nine.dnom;
rightKerningGroup = nine.dnom;
},
{
glyphname = fraction;
lastChange = "2018-06-12 18:45:37 +0000";
layers = (
{
layerId = "184835E3-72D9-430C-A639-2454AC4A0BE8";
paths = (
{
closed = 1;
nodes = (
"-135 -10 LINE",
"299 731 LINE",
"233 731 LINE",
"-200 -11 LINE"
);
}
);
width = 99;
}
);
leftKerningGroup = fraction;
rightKerningGroup = fraction;
unicode = 2044;
},
{
color = 4;
glyphname = period;
lastChange = "2018-06-15 17:02:28 +0000";
layers = (
{
layerId = "184835E3-72D9-430C-A639-2454AC4A0BE8";
paths = (
{
closed = 1;
nodes = (
"231 146 OFFCURVE",
"190 185 OFFCURVE",
"130 185 CURVE SMOOTH",
"69 185 OFFCURVE",
"28 146 OFFCURVE",
"28 86 CURVE SMOOTH",
"28 27 OFFCURVE",
"69 -13 OFFCURVE",
"130 -13 CURVE SMOOTH",
"190 -13 OFFCURVE",
"231 27 OFFCURVE",
"231 86 CURVE SMOOTH {name = hr00;}"
);
}
);
width = 259;
}
);
leftKerningGroup = period;
rightKerningGroup = period;
unicode = 002E;
},
{
glyphname = comma;
lastChange = "2018-06-15 03:43:51 +0000";
layers = (
{
layerId = "184835E3-72D9-430C-A639-2454AC4A0BE8";
paths = (
{
closed = 1;
nodes = (
"156 -194 OFFCURVE",
"244 -98 OFFCURVE",
"244 32 CURVE SMOOTH",
"244 130 OFFCURVE",
"193 179 OFFCURVE",
"127 179 CURVE SMOOTH",
"69 179 OFFCURVE",
"28 140 OFFCURVE",
"28 80 CURVE SMOOTH",
"28 32 OFFCURVE",
"60 -13 OFFCURVE",
"121 -13 CURVE SMOOTH",
"126 -13 OFFCURVE",
"131 -12 OFFCURVE",
"136 -11 CURVE",
"137 -16 OFFCURVE",
"138 -20 OFFCURVE",
"138 -24 CURVE SMOOTH",
"138 -79 OFFCURVE",
"97 -137 OFFCURVE",
"36 -171 CURVE",
"36 -192 OFFCURVE",
"52 -213 OFFCURVE",
"68 -218 CURVE {name = hr00;}"
);
}
);
width = 259;
}
);
leftKerningGroup = period;
leftMetricsKey = period;
widthMetricsKey = period;
rightKerningGroup = period;
unicode = 002C;
},
{
color = 4;
glyphname = exclam;
lastChange = "2018-06-15 13:47:54 +0000";
layers = (
{
layerId = "184835E3-72D9-430C-A639-2454AC4A0BE8";
paths = (
{
closed = 1;
nodes = (
"230 146 OFFCURVE",
"190 185 OFFCURVE",
"128 185 CURVE SMOOTH",
"68 185 OFFCURVE",
"28 146 OFFCURVE",
"28 86 CURVE SMOOTH",
"28 27 OFFCURVE",
"68 -13 OFFCURVE",
"128 -13 CURVE SMOOTH",
"190 -13 OFFCURVE",
"230 27 OFFCURVE",
"230 86 CURVE SMOOTH {name = hr00;}"
);
},
{
closed = 1;
nodes = (
"219 699 LINE SMOOTH",
"220 707 OFFCURVE",
"221 714 OFFCURVE",
"221 720 CURVE SMOOTH",
"221 768 OFFCURVE",
"195 788 OFFCURVE",
"150 788 CURVE SMOOTH",
"107 788 LINE SMOOTH",
"62 788 OFFCURVE",
"37 768 OFFCURVE",
"37 720 CURVE SMOOTH",
"37 714 OFFCURVE",
"37 707 OFFCURVE",
"38 699 CURVE SMOOTH",
"87 308 LINE",
"169 308 LINE"
);
}
);
width = 258;
}
);
leftKerningGroup = exclam;
rightKerningGroup = exclam;
unicode = 0021;
userData = {
com.typemytype.robofont.guides = (
{
angle = 90;
isGlobal = 0;
magnetic = 5;
x = 429;
y = 0;
}
);
};
},
{
color = 4;
glyphname = exclamdown;
lastChange = "2018-06-15 03:05:50 +0000";
layers = (
{
layerId = "184835E3-72D9-430C-A639-2454AC4A0BE8";
paths = (
{
closed = 1;
nodes = (
"28 370 OFFCURVE",
"68 331 OFFCURVE",
"129 331 CURVE SMOOTH",
"190 331 OFFCURVE",
"230 370 OFFCURVE",
"230 429 CURVE SMOOTH",
"230 489 OFFCURVE",
"190 529 OFFCURVE",
"129 529 CURVE SMOOTH",
"68 529 OFFCURVE",
"28 489 OFFCURVE",
"28 429 CURVE SMOOTH {name = hr00;}"
);
},
{
closed = 1;
nodes = (
"38 -183 LINE SMOOTH",
"37 -191 OFFCURVE",
"37 -198 OFFCURVE",
"37 -204 CURVE SMOOTH",
"37 -252 OFFCURVE",
"62 -272 OFFCURVE",
"108 -272 CURVE SMOOTH",
"151 -272 LINE SMOOTH",
"195 -272 OFFCURVE",
"221 -252 OFFCURVE",
"221 -204 CURVE SMOOTH",
"221 -198 OFFCURVE",
"220 -191 OFFCURVE",
"219 -183 CURVE SMOOTH",
"170 208 LINE",
"88 208 LINE"
);
}
);
width = 258;
}
);
leftKerningGroup = exclamdown;
rightKerningGroup = exclamdown;
unicode = 00A1;
},
{
color = 4;
glyphname = question;
lastChange = "2018-06-15 03:06:07 +0000";
layers = (
{
layerId = "184835E3-72D9-430C-A639-2454AC4A0BE8";
paths = (
{
closed = 1;
nodes = (
"368 146 OFFCURVE",
"329 185 OFFCURVE",
"267 185 CURVE SMOOTH",
"206 185 OFFCURVE",
"167 146 OFFCURVE",
"167 86 CURVE SMOOTH",
"167 27 OFFCURVE",
"206 -13 OFFCURVE",
"267 -13 CURVE SMOOTH",
"329 -13 OFFCURVE",
"368 27 OFFCURVE",
"368 86 CURVE SMOOTH {name = hr00;}"
);
},
{
closed = 1;
nodes = (
"117 784 OFFCURVE",
"20 696 OFFCURVE",
"20 599 CURVE SMOOTH",
"20 527 OFFCURVE",
"75 489 OFFCURVE",
"123 489 CURVE SMOOTH",
"169 489 OFFCURVE",
"212 524 OFFCURVE",
"212 573 CURVE SMOOTH",
"212 616 OFFCURVE",
"178 644 OFFCURVE",
"145 655 CURVE",
"165 688 OFFCURVE",
"202 707 OFFCURVE",
"243 707 CURVE SMOOTH",
"294 707 OFFCURVE",
"334 677 OFFCURVE",
"334 604 CURVE SMOOTH",
"334 512 OFFCURVE",
"270 445 OFFCURVE",
"187 394 CURVE",
"214 267 LINE",
"310 267 LINE",
"291 371 LINE",
"414 416 OFFCURVE",
"512 493 OFFCURVE",
"512 603 CURVE SMOOTH",
"512 709 OFFCURVE",
"418 784 OFFCURVE",
"274 784 CURVE SMOOTH"
);
}
);
width = 532;
}
);
leftKerningGroup = question;
rightKerningGroup = question;
unicode = 003F;
},
{
color = 4;
glyphname = questiondown;
lastChange = "2018-06-15 03:12:10 +0000";
layers = (
{
layerId = "184835E3-72D9-430C-A639-2454AC4A0BE8";
paths = (
{
closed = 1;
nodes = (
"415 -272 OFFCURVE",
"512 -184 OFFCURVE",
"512 -87 CURVE SMOOTH",
"512 -15 OFFCURVE",
"457 22 OFFCURVE",
"409 22 CURVE SMOOTH",
"364 22 OFFCURVE",
"320 -12 OFFCURVE",
"320 -61 CURVE SMOOTH",
"320 -104 OFFCURVE",
"355 -132 OFFCURVE",
"388 -143 CURVE",
"368 -176 OFFCURVE",
"330 -195 OFFCURVE",
"290 -195 CURVE SMOOTH",
"238 -195 OFFCURVE",
"199 -165 OFFCURVE",
"199 -92 CURVE SMOOTH",
"199 0 OFFCURVE",
"262 67 OFFCURVE",
"345 118 CURVE",
"318 245 LINE",
"223 245 LINE",
"241 141 LINE",
"119 96 OFFCURVE",
"20 19 OFFCURVE",
"20 -91 CURVE SMOOTH",
"20 -197 OFFCURVE",
"114 -272 OFFCURVE",
"258 -272 CURVE SMOOTH"
);
},
{
closed = 1;
nodes = (
"147 370 OFFCURVE",
"187 331 OFFCURVE",
"248 331 CURVE SMOOTH",
"308 331 OFFCURVE",
"349 370 OFFCURVE",
"349 430 CURVE SMOOTH",
"349 490 OFFCURVE",
"308 529 OFFCURVE",
"248 529 CURVE SMOOTH",
"187 529 OFFCURVE",
"147 490 OFFCURVE",
"147 430 CURVE SMOOTH {name = hr00;}"
);
}
);
width = 532;
}
);
leftKerningGroup = questiondown;
rightKerningGroup = questiondown;
unicode = 00BF;
},
{
glyphname = periodcentered;
lastChange = "2018-06-15 03:06:21 +0000";
layers = (
{
layerId = "184835E3-72D9-430C-A639-2454AC4A0BE8";
paths = (
{
closed = 1;
nodes = (
"229 392 OFFCURVE",
"188 431 OFFCURVE",
"128 431 CURVE SMOOTH",
"67 431 OFFCURVE",
"26 392 OFFCURVE",
"26 332 CURVE SMOOTH",
"26 273 OFFCURVE",
"67 233 OFFCURVE",
"128 233 CURVE SMOOTH",
"188 233 OFFCURVE",
"229 273 OFFCURVE",
"229 332 CURVE SMOOTH {name = hr00;}"
);
}
);
width = 255;
}
);
leftKerningGroup = anoteleia;
rightKerningGroup = anoteleia;
unicode = 00B7;
},
{
glyphname = bullet;
lastChange = "2018-06-15 03:06:33 +0000";
layers = (
{
layerId = "184835E3-72D9-430C-A639-2454AC4A0BE8";
paths = (
{
closed = 1;
nodes = (
"351 426 OFFCURVE",
"289 487 OFFCURVE",
"194 487 CURVE SMOOTH",
"98 487 OFFCURVE",
"37 426 OFFCURVE",
"37 333 CURVE SMOOTH",
"37 240 OFFCURVE",
"98 178 OFFCURVE",
"194 178 CURVE SMOOTH",
"289 178 OFFCURVE",
"351 240 OFFCURVE",
"351 333 CURVE SMOOTH {name = hr00;}"
);
}
);
width = 388;
}
);
leftKerningGroup = bullet;
rightKerningGroup = bullet;
unicode = 2022;
},
{
color = 4;
glyphname = asterisk;
lastChange = "2018-06-13 17:25:09 +0000";
layers = (
{
layerId = "184835E3-72D9-430C-A639-2454AC4A0BE8";
paths = (
{
closed = 1;
nodes = (
"237 1035 OFFCURVE",
"214 1005 OFFCURVE",
"214 968 CURVE SMOOTH",
"214 955 OFFCURVE",
"217 942 OFFCURVE",
"222 929 CURVE SMOOTH",
"285 779 LINE",
"322 779 LINE",
"327 1035 LINE",
"287 1035 LINE SMOOTH {name = hr01;}"
);
},
{
closed = 1;
nodes = (
"53 843 OFFCURVE",
"52 833 OFFCURVE",
"52 825 CURVE SMOOTH",
"52 780 OFFCURVE",
"92 754 OFFCURVE",
"138 758 CURVE SMOOTH",
"301 772 LINE",
"313 807 LINE",
"69 891 LINE",
"56 853 LINE SMOOTH"
);
},
{
closed = 1;
nodes = (
"179 563 OFFCURVE",
"195 558 OFFCURVE",
"209 558 CURVE SMOOTH",
"242 558 OFFCURVE",
"269 586 OFFCURVE",
"278 623 CURVE SMOOTH",
"317 783 LINE",
"286 804 LINE",
"131 599 LINE",
"162 576 LINE SMOOTH"
);
},
{
closed = 1;
nodes = (
"485 613 OFFCURVE",
"496 633 OFFCURVE",
"496 653 CURVE SMOOTH",
"496 678 OFFCURVE",
"480 705 OFFCURVE",
"453 721 CURVE SMOOTH",
"313 805 LINE {name = hr02;}",
"283 783 LINE",
"431 574 LINE",
"462 596 LINE SMOOTH"
);
},
{
closed = 1;
nodes = (
"516 919 OFFCURVE",
"492 936 OFFCURVE",
"465 936 CURVE SMOOTH",
"446 936 OFFCURVE",
"425 928 OFFCURVE",
"407 912 CURVE SMOOTH",
"285 804 LINE",
"296 769 LINE",
"540 846 LINE",
"528 882 LINE SMOOTH"
);
}
);
width = 592;
}
);
leftKerningGroup = asterisk;
rightKerningGroup = asterisk;
unicode = 002A;
},
{
glyphname = numbersign;
lastChange = "2018-06-15 03:12:20 +0000";
layers = (
{
layerId = "184835E3-72D9-430C-A639-2454AC4A0BE8";
paths = (
{
closed = 1;
nodes = (
"188 -1 OFFCURVE",
"229 4 OFFCURVE",
"253 14 CURVE",
"362 712 LINE",
"332 712 OFFCURVE",
"290 707 OFFCURVE",
"268 698 CURVE",
"158 -1 LINE {name = hr00;}"
);
},
{
closed = 1;
nodes = (
"390 -1 OFFCURVE",
"431 4 OFFCURVE",
"455 14 CURVE",
"564 712 LINE",
"535 712 OFFCURVE",
"494 707 OFFCURVE",
"471 698 CURVE",
"361 -1 LINE"
);
},
{
closed = 1;
nodes = (
"617 226 OFFCURVE",
"627 256 OFFCURVE",
"631 285 CURVE",
"89 286 LINE",
"76 264 OFFCURVE",
"66 234 OFFCURVE",
"62 204 CURVE",
"604 205 LINE"
);
},
{
closed = 1;
nodes = (
"646 445 OFFCURVE",
"656 474 OFFCURVE",
"660 503 CURVE",
"118 504 LINE",
"106 482 OFFCURVE",
"95 451 OFFCURVE",
"91 423 CURVE",
"633 423 LINE"
);
}
);
width = 722;
}
);
leftKerningGroup = numbersign;
rightKerningGroup = numbersign;
unicode = 0023;
},
{
glyphname = slash;
lastChange = "2018-06-15 03:12:28 +0000";
layers = (
{
layerId = "184835E3-72D9-430C-A639-2454AC4A0BE8";
paths = (
{
closed = 1;
nodes = (
"66 -193 OFFCURVE",
"110 -207 OFFCURVE",
"135 -208 CURVE",
"434 716 LINE",
"414 735 OFFCURVE",
"371 749 OFFCURVE",
"346 750 CURVE",
"46 -175 LINE {name = hr00;}"
);
}
);
width = 480;
}
);
leftKerningGroup = slash;
rightKerningGroup = slash;
unicode = 002F;
},
{
glyphname = backslash;
lastChange = "2018-06-12 17:44:11 +0000";
layers = (
{
layerId = "184835E3-72D9-430C-A639-2454AC4A0BE8";
paths = (
{
closed = 1;
nodes = (
"126 724 LINE",
"45 693 LINE",
"321 -160 LINE",
"403 -129 LINE {name = hr00;}"
);
}
);
width = 447;
}
);
leftKerningGroup = backslash;
rightKerningGroup = backslash;
unicode = 005C;
},
{
glyphname = exclamdown.case;
lastChange = "2018-06-15 03:07:23 +0000";
layers = (
{
layerId = "184835E3-72D9-430C-A639-2454AC4A0BE8";
paths = (
{
closed = 1;
nodes = (
"28 623 OFFCURVE",
"68 584 OFFCURVE",
"129 584 CURVE SMOOTH",
"190 584 OFFCURVE",
"230 623 OFFCURVE",
"230 682 CURVE SMOOTH",
"230 742 OFFCURVE",
"190 782 OFFCURVE",
"129 782 CURVE SMOOTH",
"68 782 OFFCURVE",
"28 742 OFFCURVE",
"28 682 CURVE SMOOTH {name = hr00;}"
);
},
{
closed = 1;
nodes = (
"38 70 LINE SMOOTH",
"37 62 OFFCURVE",
"37 55 OFFCURVE",
"37 49 CURVE SMOOTH",
"37 1 OFFCURVE",
"62 -19 OFFCURVE",
"108 -19 CURVE SMOOTH",
"151 -19 LINE SMOOTH",
"195 -19 OFFCURVE",
"221 1 OFFCURVE",
"221 49 CURVE SMOOTH",
"221 55 OFFCURVE",
"220 62 OFFCURVE",
"219 70 CURVE SMOOTH",
"170 461 LINE",
"88 461 LINE"
);
}
);
width = 257;
}
);
leftKerningGroup = exclamdown;
rightKerningGroup = exclamdown;
},
{
color = 4;
glyphname = questiondown.case;
lastChange = "2018-06-15 03:07:45 +0000";
layers = (
{
layerId = "184835E3-72D9-430C-A639-2454AC4A0BE8";
paths = (
{
closed = 1;
nodes = (
"441 -19 OFFCURVE",
"538 69 OFFCURVE",
"538 166 CURVE SMOOTH",
"538 238 OFFCURVE",
"483 275 OFFCURVE",
"435 275 CURVE SMOOTH",
"390 275 OFFCURVE",
"346 241 OFFCURVE",
"346 192 CURVE SMOOTH",
"346 149 OFFCURVE",
"381 121 OFFCURVE",
"414 110 CURVE",
"394 77 OFFCURVE",
"356 58 OFFCURVE",
"316 58 CURVE SMOOTH",
"264 58 OFFCURVE",
"225 88 OFFCURVE",
"225 161 CURVE SMOOTH",
"225 253 OFFCURVE",
"288 320 OFFCURVE",
"371 371 CURVE",
"344 498 LINE",
"249 498 LINE",
"267 394 LINE",
"145 349 OFFCURVE",
"46 272 OFFCURVE",
"46 162 CURVE SMOOTH",
"46 56 OFFCURVE",
"140 -19 OFFCURVE",
"284 -19 CURVE SMOOTH"
);
},
{
closed = 1;
nodes = (
"173 623 OFFCURVE",
"213 584 OFFCURVE",
"274 584 CURVE SMOOTH",
"334 584 OFFCURVE",
"375 623 OFFCURVE",
"375 683 CURVE SMOOTH",
"375 743 OFFCURVE",
"334 782 OFFCURVE",
"274 782 CURVE SMOOTH",
"213 782 OFFCURVE",
"173 743 OFFCURVE",
"173 683 CURVE SMOOTH {name = hr00;}"
);
}
);
width = 558;
}
);
leftKerningGroup = questiondown;
rightKerningGroup = questiondown;
},
{
glyphname = slash.case;
lastChange = "2018-06-15 03:08:06 +0000";
layers = (
{
layerId = "184835E3-72D9-430C-A639-2454AC4A0BE8";
paths = (
{
closed = 1;
nodes = (
"66 -193 OFFCURVE",
"110 -207 OFFCURVE",
"135 -208 CURVE",
"434 716 LINE",
"414 735 OFFCURVE",
"371 749 OFFCURVE",
"346 750 CURVE",
"46 -175 LINE {name = hr00;}"
);
}
);
width = 480;
}
);
leftKerningGroup = slash.case;
rightKerningGroup = slash.case;
},
